<?xml version="1.0" encoding="utf-8"?>
<!-- Generator: Adobe Illustrator 18.1.1, SVG Export Plug-In . SVG Version: 6.00 Build 0)  -->
<svg version="1.1" id="Layer_1" xmlns="http://www.w3.org/2000/svg" xmlns:xlink="http://www.w3.org/1999/xlink" x="0px" y="0px"
	 viewBox="0 0 33 41" enable-background="new 0 0 33 41" xml:space="preserve">
<path fill="currentColor" d="M31.9,28.5c-0.9-1.4-2-2.4-3.4-2.9l-4-1.3c-0.1,0-0.3,0-0.4,0l-0.6-1c-0.2-0.3-0.6-0.4-0.9-0.2l-0.3,0.2
	v-0.9c0-0.1,0-0.2-0.1-0.3c2-1.8,3.2-4.4,3.2-7.4v-2.2c0.9-2.4,1.2-4.8,0.9-6.8c-0.3-2.3-1.4-3.9-3.1-4.8c0,0,0,0,0,0c0,0,0,0,0,0
	c0,0,0,0,0,0c0,0,0,0,0,0c0,0,0,0,0,0c0,0,0,0,0,0c0,0,0,0,0,0c0,0,0,0,0,0c0,0,0,0,0,0c0,0,0,0,0,0c0,0,0,0,0,0c0,0,0,0,0,0
	c0,0,0,0,0,0c0,0,0,0,0,0c0,0,0,0,0,0c0,0,0,0,0,0c-1.5,0.3-2.9,0-4.2-0.3c-2.1-0.5-4.4-1-6.7,1c-0.1,0-0.3,0-0.4,0
	c-2.7,0-5,2.2-5.1,4.9c0,0,0,0,0,0.1c0,0,0,0,0,0.1c0,0,0,0,0,0c0,0,0,0,0,0c0,3,1.1,6.4,1.3,7v1.2c0,3,1.3,5.6,3.2,7.4
	c0,0.1-0.1,0.2-0.1,0.3v0.9l-0.3-0.2c-0.3-0.2-0.7-0.1-0.9,0.2l-0.6,1c-0.1,0-0.3,0-0.4,0l-4,1.3C3.3,26,2.1,27,1.3,28.5
	c-0.8,1.3-1.2,2.9-1.2,4.4v5.6c0,1.4,1.1,2.6,2.5,2.6h12.1c0,0,0,0,0,0c0,0,0,0,0,0h3.8c0,0,0,0,0,0c0,0,0,0,0,0h12.1
	c1.4,0,2.5-1.1,2.5-2.6v-5.6C33.1,31.3,32.6,29.8,31.9,28.5z M26,30.9c0,0.1,0,0.2-0.1,0.3l-2.1,1.6c-0.1,0.1-0.2,0.3-0.3,0.5
	c0,0.2,0.1,0.4,0.2,0.5l1.3,1.3c0.1,0.1,0.1,0.3,0,0.4L22,39.7h-2.6l5.4-13.9c0,0,0-0.1,0-0.1l0.7,0.2L26,30.9z M15.1,39.7l-0.4-1.2
	c0,0,0,0,0,0l1.2-5.9c0,0,0.1,0,0.1,0h1.3c0,0,0.1,0,0.1,0l1.2,5.9c0,0,0,0,0,0L18,39.7H15.1z M11.2,39.7l-3.1-4.2
	c-0.1-0.1-0.1-0.3,0-0.4l1.3-1.3c0.1-0.1,0.2-0.3,0.2-0.5c0-0.2-0.1-0.4-0.3-0.5l-2.1-1.6c-0.1-0.1-0.1-0.2-0.1-0.3L7.7,26l0.7-0.2
	c0,0,0,0.1,0,0.1l5.4,13.9H11.2L11.2,39.7z M15.9,28.8h1.3c0.4,0,0.6,0.3,0.6,0.6v1.3c0,0.4-0.3,0.6-0.6,0.6h-1.3
	c-0.4,0-0.6-0.3-0.6-0.6v-1.3C15.3,29.1,15.6,28.8,15.9,28.8z M19.3,36.4l-0.8-4.2c0,0,0,0,0.1-0.1l0,0c0.3,0.4,0.7,0.6,1.1,0.7
	c0.1,0,0.1,0,0.2,0c0.4,0,0.7-0.1,1-0.4L19.3,36.4z M14.5,32.1L14.5,32.1C14.6,32.1,14.6,32.1,14.5,32.1l-0.7,4.3l-1.5-3.9
	c0.3,0.2,0.6,0.4,1,0.4c0.1,0,0.1,0,0.2,0C13.9,32.7,14.3,32.5,14.5,32.1z M22.7,24.6l0.8,1.1L22,29.5c-0.1,0-0.1,0.1-0.2,0.1
	l-1.8,1.8c-0.1,0.1-0.2,0.1-0.2,0.1c0,0-0.1,0-0.2-0.1l-0.5-0.8v-1.1c0-0.9-0.6-1.6-1.4-1.9L22.7,24.6z M7.7,6.5
	c0-2.1,1.7-3.8,3.8-3.8c0.5,0,1,0.1,1.5,0.3c0.3,0.1,0.7,0,0.8-0.3c0.1-0.3,0-0.7-0.3-0.8c1.5-0.9,3-0.5,4.8-0.1
	c1.3,0.3,2.9,0.7,4.5,0.4c1.6,0.9,2.1,2.6,2.3,3.8c0.2,1.4,0.1,3.1-0.4,4.9l-1.2-2.1c-0.1-0.2-0.4-0.4-0.6-0.3
	c-0.1,0-7.1,1-12.4-1.2c-0.3-0.1-0.7,0-0.8,0.3s0,0.7,0.3,0.8c4.9,2,10.9,1.6,12.6,1.4l1.6,2.9v0.3c0,0,0,0,0,0h-1.9h-3.8
	c-0.4,0-0.7,0.2-1,0.5c0,0.1-0.1,0.1-0.1,0.2h-1.6c0-0.1-0.1-0.1-0.1-0.2c-0.2-0.3-0.6-0.5-1-0.5h-3.8H9.1c0.4-1.6,1.4-2.8,1.5-2.8
	c0.2-0.3,0.2-0.7,0-0.9c-0.3-0.2-0.7-0.2-0.9,0c0,0.1-0.8,0.8-1.3,2C8,9.9,7.7,8.1,7.7,6.5z M22.3,14.1l-0.5,1.2c0,0,0,0,0,0
	c-0.2,0.5-0.5,0.7-1,0.7h-1.3c-0.3,0-0.6-0.2-0.6-0.5c0,0,0,0,0,0l-0.3-1.3L22.3,14.1z M14.7,14.1l-0.3,1.3c0,0,0,0,0,0
	C14.3,15.8,14,16,13.7,16h-1.3c-0.5,0-0.8-0.2-1-0.7c0,0,0,0,0,0l-0.5-1.2L14.7,14.1z M9,14.7v-0.6v0h0.6c0,0.1,0,0.1,0,0.2
	c0,0.1,0,0.1,0,0.2l0.6,1.4c0.4,0.9,1.2,1.5,2.2,1.5h1.3c0.9,0,1.7-0.7,1.9-1.6l0.2-1h1.5l0.2,1c0.2,0.9,0.9,1.6,1.9,1.6h1.3
	c1,0,1.8-0.5,2.2-1.5l0.6-1.4c0,0,0-0.1,0-0.2c0-0.1,0-0.1,0-0.2h0.6c0,0,0,0,0,0v0.6c0,4.6-3.4,8.3-7.6,8.3S9,19.3,9,14.7z
	 M12.1,23c1.3,0.8,2.8,1.3,4.5,1.3c1.6,0,3.1-0.5,4.4-1.3v1.1l-4.4,2.7l-4.4-2.7V23z M10.4,24.6l5,3c-0.8,0.2-1.4,1-1.4,1.9v1.1
	l-0.5,0.8c-0.1,0.1-0.2,0.1-0.2,0.1c0,0-0.1,0-0.2-0.1l-1.8-1.8c0,0-0.1-0.1-0.2-0.1l-1.5-3.8L10.4,24.6z M1.3,38.4v-5.6
	c0-3.2,1.9-5.5,3.8-6.1l1.2-0.4l-0.5,4.4c-0.1,0.6,0.2,1.1,0.6,1.5L8,33.4l-0.8,0.8c-0.6,0.6-0.6,1.5-0.1,2.1l2.6,3.4h-7
	C1.9,39.7,1.3,39.1,1.3,38.4z M31.8,38.4c0,0.7-0.6,1.3-1.3,1.3h-7l2.6-3.4c0.5-0.6,0.4-1.5-0.1-2.1l-0.8-0.8l1.5-1.2
	c0.4-0.3,0.7-0.9,0.6-1.5l-0.5-4.4l1.2,0.4c1.9,0.6,3.8,2.9,3.8,6.1V38.4z"/>
</svg>
