<?xml version="1.0" encoding="utf-8"?>
<!-- Generator: Adobe Illustrator 18.1.1, SVG Export Plug-In . SVG Version: 6.00 Build 0)  -->
<svg version="1.1" id="Layer_1" xmlns="http://www.w3.org/2000/svg" xmlns:xlink="http://www.w3.org/1999/xlink" x="0px" y="0px"
	 viewBox="0 0 31 31" enable-background="new 0 0 31 31" xml:space="preserve">
<g>
	<g>
		<path fill="currentColor" d="M27.8,0c-0.3,0-0.5,0.1-0.7,0.3L14.8,7.9H8.1C3.6,7.9,0,11.3,0,15.5c0,4.2,3.6,7.6,8.1,7.6h6.7l12.5,7.8
			c0.2,0.1,0.4,0.2,0.6,0.2c3.1,0,3.2-13.9,3.2-15.5C31,13.9,30.9,0,27.8,0z M14.4,21.8H8.1c-3.8,0-6.8-2.8-6.8-6.3
			c0-3.4,3-6.3,6.8-6.3h6.3V21.8z M27.8,1.4c0.6,0.7,1.6,4.5,1.8,11.5c-0.5-0.4-1.1-0.6-1.8-0.6h-1.8C26.3,5.7,27.3,2,27.8,1.4z
			 M15.7,22.1V8.9l10.2-6.2c-1.2,4.1-1.2,11.7-1.2,12.8c0,1.1,0,8.8,1.2,12.9L15.7,22.1z M26,15.5c0-0.6,0-1.3,0-1.8h1.8
			c1.1,0,1.8,0.8,1.8,1.8c0,1.1-0.9,1.8-1.8,1.8H26C26,16.8,26,16.1,26,15.5z M27.8,29.6c-0.6-0.6-1.6-4.3-1.8-11h1.8
			c0.7,0,1.3-0.2,1.8-0.6C29.4,25.1,28.4,29,27.8,29.6z"/>
	</g>
</g>
</svg>
