<?xml version="1.0" encoding="utf-8"?>
<!-- Generator: Adobe Illustrator 18.1.1, SVG Export Plug-In . SVG Version: 6.00 Build 0)  -->
<svg version="1.1" id="Layer_1" xmlns="http://www.w3.org/2000/svg" xmlns:xlink="http://www.w3.org/1999/xlink" x="0px" y="0px"
	 viewBox="0 0 34 39" enable-background="new 0 0 34 39" xml:space="preserve">
<path fill="currentColor" d="M33.2,23.8c-0.5,0-0.8,0.4-0.8,0.8V35h-6.8V22.2c0,0,0,0,0,0v-1.6h7.6c0.5,0,0.8-0.4,0.8-0.8
	c0-0.5-0.4-0.8-0.8-0.8h-8.4c-0.5,0-0.8,0.4-0.8,0.8v0.4l-5.2-5.3c-0.8-0.8-2-1-2.9-0.6c1.7-1.7,2.7-3.9,2.7-6.4
	c0-3.2-1.7-6.2-4.5-7.7c-0.3-0.1-0.6-0.1-0.8,0c-0.2,0.2-0.4,0.4-0.4,0.7v7.4H6.9V0.8c0-0.3-0.2-0.6-0.4-0.7C6.3,0,5.9,0,5.7,0.1
	C2.9,1.7,1.2,4.6,1.2,7.9c0,2.6,1.1,5.1,3.1,6.7v2.2H2.8C1.2,16.8,0,18,0,19.6v0c0,0.8,0.3,1.5,0.8,2c-0.5,0.5-0.8,1.2-0.8,2v0
	c0,0.8,0.3,1.5,0.8,2c-0.5,0.5-0.8,1.2-0.8,2v0c0,0.8,0.3,1.5,0.8,2c-0.5,0.5-0.8,1.2-0.8,2v0c0,1.6,1.2,2.8,2.8,2.8h1.6
	C4.9,37.1,7.2,39,9.8,39h0.1c2.6,0,4.8-1.9,5.4-4.4h6.5c0.5,0,0.8-0.4,0.8-0.8c0-0.5-0.4-0.8-0.8-0.8h-6.4v-6.9
	c0-0.5-0.4-0.8-0.8-0.8s-0.8,0.4-0.8,0.8v7.3c0,2.2-1.7,4-3.9,4H9.8c-1.7,0-3.2-1.1-3.7-2.7h1.3c1.5,0,2.8-1.3,2.8-2.8v0
	c0-0.8-0.3-1.5-0.8-2c0.5-0.5,0.8-1.2,0.8-2v0c0-0.8-0.3-1.5-0.8-2c0.5-0.5,0.8-1.2,0.8-2v0c0-0.8-0.3-1.5-0.8-2
	c0.5-0.5,0.8-1.2,0.8-2v0c0-1.6-1.2-2.8-2.8-2.8H5.9v-2.6c0-0.3-0.1-0.5-0.3-0.7c-1.8-1.4-2.8-3.4-2.8-5.7c0-2.1,0.9-4.1,2.5-5.4
	v6.7c0,0.5,0.4,0.8,0.8,0.8h7.5c0.5,0,0.8-0.4,0.8-0.8V2.4c1.5,1.3,2.5,3.3,2.5,5.4c0,2.2-1,4.3-2.8,5.7c-0.2,0.2-0.3,0.4-0.3,0.7
	v1.7l-2.2,2.2c-0.5,0.5-0.8,1.2-0.8,2c0,0.8,0.3,1.5,0.8,2l0,0c0.5,0.6,1.3,0.8,2,0.8c0.7,0,1.4-0.3,2-0.8l1.6-1.7
	c0.3-0.3,0.3-0.9,0-1.2c-0.3-0.3-0.8-0.3-1.2,0L14.4,21c-0.4,0.5-1.2,0.5-1.6,0l0,0c-0.2-0.2-0.3-0.5-0.3-0.8c0-0.3,0.1-0.6,0.3-0.8
	L16,16c0.4-0.5,1.2-0.5,1.6,0l0,0c0,0,0,0,0,0l6.4,6.5v13.3c0,0.5,0.4,0.8,0.8,0.8h8.4c0.5,0,0.8-0.4,0.8-0.8V24.6
	C34,24.1,33.6,23.8,33.2,23.8z M8.5,23.6L8.5,23.6c0,0.7-0.5,1.2-1.1,1.2H2.8c-0.6,0-1.1-0.5-1.1-1.2v0c0-0.6,0.5-1.2,1.1-1.2h4.6
	C8,22.5,8.5,23,8.5,23.6z M8.5,27.7L8.5,27.7c0,0.7-0.5,1.2-1.1,1.2H2.8c-0.6,0-1.1-0.5-1.1-1.2v0c0-0.6,0.5-1.2,1.1-1.2h4.6
	C8,26.5,8.5,27,8.5,27.7z M8.5,31.8c0,0.6-0.5,1.2-1.1,1.2H2.8c-0.6,0-1.1-0.5-1.1-1.2v0c0-0.6,0.5-1.2,1.1-1.2h4.6
	C8,30.6,8.5,31.1,8.5,31.8L8.5,31.8L8.5,31.8z M8.5,19.6L8.5,19.6c0,0.7-0.5,1.2-1.1,1.2H2.8c-0.6,0-1.1-0.5-1.1-1.2v0
	c0-0.6,0.5-1.2,1.1-1.2h4.6C8,18.4,8.5,19,8.5,19.6z"/>
</svg>
