<?xml version="1.0" encoding="utf-8"?>
<!-- Generator: Adobe Illustrator 16.0.3, SVG Export Plug-In . SVG Version: 6.00 Build 0)  -->
<!DOCTYPE svg PUBLIC "-//W3C//DTD SVG 1.1//EN" "http://www.w3.org/Graphics/SVG/1.1/DTD/svg11.dtd">
<svg version="1.1" id="Layer_1" xmlns="http://www.w3.org/2000/svg" xmlns:xlink="http://www.w3.org/1999/xlink" x="0px" y="0px"
	 width="32px" height="32px" viewBox="0 0 32 32" enable-background="new 0 0 32 32" xml:space="preserve">
<path fill="currentColor" d="M27.307,4.69c-3.021-3.021-7.037-4.687-11.31-4.687c-4.272,0-8.288,1.665-11.309,4.687
	C1.666,7.712,0,11.728,0,16c0,4.271,1.666,8.288,4.688,11.311c3.021,3.021,7.037,4.687,11.309,4.687
	c2.481,0,4.746-0.461,6.544-1.322c1.704-0.823,2.941-2.002,3.488-3.312c0.652-1.573,0.283-3.213-1.008-4.504l-0.045-0.047
	c0.02-0.024,0.045-0.045,0.064-0.063c0.921-0.97,0.921-2.238-0.014-3.174l-2.278-2.277c-0.446-0.461-0.985-0.711-1.56-0.711
	c-0.573,0-1.119,0.244-1.58,0.705l-1.186,1.185c-0.059-0.033-0.111-0.06-0.172-0.086c-0.145-0.072-0.275-0.138-0.387-0.211
	c-1.205-0.763-2.298-1.765-3.345-3.048c-0.461-0.579-0.777-1.072-1.014-1.56c0.296-0.276,0.573-0.56,0.843-0.836
	c0.112-0.119,0.23-0.23,0.349-0.35c0.968-0.968,0.968-2.218,0-3.186l-1.126-1.126c-0.132-0.132-0.257-0.257-0.382-0.389
	c-0.25-0.257-0.507-0.52-0.783-0.776c-0.448-0.441-0.981-0.672-1.547-0.672s-1.106,0.23-1.567,0.672
	C9.289,6.916,9.289,6.916,9.282,6.922L7.867,8.338c-0.566,0.565-0.895,1.264-0.961,2.066c-0.099,1.251,0.264,2.409,0.547,3.167
	c0.678,1.83,1.691,3.529,3.199,5.345c1.83,2.186,4.035,3.917,6.557,5.135c0.969,0.461,2.266,1.001,3.727,1.1
	c0.092,0.007,0.185,0.007,0.276,0.007c1.021,0,1.884-0.368,2.556-1.099c0.006-0.008,0.02-0.021,0.024-0.026
	c0.021-0.026,0.046-0.054,0.071-0.079l0.039,0.04c0.845,0.842,1.074,1.803,0.666,2.784c-0.758,1.797-3.7,3.641-8.571,3.641
	C8.044,30.417,1.58,23.952,1.58,16S8.044,1.583,15.997,1.583S30.414,8.048,30.414,16c0,1.311-0.178,2.6-0.521,3.844
	c-0.117,0.422,0.133,0.856,0.553,0.975c0.423,0.119,0.857-0.131,0.975-0.553C31.803,18.883,32,17.448,32,16
	C31.994,11.728,30.328,7.712,27.307,4.69z"/>
</svg>
