<?xml version="1.0" encoding="utf-8"?>
<!-- Generator: Adobe Illustrator 18.1.1, SVG Export Plug-In . SVG Version: 6.00 Build 0)  -->
<svg version="1.1" id="Layer_1" xmlns="http://www.w3.org/2000/svg" xmlns:xlink="http://www.w3.org/1999/xlink" x="0px" y="0px"
	 viewBox="0 0 36 43" enable-background="new 0 0 36 43" xml:space="preserve">
<path fill="currentColor" d="M30,28.2c0,0,0-7.5,0-12.9c0-8.6-9.4-12-9.4-12h-5.1c0,0-9.4,3.4-9.4,12c0,5.3,0,12.9,0,12.9
	c-0.7,0.7-6,3-6,5.1C0,34.2,0,35,0,35h36c0,0,0-0.8,0-1.7C36,31.2,30.7,28.9,30,28.2z"/>
<path fill="currentColor" d="M21.5,3.6c0,1.9-1.5,3.4-3.4,3.4s-3.4-1.5-3.4-3.4c0-1.9,1.6-3.4,3.4-3.4C19.9,0.2,21.5,1.7,21.5,3.6z"/>
<path fill="currentColor" d="M24,36.8c0,3.3-2.7,6-6,6s-6-2.7-6-6H24z"/>
</svg>
