<?xml version="1.0" encoding="utf-8"?>
<!-- Generator: Adobe Illustrator 18.1.1, SVG Export Plug-In . SVG Version: 6.00 Build 0)  -->
<svg version="1.1" id="Layer_1" xmlns="http://www.w3.org/2000/svg" xmlns:xlink="http://www.w3.org/1999/xlink" x="0px" y="0px"
	 viewBox="0 0 42 42" enable-background="new 0 0 42 42" xml:space="preserve">
<g>
	<g>
		<path fill="currentColor" d="M38.7,4.8H35v2c0,2.2-1.8,4-4,4h-0.9c-2.2,0-4-1.8-4-4v-2H15.9v2c0,2.2-1.8,4-4,4H11c-2.2,0-4-1.8-4-4v-2
			H3.3C1.5,4.8,0,6.3,0,8.1V38c0,1.8,1.5,3.3,3.3,3.3h35.4c1.8,0,3.3-1.5,3.3-3.3V8.1C42,6.3,40.5,4.8,38.7,4.8z M37.9,37.4
			c0,0.1-0.1,0.3-0.3,0.3H4.2c-0.1,0-0.3-0.1-0.3-0.3V13.8c0-0.1,0.1-0.3,0.3-0.3h33.4c0.1,0,0.3,0.1,0.3,0.3V37.4z"/>
	</g>
	<path fill="currentColor" d="M12.7,8.8h-2.5C9.3,8.8,8.5,8,8.5,7.1V2.5c0-0.9,0.8-1.7,1.7-1.7h2.5c0.9,0,1.7,0.8,1.7,1.7v4.6
		C14.4,8,13.7,8.8,12.7,8.8z"/>
	<path fill="currentColor" d="M31.8,8.8h-2.5c-0.9,0-1.7-0.8-1.7-1.7V2.5c0-0.9,0.8-1.7,1.7-1.7h2.5c0.9,0,1.7,0.8,1.7,1.7v4.6
		C33.5,8,32.7,8.8,31.8,8.8z"/>
	<path fill="currentColor" d="M12.6,21.5H8.2c-0.1,0-0.3-0.1-0.3-0.3V18c0-0.1,0.1-0.3,0.3-0.3h4.4c0.1,0,0.3,0.1,0.3,0.3v3.3
		C12.9,21.4,12.8,21.5,12.6,21.5z"/>
	<path fill="currentColor" d="M19.8,21.5h-4.4c-0.1,0-0.3-0.1-0.3-0.3V18c0-0.1,0.1-0.3,0.3-0.3h4.4c0.1,0,0.3,0.1,0.3,0.3v3.3
		C20.1,21.4,19.9,21.5,19.8,21.5z"/>
	<path fill="currentColor" d="M26.9,21.5h-4.4c-0.1,0-0.3-0.1-0.3-0.3V18c0-0.1,0.1-0.3,0.3-0.3h4.4c0.1,0,0.3,0.1,0.3,0.3v3.3
		C27.2,21.4,27.1,21.5,26.9,21.5z"/>
	<path fill="currentColor" d="M12.6,27.5H8.2c-0.1,0-0.3-0.1-0.3-0.3V24c0-0.1,0.1-0.3,0.3-0.3h4.4c0.1,0,0.3,0.1,0.3,0.3v3.3
		C12.9,27.4,12.8,27.5,12.6,27.5z"/>
	<path fill="currentColor" d="M19.8,27.5h-4.4c-0.1,0-0.3-0.1-0.3-0.3V24c0-0.1,0.1-0.3,0.3-0.3h4.4c0.1,0,0.3,0.1,0.3,0.3v3.3
		C20.1,27.4,19.9,27.5,19.8,27.5z"/>
	<path fill="currentColor" d="M26.9,27.5h-4.4c-0.1,0-0.3-0.1-0.3-0.3V24c0-0.1,0.1-0.3,0.3-0.3h4.4c0.1,0,0.3,0.1,0.3,0.3v3.3
		C27.2,27.4,27.1,27.5,26.9,27.5z"/>
	<path fill="currentColor" d="M34.1,27.5h-4.4c-0.1,0-0.3-0.1-0.3-0.3V24c0-0.1,0.1-0.3,0.3-0.3h4.4c0.1,0,0.3,0.1,0.3,0.3v3.3
		C34.4,27.4,34.2,27.5,34.1,27.5z"/>
	<path fill="currentColor" d="M19.8,33.5h-4.4c-0.1,0-0.3-0.1-0.3-0.3V30c0-0.1,0.1-0.3,0.3-0.3h4.4c0.1,0,0.3,0.1,0.3,0.3v3.3
		C20.1,33.4,19.9,33.5,19.8,33.5z"/>
	<path fill="currentColor" d="M26.9,33.5h-4.4c-0.1,0-0.3-0.1-0.3-0.3V30c0-0.1,0.1-0.3,0.3-0.3h4.4c0.1,0,0.3,0.1,0.3,0.3v3.3
		C27.2,33.4,27.1,33.5,26.9,33.5z"/>
	<path fill="currentColor" d="M34.1,33.5h-4.4c-0.1,0-0.3-0.1-0.3-0.3V30c0-0.1,0.1-0.3,0.3-0.3h4.4c0.1,0,0.3,0.1,0.3,0.3v3.3
		C34.4,33.4,34.2,33.5,34.1,33.5z"/>
</g>
</svg>
