<?xml version="1.0" encoding="utf-8"?>
<!-- Generator: Adobe Illustrator 16.0.3, SVG Export Plug-In . SVG Version: 6.00 Build 0)  -->
<!DOCTYPE svg PUBLIC "-//W3C//DTD SVG 1.1//EN" "http://www.w3.org/Graphics/SVG/1.1/DTD/svg11.dtd">
<svg version="1.1" id="Layer_1" xmlns="http://www.w3.org/2000/svg" xmlns:xlink="http://www.w3.org/1999/xlink" x="0px" y="0px"
	 width="64px" height="64px" viewBox="0 0 64 64" enable-background="new 0 0 64 64" xml:space="preserve">
<g>
	<g>
		<g>
			<path fill="currentColor" d="M32,0C14.328,0,0,14.328,0,32s14.328,32,32,32s32-14.328,32-32C64,14.324,49.672,0,32,0z M40.271,31.996
				L35.027,32l-0.004,19.199h-7.195V32h-4.8v-6.616l4.8-0.004l-0.008-3.896c0-5.4,1.464-8.684,7.821-8.684h5.295v6.62h-3.312
				c-2.476,0-2.597,0.924-2.597,2.648L35.02,25.38h5.952L40.271,31.996z"/>
		</g>
	</g>
</g>
</svg>
