<?xml version="1.0" encoding="utf-8"?>
<!-- Generator: Adobe Illustrator 18.1.1, SVG Export Plug-In . SVG Version: 6.00 Build 0)  -->
<svg version="1.1" id="Layer_1" xmlns="http://www.w3.org/2000/svg" xmlns:xlink="http://www.w3.org/1999/xlink" x="0px" y="0px"
	 viewBox="0 0 36 36" enable-background="new 0 0 36 36" xml:space="preserve">
<g>
	<path fill="currentColor" d="M35.8,0.7C35.6,0.3,35.2,0,34.6,0H1.4c-0.6,0-1,0.3-1.2,0.7C0,1.2,0.1,1.7,0.5,2.1l12.1,13.1
		c0.1,0.1,0.2,0.5,0.2,0.7v14.7c0,0.7,0.5,1.5,1.2,1.9l7.2,3.4c0.2,0.1,0.4,0.1,0.7,0.1c0.2,0,0.5-0.1,0.7-0.2
		c0.4-0.2,0.6-0.7,0.6-1.2V15.8c0-0.1,0.1-0.5,0.2-0.7L35.4,2.1C35.9,1.7,36,1.2,35.8,0.7z M21.4,33.9l-6.6-3.1
		c-0.1,0-0.1-0.1-0.1-0.2V15.8c0-0.1,0-0.1,0-0.1h6.7c0,0.1,0,0.1,0,0.1V33.9L21.4,33.9z M22.2,13.8h-8.4L2.8,1.8h30.5L22.2,13.8z"
		/>
</g>
</svg>
