<?xml version="1.0" encoding="utf-8"?>
<!-- Generator: Adobe Illustrator 18.1.1, SVG Export Plug-In . SVG Version: 6.00 Build 0)  -->
<svg version="1.1" id="Layer_1" xmlns="http://www.w3.org/2000/svg" xmlns:xlink="http://www.w3.org/1999/xlink" x="0px" y="0px"
	 viewBox="0 0 35 44" enable-background="new 0 0 35 44" xml:space="preserve">
<g>
	<g id="XMLID_1844_">
		<path id="XMLID_1845_" fill="currentColor" d="M17.4,11.1c-3.7,0-6.7,3-6.7,6.7c0,0.9,0.7,1.6,1.6,1.6s1.6-0.7,1.6-1.6
			c0-1.9,1.6-3.5,3.5-3.5c0.9,0,1.6-0.7,1.6-1.6S18.3,11.1,17.4,11.1z"/>
		<path id="XMLID_1995_" fill="currentColor" d="M35,17.6C35,7.7,26.8-0.3,16.8,0C8.1,0.3,0.8,7.1,0,15.8c-0.2,1.7-0.1,3.4,0.2,5l0,0
			c0,0,0,0.2,0.1,0.5c0.3,1.2,0.7,2.4,1.2,3.5c1.8,4.2,5.8,11.2,15,18.7c0.6,0.5,1.4,0.5,2,0c9.1-7.6,13.2-14.6,15-18.7
			c0.5-1.1,0.9-2.3,1.2-3.5c0.1-0.4,0.1-0.5,0.1-0.5l0,0C34.9,19.8,35,18.7,35,17.6z M17.4,28.4c-5.9,0-10.7-4.8-10.7-10.7
			c0-5.9,4.8-10.7,10.7-10.7c5.9,0,10.7,4.8,10.7,10.7S23.3,28.4,17.4,28.4z"/>
	</g>
</g>
</svg>
