<?xml version="1.0" encoding="utf-8"?>
<!-- Generator: Adobe Illustrator 18.1.1, SVG Export Plug-In . SVG Version: 6.00 Build 0)  -->
<svg version="1.1" id="Layer_1" xmlns="http://www.w3.org/2000/svg" xmlns:xlink="http://www.w3.org/1999/xlink" x="0px" y="0px"
	 viewBox="0 0 50 50" enable-background="new 0 0 50 50" xml:space="preserve">
<circle fill="#FFFFFF" cx="25" cy="25" r="24.8"/>
<g>
	<path fill="#31B5E8" d="M36.5,29.9c0.9-1.9,7.3-2.8,7.3-4.7c0-2.1-6.4-3-7.3-4.9c-0.9-1.9,3.2-7.1,1.7-8.5s-6.6,2.6-8.5,1.7
		C28,12.6,27.1,6.2,25,6.2s-3,6.4-4.9,7.3s-7.1-3.2-8.5-1.7s2.6,6.6,1.7,8.5C12.4,22.2,6,23.1,6,25c0,2.1,6.4,3,7.3,4.9
		S10,37,11.5,38.5s6.6-2.6,8.5-1.7c1.9,0.9,2.8,7.3,4.7,7.3c2.1,0,3-6.4,4.9-7.3s7.1,3.2,8.5,1.7C39.7,37,35.9,31.8,36.5,29.9z"/>
</g>
<circle fill="#FFFFFF" cx="25" cy="25" r="10.5"/>
</svg>
