<?xml version="1.0" encoding="utf-8"?>
<!-- Generator: Adobe Illustrator 18.1.1, SVG Export Plug-In . SVG Version: 6.00 Build 0)  -->
<svg version="1.1" id="Layer_1" xmlns="http://www.w3.org/2000/svg" xmlns:xlink="http://www.w3.org/1999/xlink" x="0px" y="0px"
	 viewBox="0 0 24 24" enable-background="new 0 0 24 24" xml:space="preserve">
<g>
	<g>
		<path fill="currentColor" d="M18.2,15.9c-0.8-0.8-1.8-0.8-2.5,0c-0.6,0.6-1.2,1.2-1.8,1.8c-0.2,0.2-0.3,0.2-0.5,0.1
			c-0.4-0.2-0.8-0.4-1.2-0.6c-1.7-1.1-3.2-2.5-4.4-4c-0.6-0.8-1.2-1.6-1.6-2.6c-0.1-0.2-0.1-0.3,0.1-0.5c0.6-0.6,1.2-1.2,1.8-1.8
			c0.8-0.8,0.8-1.8,0-2.6C7.6,5.2,7.2,4.8,6.7,4.3c-0.5-0.5-1-1-1.4-1.4c-0.8-0.8-1.8-0.8-2.5,0C2.1,3.5,1.5,4.1,0.9,4.7
			C0.4,5.2,0.1,5.8,0,6.6C-0.1,7.9,0.2,9,0.7,10.2c0.9,2.4,2.2,4.5,3.8,6.4c2.2,2.6,4.8,4.7,7.9,6.2c1.4,0.7,2.8,1.2,4.4,1.3
			c1.1,0.1,2-0.2,2.7-1c0.5-0.6,1.1-1.1,1.6-1.6c0.8-0.8,0.8-1.8,0-2.6C20.2,17.8,19.2,16.8,18.2,15.9z"/>
		<path fill="currentColor" d="M17.3,11.9l1.8-0.3c-0.3-1.7-1.1-3.2-2.3-4.4c-1.3-1.3-2.9-2.1-4.7-2.3l-0.3,1.9c1.4,0.2,2.6,0.8,3.6,1.8
			C16.5,9.4,17.1,10.6,17.3,11.9z"/>
		<path fill="currentColor" d="M20.2,3.9C18,1.8,15.4,0.4,12.4,0l-0.3,1.9c2.6,0.4,4.9,1.5,6.7,3.4c1.7,1.7,2.9,3.9,3.3,6.4l1.8-0.3
			C23.5,8.5,22.2,5.9,20.2,3.9z"/>
	</g>
</g>
</svg>
