<?xml version="1.0" encoding="utf-8"?>
<!-- Generator: Adobe Illustrator 18.1.1, SVG Export Plug-In . SVG Version: 6.00 Build 0)  -->
<svg version="1.1" id="Layer_1" xmlns="http://www.w3.org/2000/svg" xmlns:xlink="http://www.w3.org/1999/xlink" x="0px" y="0px"
	 viewBox="0 0 43 39" enable-background="new 0 0 43 39" xml:space="preserve">
<path fill="currentColor" d="M40.8,34.6H2.2c-1.2,0-2.2,1-2.2,2.2C0,38,1,39,2.2,39h38.6c1.2,0,2.2-1,2.2-2.2C43,35.5,42,34.6,40.8,34.6z
	"/>
<path fill="currentColor" d="M4.5,31.3h6.9c0.8,0,1.4-0.6,1.4-1.4v-19c0-0.8-0.6-1.4-1.4-1.4H4.5c-0.8,0-1.4,0.6-1.4,1.4v19
	C3.1,30.7,3.7,31.3,4.5,31.3z"/>
<path fill="currentColor" d="M18.1,31.3h6.9c0.8,0,1.4-0.6,1.4-1.4V1.4c0-0.8-0.6-1.4-1.4-1.4h-6.9c-0.8,0-1.4,0.6-1.4,1.4V30
	C16.7,30.7,17.3,31.3,18.1,31.3z"/>
<path fill="currentColor" d="M31.7,31.3h6.9c0.8,0,1.4-0.6,1.4-1.4V14.6c0-0.8-0.6-1.4-1.4-1.4h-6.9c-0.8,0-1.4,0.6-1.4,1.4V30
	C30.3,30.7,30.9,31.3,31.7,31.3z"/>
</svg>
