<?xml version="1.0" encoding="utf-8"?>
<!-- Generator: Adobe Illustrator 18.1.1, SVG Export Plug-In . SVG Version: 6.00 Build 0)  -->
<svg version="1.1" id="Layer_1" xmlns="http://www.w3.org/2000/svg" xmlns:xlink="http://www.w3.org/1999/xlink" x="0px" y="0px"
	 viewBox="0 0 44 44" enable-background="new 0 0 44 44" xml:space="preserve">
<g>
	<path fill="currentColor" d="M42.8,0.6c-0.3-0.2-0.5-0.2-0.8-0.1L28.9,6.6L15.7,0.5c-0.3-0.1-0.6-0.1-0.8,0L0.8,7C0.5,7.2,0,7.5,0,7.9
		v34.3c0,0.3,0.4,0.7,0.7,0.8c0.2,0.1,0.5,0.2,0.7,0.2c0.1,0,0.4,0,0.5-0.1l12.9-6.3l14.1,6.3c0.3,0.1,0.6,0.1,0.9,0l12.9-6.8
		c0.3-0.2,0.3-0.5,0.3-0.9v-34C43,1.1,43.1,0.8,42.8,0.6z M41,34.8l-11.9,6.3l-13.9-6.3c-0.1-0.1-0.2-0.1-0.3-0.1
		c-0.2,0-0.5,0-0.7,0.1L2,40.7V8.6l13-6l13.3,6.1c0.3,0.1,0.4,0.1,0.7,0L41,3V34.8z"/>
	<path fill="currentColor" d="M6.1,28.2C5.5,28.1,5,28.4,4.9,29c0,0.2-0.1,0.3-0.1,0.3c-0.1,0.5,0.3,1.1,0.8,1.2c0.1,0,0.1,0,0.2,0
		c0.5,0,0.9-0.3,1-0.8c0,0,0-0.1,0-0.2C7,28.8,6.6,28.3,6.1,28.2z"/>
	<path fill="currentColor" d="M15.6,18c-0.2,0-0.3,0-0.5,0c-0.6,0-1,0.4-1.1,0.9c0,0.6,0.4,1,0.9,1.1c0.1,0,0.3,0,0.4,0c0,0,0.1,0,0.1,0
		c0.5,0,0.9-0.4,1-0.9C16.6,18.5,16.2,18.1,15.6,18z"/>
	<path fill="currentColor" d="M20.4,19.9c-0.4-0.3-1.1-0.3-1.4,0.2c-0.3,0.4-0.3,1.1,0.2,1.4c0.1,0.1,0.2,0.2,0.3,0.3
		c0.2,0.2,0.4,0.3,0.7,0.3c0.3,0,0.6-0.1,0.7-0.3c0.4-0.4,0.3-1-0.1-1.4C20.7,20.2,20.5,20.1,20.4,19.9z"/>
	<path fill="currentColor" d="M10,19.4c-0.1,0.1-0.3,0.2-0.4,0.3c-0.4,0.4-0.5,1-0.1,1.4c0.2,0.2,0.5,0.3,0.8,0.3c0.2,0,0.5-0.1,0.7-0.2
		c0.1-0.1,0.2-0.2,0.3-0.3c0.4-0.3,0.5-1,0.2-1.4C11.1,19.2,10.5,19.1,10,19.4z"/>
	<path fill="currentColor" d="M30.3,27.1c-0.1,0.1-0.2,0.2-0.3,0.3c-0.4,0.3-0.5,1-0.2,1.4c0.2,0.3,0.5,0.4,0.8,0.4
		c0.2,0,0.4-0.1,0.6-0.2c0.1-0.1,0.3-0.2,0.4-0.3c0.4-0.4,0.5-1,0.1-1.4C31.3,26.8,30.7,26.8,30.3,27.1z"/>
	<path fill="currentColor" d="M23.8,24.8c0-0.1,0-0.2-0.1-0.3c-0.2-0.5-0.8-0.8-1.3-0.6c-0.5,0.2-0.8,0.8-0.6,1.3c0,0.1,0,0.1,0,0.1
		c0,0,0,0,0,0c0,0,0,0.1,0.1,0.3c0.2,0.4,0.5,0.7,0.9,0.7c0.1,0,0.2,0,0.3-0.1c0.5-0.2,0.8-0.8,0.6-1.3
		C23.8,24.9,23.8,24.8,23.8,24.8z"/>
	<path fill="currentColor" d="M8,23.4c-0.5-0.2-1.1,0-1.3,0.5c-0.1,0.1-0.1,0.3-0.2,0.4c-0.2,0.5,0,1.1,0.5,1.3c0.1,0.1,0.3,0.1,0.4,0.1
		c0.4,0,0.7-0.2,0.9-0.6c0.1-0.1,0.1-0.3,0.2-0.4C8.7,24.2,8.5,23.6,8,23.4z"/>
	<path fill="currentColor" d="M26.5,28.2c-0.1,0-0.2-0.1-0.3-0.1c-0.5-0.3-1.1-0.1-1.4,0.4s-0.1,1.1,0.4,1.4c0.2,0.1,0.4,0.2,0.5,0.2
		c0.1,0,0.2,0.1,0.4,0.1c0.4,0,0.8-0.2,0.9-0.6C27.3,29,27,28.4,26.5,28.2z"/>
	<path fill="currentColor" d="M34.7,23.3c-0.5-0.3-1.1-0.2-1.4,0.3c0,0,0,0.1-0.1,0.2c-0.3,0.5-0.2,1.1,0.3,1.4c0.2,0.1,0.4,0.2,0.6,0.2
		c0.3,0,0.6-0.2,0.8-0.4c0.1-0.1,0.2-0.2,0.2-0.2C35.3,24.2,35.2,23.6,34.7,23.3z"/>
	<path fill="currentColor" d="M29.5,14.4l3,3l-3,3c-0.4,0.4-0.4,1,0,1.4c0.2,0.2,0.5,0.3,0.7,0.3s0.5-0.1,0.7-0.3l3-3l3,3
		c0.2,0.2,0.5,0.3,0.7,0.3s0.5-0.1,0.7-0.3c0.4-0.4,0.4-1,0-1.4l-3-3l3-3c0.4-0.4,0.4-1,0-1.4c-0.4-0.4-1-0.4-1.4,0l-3,3l-3-3
		c-0.4-0.4-1-0.4-1.4,0C29.1,13.4,29.1,14,29.5,14.4z"/>
</g>
</svg>
