<?xml version="1.0" encoding="utf-8"?>
<!-- Generator: Adobe Illustrator 18.1.1, SVG Export Plug-In . SVG Version: 6.00 Build 0)  -->
<svg version="1.1" id="Layer_1" xmlns="http://www.w3.org/2000/svg" xmlns:xlink="http://www.w3.org/1999/xlink" x="0px" y="0px"
	 viewBox="0 0 30 32" enable-background="new 0 0 30 32" xml:space="preserve">
<g>
	<path fill="currentColor" d="M24.3,20.5c-1.8,0-3.5,0.9-4.5,2.2l-8.7-4.9c0.2-0.6,0.3-1.2,0.3-1.9c0-0.7-0.1-1.3-0.3-1.9l8.7-4.9
		c1,1.4,2.7,2.2,4.5,2.2c3.1,0,5.7-2.6,5.7-5.7s-2.6-5.7-5.7-5.7s-5.7,2.6-5.7,5.7c0,0.7,0.1,1.3,0.3,1.9l-8.7,4.9
		c-1-1.4-2.7-2.2-4.5-2.2C2.6,10.3,0,12.9,0,16c0,3.1,2.6,5.7,5.7,5.7c1.8,0,3.5-0.9,4.5-2.2l8.7,4.9c-0.2,0.6-0.3,1.2-0.3,1.9
		c0,3.1,2.6,5.7,5.7,5.7s5.7-2.6,5.7-5.7S27.4,20.5,24.3,20.5z M24.3,1.9c2.2,0,3.9,1.8,3.9,3.9s-1.8,3.9-3.9,3.9
		c-2.2,0-3.9-1.8-3.9-3.9C20.4,3.6,22.2,1.9,24.3,1.9z M5.7,19.9c-2.2,0-3.9-1.8-3.9-3.9c0-2.2,1.8-3.9,3.9-3.9s3.9,1.8,3.9,3.9
		C9.6,18.1,7.8,19.9,5.7,19.9z M24.3,30.1c-2.2,0-3.9-1.8-3.9-3.9s1.8-3.9,3.9-3.9c2.2,0,3.9,1.8,3.9,3.9S26.5,30.1,24.3,30.1z"/>
</g>
</svg>
