<?xml version="1.0" encoding="utf-8"?>
<!-- Generator: Adobe Illustrator 18.1.1, SVG Export Plug-In . SVG Version: 6.00 Build 0)  -->
<svg version="1.1" id="Layer_1" xmlns="http://www.w3.org/2000/svg" xmlns:xlink="http://www.w3.org/1999/xlink" x="0px" y="0px"
	 viewBox="0 0 32 32" enable-background="new 0 0 32 32" xml:space="preserve">
<g>
	<path fill="currentColor" d="M32,12.3c-0.1-0.3-0.4-0.6-0.7-0.6l-10-1.4l-4.5-9c-0.2-0.3-0.5-0.5-0.8-0.5l0,0c-0.3,0-0.6,0.2-0.8,0.5
		l-4.4,9.1l-10,1.5C0.4,11.8,0.1,12,0,12.4c-0.1,0.3,0,0.7,0.2,0.9l7.2,7l-1.7,9.9c-0.1,0.3,0.1,0.7,0.4,0.9
		c0.2,0.1,0.3,0.2,0.5,0.2c0.1,0,0.3,0,0.4-0.1l8.9-4.7l8.9,4.7c0.1,0.1,0.3,0.1,0.4,0.1l0,0c0.5,0,0.9-0.4,0.9-0.9
		c0-0.1,0-0.1,0-0.2l-1.7-9.9l7.2-7.1C32,12.9,32.1,12.6,32,12.3z M23,19.3c-0.2,0.2-0.3,0.5-0.3,0.8l1.5,8.6l-7.8-4.1
		c-0.3-0.1-0.6-0.1-0.8,0l-7.7,4.1l1.5-8.6c0-0.3,0-0.6-0.3-0.8l-6.3-6.1l8.7-1.3c0.3,0,0.5-0.2,0.7-0.5L16,3.6l3.9,7.8
		c0.1,0.3,0.4,0.4,0.7,0.5l8.7,1.2L23,19.3z"/>
</g>
</svg>
