<?xml version="1.0" encoding="utf-8"?>
<!-- Generator: Adobe Illustrator 16.0.3, SVG Export Plug-In . SVG Version: 6.00 Build 0)  -->
<!DOCTYPE svg PUBLIC "-//W3C//DTD SVG 1.1//EN" "http://www.w3.org/Graphics/SVG/1.1/DTD/svg11.dtd">
<svg version="1.1" id="Layer_1" xmlns="http://www.w3.org/2000/svg" xmlns:xlink="http://www.w3.org/1999/xlink" x="0px" y="0px"
	 width="64px" height="64px" viewBox="0 0 64 64" enable-background="new 0 0 64 64" xml:space="preserve">
<g>
	<g>
		<path fill="currentColor" d="M32,0C14.328,0,0,14.328,0,32s14.328,32,32,32s32-14.328,32-32C64,14.324,49.672,0,32,0z M47.92,24.816
			l0.023,1.02c0,10.416-7.924,22.416-22.416,22.416c-4.448,0-8.588-1.304-12.076-3.54c0.616,0.071,1.244,0.112,1.88,0.112
			c3.692,0,7.088-1.26,9.784-3.373c-3.448-0.063-6.356-2.344-7.36-5.471c0.484,0.092,0.972,0.136,1.484,0.136
			c0.72,0,1.416-0.093,2.076-0.272c-3.604-0.728-6.32-3.908-6.32-7.724v-0.1c1.064,0.592,2.276,0.944,3.568,0.988
			c-2.112-1.412-3.504-3.824-3.504-6.556c0-1.444,0.388-2.796,1.064-3.96c3.884,4.768,9.692,7.904,16.24,8.232
			c-0.136-0.576-0.204-1.18-0.204-1.796c0-4.348,3.528-7.876,7.88-7.876c2.264,0,4.312,0.956,5.752,2.488
			c1.792-0.356,3.479-1.012,5.004-1.912c-0.588,1.84-1.836,3.384-3.464,4.36c1.588-0.188,3.111-0.616,4.523-1.24
			C50.8,22.324,49.46,23.712,47.92,24.816z"/>
	</g>
</g>
</svg>
