<?xml version="1.0" encoding="utf-8"?>
<!-- Generator: Adobe Illustrator 18.1.1, SVG Export Plug-In . SVG Version: 6.00 Build 0)  -->
<svg version="1.1" id="Layer_1" xmlns="http://www.w3.org/2000/svg" xmlns:xlink="http://www.w3.org/1999/xlink" x="0px" y="0px"
	 viewBox="0 0 43 41" enable-background="new 0 0 43 41" xml:space="preserve">
<g>
	<g>
		<path fill="currentColor" d="M41.4,19.9c-1.9-1.8-7.2-6.7-8.1-7.5c-0.4-1.3-1-2.5-1.5-3.6C29,3.1,25.3,0,21.5,0S14,3.1,11.2,8.9
			c-0.6,1.1-1.1,2.3-1.5,3.6c-0.9,0.8-6.2,5.7-8.1,7.5c-2.1,2-2.2,5.3-0.2,7.4c0.1,0.1,0.3,0.2,0.5,0.2c0.2,0,0.3-0.1,0.5-0.2
			l5.1-4.7c-0.2,1.7-0.3,3.4-0.3,5c0,5.3,1.5,9.9,4.2,13.1c0.1,0.2,0.3,0.2,0.5,0.2h19.3c0.2,0,0.4-0.1,0.5-0.2
			c2.7-3.1,4.2-7.8,4.2-13.1c0-1.7-0.1-3.4-0.3-5l5.1,4.7c0.1,0.1,0.3,0.2,0.5,0.2c0.2,0,0.4-0.1,0.5-0.2
			C43.6,25.2,43.4,21.9,41.4,19.9z M2,25.8c-1-1.5-0.8-3.6,0.6-4.9c1.3-1.2,4.3-4,6.3-5.8c-0.5,1.7-0.9,3.6-1.2,5.4L2,25.8z
			 M30.8,39.6h-1.8c1.4-3,2.2-7.2,2.2-11.9c0-7.6-1.3-15.3-3.4-20.8c-0.1-0.2-0.3-0.4-0.5-0.4c-0.2,0-0.5,0-0.6,0.2
			c-1.2,1.2-2.5,2-3.8,2.4c-0.3,0.1-0.5,0.3-0.5,0.6c-0.1,0.7-0.5,1.4-0.9,1.9c-0.4-0.5-0.8-1.2-0.9-1.9c0-0.3-0.2-0.5-0.5-0.6
			c-1.3-0.3-2.6-1.1-3.8-2.4c-0.2-0.2-0.4-0.2-0.6-0.2c-0.2,0-0.4,0.2-0.5,0.4c-2,5-3.3,12.3-3.4,19.4c0,0.4,0.3,0.7,0.7,0.7
			c0.4,0,0.7-0.3,0.7-0.7c0.1-3.6,0.4-7.2,1-10.5c0.5-2.7,1.1-5.3,1.9-7.4c1.1,0.9,2.1,1.5,3.3,1.9c0.4,1.5,1.6,2.8,1.7,2.9
			c0.1,0.1,0.3,0.2,0.5,0.2c0.2,0,0.4-0.1,0.5-0.2c0.1-0.1,1.3-1.3,1.7-2.9c1.1-0.4,2.2-1,3.3-1.9c0.8,2.2,1.4,4.7,1.9,7.4
			c0.7,3.7,1.1,7.8,1.1,11.9c0,4.8-0.8,9-2.4,11.9H15.5c-1.4-2.6-2.2-6.3-2.4-10.6c0-0.4-0.3-0.7-0.7-0.7c0,0,0,0,0,0
			c-0.4,0-0.7,0.3-0.7,0.7c0.1,4.2,0.9,7.8,2.2,10.5h-1.8c-2.3-2.9-3.6-7.1-3.6-11.9c0-6.4,1.4-13.1,4-18.2c2.5-5.1,5.8-8.1,9-8.1
			s6.5,3,9,8.1c2.5,5.1,4,11.8,4,18.2C34.5,32.5,33.2,36.8,30.8,39.6z M41,25.8l-5.7-5.3c-0.3-1.9-0.7-3.7-1.2-5.4
			c2,1.8,5,4.6,6.3,5.8C41.8,22.2,42,24.3,41,25.8z M18.9,5.1h-0.6c-0.4,0-0.7,0.3-0.7,0.7c0,0.4,0.3,0.7,0.7,0.7h0.6
			c0.4,0,0.7-0.3,0.7-0.7C19.6,5.4,19.3,5.1,18.9,5.1z M24.7,5.1h-0.6c-0.4,0-0.7,0.3-0.7,0.7c0,0.4,0.3,0.7,0.7,0.7h0.6
			c0.4,0,0.7-0.3,0.7-0.7C25.4,5.4,25.1,5.1,24.7,5.1z"/>
	</g>
</g>
</svg>
