<?xml version="1.0" encoding="utf-8"?>
<!-- Generator: Adobe Illustrator 18.1.1, SVG Export Plug-In . SVG Version: 6.00 Build 0)  -->
<svg version="1.1" id="Layer_1" xmlns="http://www.w3.org/2000/svg" xmlns:xlink="http://www.w3.org/1999/xlink" x="0px" y="0px"
	 viewBox="0 0 36 31" enable-background="new 0 0 36 31" xml:space="preserve">
<g>
	<g>
		<path fill="currentColor" d="M35.3,8L28,0.7C27.5,0.3,26.9,0,26.2,0c-0.7,0-1.3,0.3-1.7,0.7l-1.7,1.7c-0.3,0.3-0.5,0.6-0.6,0.9
			l-8.1-1.4c0,0,0,0,0,0C10.5,1.2,7,3.5,6.2,7.1L5.9,8.9c-0.4,2,0.9,4,2.9,4.4c2,0.4,4-0.9,4.4-2.9l0.2-1.1l3.6,0.3l9.4,9.4l1.7,1.7
			c0.3,0.3,0.3,0.9,0,1.2c-0.3,0.3-0.9,0.3-1.3,0l-4.6-4.5c-0.3-0.3-0.8-0.3-1.2,0c-0.3,0.3-0.3,0.8,0,1.1l4.6,4.5
			c0.2,0.2,0.3,0.4,0.3,0.6c0,0.2-0.1,0.5-0.3,0.6c-0.3,0.3-0.9,0.3-1.3,0L20,19.8c-0.3-0.3-0.8-0.3-1.2,0c-0.3,0.3-0.3,0.8,0,1.1
			l4.6,4.5c0.3,0.3,0.3,0.9,0,1.2C23.2,26.9,23,27,22.8,27c-0.2,0-0.5-0.1-0.6-0.3l-4.6-4.5c-0.3-0.3-0.8-0.3-1.2,0
			c-0.3,0.3-0.3,0.8,0,1.1l4.6,4.5c0.3,0.3,0.3,0.9,0,1.2c-0.3,0.3-0.9,0.3-1.3,0L3.5,13l-2.1-2.1c-0.3-0.3-0.8-0.3-1.2,0
			c-0.3,0.3-0.3,0.8,0,1.1l2.1,2.1l2.3,2.3l-1.3,1.3c-0.4,0.4-0.7,1-0.7,1.6s0.2,1.1,0.7,1.6l0.4,0.4c0.4,0.4,0.8,0.6,1.4,0.6
			c0.1,0.5,0.3,1,0.6,1.3l0.4,0.4c0.4,0.4,0.9,0.6,1.4,0.6c0,0.5,0.3,1,0.6,1.3l0.4,0.4c0.4,0.4,0.8,0.6,1.4,0.6
			c0.1,0.5,0.3,1,0.6,1.3l0.4,0.4c0.4,0.4,1,0.6,1.6,0.6c0.6,0,1.1-0.2,1.6-0.6l1.3-1.3l3.1,3.1c0.5,0.5,1.1,0.7,1.8,0.7
			s1.3-0.3,1.8-0.7c0.5-0.4,0.7-1,0.7-1.7c0.6,0,1.2-0.3,1.7-0.7c0.5-0.5,0.7-1.1,0.7-1.7c0.6,0,1.2-0.3,1.7-0.7s0.7-1.1,0.7-1.7
			c0.6,0,1.2-0.3,1.7-0.7c1-1,1-2.6,0-3.5l-1.1-1.1l4.1-4.1l2.9-2.9C36.2,10.5,36.2,8.9,35.3,8z M5.8,20.2c-0.2,0.2-0.6,0.2-0.8,0
			l-0.4-0.4c-0.2-0.2-0.2-0.6,0-0.8l1.2-1.2L7,19L5.8,20.2z M8.2,22.5c-0.2,0.2-0.6,0.2-0.8,0L7,22.1c-0.2-0.2-0.2-0.6,0-0.8
			l1.2-1.2l1.3,1.2L8.2,22.5z M10.7,24.9c-0.2,0.2-0.6,0.2-0.8,0l-0.4-0.4c-0.1-0.1-0.2-0.3-0.2-0.4c0-0.2,0.1-0.3,0.2-0.4l1.2-1.2
			l1.3,1.2L10.7,24.9z M13.1,27.3c-0.2,0.2-0.6,0.2-0.8,0l-0.4-0.4c-0.2-0.2-0.2-0.6,0-0.8l1.2-1.2l1.3,1.2L13.1,27.3z M27.1,17.3
			l-9.1-9C17.9,8.1,17.7,8,17.5,8l-4.6-0.4c0,0,0,0-0.1,0c-0.4,0-0.7,0.3-0.8,0.7l-0.4,1.8c-0.2,1.1-1.4,1.9-2.5,1.7
			c-0.6-0.1-1-0.4-1.4-0.9c-0.3-0.5-0.4-1-0.3-1.6l0.4-1.8c0.6-2.7,3.2-4.5,6-3.9c0,0,0,0,0,0l7.9,1.4l1,1l7.9,7.9L27.1,17.3z
			 M34.1,10.3l-2.3,2.3l-7.9-7.9c-0.2-0.2-0.2-0.4-0.2-0.6c0-0.2,0.1-0.4,0.2-0.6l1.7-1.7c0.2-0.2,0.4-0.2,0.6-0.2
			c0.2,0,0.4,0.1,0.6,0.2l7.3,7.3c0.2,0.2,0.2,0.4,0.2,0.6C34.4,9.9,34.3,10.1,34.1,10.3z M32.1,9.2c-0.5,0-0.8,0.4-0.8,0.8
			s0.4,0.8,0.8,0.8c0.5,0,0.8-0.4,0.8-0.8S32.6,9.2,32.1,9.2z"/>
	</g>
</g>
</svg>
