<?xml version="1.0" encoding="utf-8"?>
<!-- Generator: Adobe Illustrator 18.1.1, SVG Export Plug-In . SVG Version: 6.00 Build 0)  -->
<svg version="1.1" id="Layer_1" xmlns="http://www.w3.org/2000/svg" xmlns:xlink="http://www.w3.org/1999/xlink" x="0px" y="0px"
	 viewBox="0 0 28 35" enable-background="new 0 0 28 35" xml:space="preserve">
<path fill="currentColor" d="M27.4,0.1C27-0.1,26.6,0,26.2,0.2c-3.2,2.6-8.4,2.6-11.6,0c-0.4-0.3-1-0.3-1.4,0c-3.2,2.6-8.4,2.6-11.6,0
	C1.4,0,1-0.1,0.6,0.1C0.2,0.3,0,0.7,0,1.1v19.7C0,27.1,5.1,32.4,13.7,35c0.1,0,0.2,0,0.3,0c0.1,0,0.2,0,0.3,0
	C22.9,32.4,28,27.1,28,20.8V1.1C28,0.7,27.8,0.3,27.4,0.1z M2,3.1c2.3,1.2,5,1.5,7.5,1.1L2,12.5V3.1z M12.7,32.4
	C5.9,30,2,25.8,2,20.8v-2.2h10.8V32.4z M12.7,16.4H7.6l5.1-5.9V16.4z M12.7,7.2l-8,9.2H2v-0.7L12.7,3.8V7.2z M14.9,18.6h3l-3,3.6
	V18.6z M14.9,25.6l5.9-7h3.4L14.9,29V25.6z M25.7,20.8c0,5-4,9.3-10.8,11.6v-0.2l10.8-12V20.8z M25.7,16.4H14.9V3.1
	c3.3,1.7,7.5,1.7,10.8,0V16.4z"/>
</svg>
