<?xml version="1.0" encoding="utf-8"?>
<!-- Generator: Adobe Illustrator 18.1.1, SVG Export Plug-In . SVG Version: 6.00 Build 0)  -->
<svg version="1.1" id="Layer_1" xmlns="http://www.w3.org/2000/svg" xmlns:xlink="http://www.w3.org/1999/xlink" x="0px" y="0px"
	 viewBox="0 0 42 38" enable-background="new 0 0 42 38" xml:space="preserve">
<path fill="currentColor" d="M29.4,0c-3.1,0-6.1,1.1-8.4,3.2C18.7,1.1,15.7,0,12.6,0C5.6,0,0,5.6,0,12.5c0,4.3,2.4,9.5,6.7,14.6
	c4,4.7,9.1,8.6,14,10.9c0.1,0,0.2,0.1,0.3,0.1c0.1,0,0.2,0,0.3-0.1c4.9-2.3,10-6.2,14-10.9C39.6,22,42,16.8,42,12.5
	C42,5.6,36.4,0,29.4,0z M12.6,1.3c3,0,5.8,1.2,7.9,3.2c0.3,0.3,0.7,0.3,1,0c2.1-2.1,4.9-3.2,7.9-3.2c6.2,0,11.2,5,11.2,11.1
	c0,1.5-0.3,3.1-0.9,4.8h-8.6c-0.3,0-0.6,0.2-0.7,0.5l-0.8,3.6L27.5,12c-0.1-0.3-0.3-0.5-0.7-0.5c0,0,0,0,0,0c-0.3,0-0.6,0.2-0.7,0.5
	l-1.3,5.2h-8.2c-0.3,0-0.6,0.2-0.7,0.5l-0.8,3.6L13,12c-0.1-0.3-0.3-0.5-0.7-0.5c0,0,0,0,0,0c-0.3,0-0.6,0.2-0.7,0.5l-1.3,5.2h-8
	c-0.6-1.7-0.9-3.3-0.9-4.8C1.4,6.3,6.4,1.3,12.6,1.3z M34.3,26.2c-3.7,4.4-8.7,8.2-13.3,10.4c-4.6-2.2-9.5-6-13.3-10.4
	c-2.2-2.6-3.9-5.1-4.9-7.6h8c0.3,0,0.6-0.2,0.7-0.5l0.8-3.1l2.3,9.5c0.1,0.3,0.3,0.5,0.7,0.5c0,0,0,0,0,0c0.3,0,0.6-0.2,0.7-0.5
	l1.3-5.9h8.2c0.3,0,0.6-0.2,0.7-0.5l0.8-3.1l2.3,9.5c0.1,0.3,0.3,0.5,0.7,0.5c0,0,0,0,0,0c0.3,0,0.6-0.2,0.7-0.5l1.3-5.9h7.5
	C38.1,21.1,36.4,23.6,34.3,26.2z"/>
</svg>
