<?xml version="1.0" encoding="utf-8"?>
<!-- Generator: Adobe Illustrator 18.1.1, SVG Export Plug-In . SVG Version: 6.00 Build 0)  -->
<svg version="1.1" id="Layer_1" xmlns="http://www.w3.org/2000/svg" xmlns:xlink="http://www.w3.org/1999/xlink" x="0px" y="0px"
	 viewBox="0 0 29 42" enable-background="new 0 0 29 42" xml:space="preserve">
<g>
	<g>
		<path fill="currentColor" d="M27.4,22.9c-0.9-1.8-2.2-3.3-3.7-4.6c1.5-2,2.3-4.4,2.3-6.9C26,5.1,20.8,0,14.5,0C8.2,0,3,5.1,3,11.4
			c0,2.5,0.8,4.9,2.3,6.9c-1.5,1.3-2.8,2.8-3.7,4.6c-1.1,2-1.6,4.3-1.6,6.6c0,2.6,0.7,5.1,2,7.3c1.3,2.1,3.1,3.9,5.2,5.2
			C7.3,42,7.4,42,7.5,42h13.9c0.1,0,0.2,0,0.3-0.1c2.1-1.2,3.9-3,5.2-5.2c1.3-2.2,2-4.7,2-7.3C29,27.2,28.4,24.9,27.4,22.9z
			 M21.3,40.7H7.7C3.8,38.3,1.3,34,1.3,29.5c0-4.1,2-8.1,5.4-10.5C6.9,18.8,7,18.6,7,18.5c0-0.2,0-0.4-0.2-0.5
			c-1.6-1.8-2.4-4.1-2.4-6.6c0-5.5,4.5-10.1,10.1-10.1c5.6,0,10.1,4.5,10.1,10.1c0,2.4-0.9,4.7-2.4,6.6c-0.1,0.1-0.2,0.3-0.2,0.5
			c0,0.2,0.1,0.4,0.3,0.5c3.4,2.5,5.4,6.4,5.4,10.5C27.7,34,25.2,38.3,21.3,40.7z M14.5,16.7c3.7,0,6.7-3,6.7-6.7
			c0-0.3,0-0.5-0.1-0.8c0,0,0-0.1,0-0.1c-0.5-3.3-3.3-5.8-6.7-5.8c-3.4,0-6.2,2.5-6.7,5.8c0,0,0,0.1,0,0.1c0,0.3-0.1,0.5-0.1,0.8
			C7.8,13.7,10.8,16.7,14.5,16.7z M19.5,8c-1.4-0.8-2.7-1.9-3.6-3.2C17.5,5.3,18.9,6.5,19.5,8z M13.1,4.9c-1,1.3-2.2,2.4-3.6,3.2
			C10.1,6.5,11.5,5.3,13.1,4.9z M9.1,9.7c2.2-1,4-2.5,5.4-4.4c1.3,1.9,3.2,3.5,5.4,4.4c0,0.1,0,0.2,0,0.3c0,3-2.4,5.4-5.4,5.4
			c-3,0-5.4-2.4-5.4-5.4C9.1,9.9,9.1,9.8,9.1,9.7z M25,25.1c-4.1-0.1-7.8-2.3-9.9-5.8C15,19.1,14.8,19,14.5,19
			c-0.2,0-0.5,0.1-0.6,0.3c-2,3.5-5.9,5.8-10,5.8c-0.4,0-0.7,0.3-0.7,0.7c0,0.4,0.3,0.7,0.7,0.7h0c2.3,0,4.6-0.7,6.5-1.8
			c1.6-0.9,3-2.2,4-3.7c1,1.5,2.4,2.8,4,3.7c1.9,1.2,4.2,1.8,6.5,1.8c0.4,0,0.7-0.3,0.7-0.7C25.7,25.4,25.4,25.1,25,25.1z
			 M16.2,10.8h0.6c0.4,0,0.7-0.3,0.7-0.7c0-0.4-0.3-0.7-0.7-0.7h-0.6c-0.4,0-0.7,0.3-0.7,0.7C15.5,10.5,15.8,10.8,16.2,10.8z
			 M12.3,10.8h0.7c0.4,0,0.7-0.3,0.7-0.7c0-0.4-0.3-0.7-0.7-0.7h-0.7c-0.4,0-0.7,0.3-0.7,0.7C11.6,10.5,11.9,10.8,12.3,10.8z
			 M17.1,26.7c-1,0-1.9,0.4-2.6,1.1c-0.7-0.7-1.6-1.1-2.6-1.1c-2,0-3.6,1.6-3.6,3.6c0,3.4,4.4,6.9,5.8,7.9c0.1,0.1,0.3,0.1,0.4,0.1
			c0.1,0,0.3,0,0.4-0.1c0.4-0.3,1.8-1.4,3.2-2.8c0.3-0.3,0.2-0.7,0-0.9c-0.3-0.3-0.7-0.2-1,0c-1,1-2,1.9-2.6,2.4
			c-1.3-1-4.8-4.1-4.8-6.6c0-1.2,1-2.3,2.3-2.3c0.8,0,1.6,0.4,2,1.2c0.1,0.2,0.3,0.3,0.6,0.3c0.2,0,0.5-0.1,0.6-0.3
			c0.4-0.7,1.2-1.2,2-1.2c1.2,0,2.3,1,2.3,2.3c0,0.6-0.2,1.4-0.7,2.2c-0.2,0.3-0.1,0.7,0.2,0.9c0.3,0.2,0.7,0.1,0.9-0.2
			c0.6-1,0.9-2,0.9-2.8C20.7,28.3,19.1,26.7,17.1,26.7z"/>
	</g>
</g>
</svg>
