<?xml version="1.0" encoding="utf-8"?>
<!-- Generator: Adobe Illustrator 18.1.1, SVG Export Plug-In . SVG Version: 6.00 Build 0)  -->
<svg version="1.1" id="Layer_1" xmlns="http://www.w3.org/2000/svg" xmlns:xlink="http://www.w3.org/1999/xlink" x="0px" y="0px"
	 viewBox="0 0 36 31" enable-background="new 0 0 36 31" xml:space="preserve">
<path fill="currentColor" d="M4.5,6.7C1.9,7-0.2,9.3,0,12c0.2,2.3,2.2,4.2,4.6,4c2-0.2,3.6-2,3.4-4.1C7.8,10.1,6.2,8.7,4.5,9
	C3.1,9.2,1.9,10.5,2.3,12c0.1,0.5,0.4,1,0.9,1.3c0.4,0.3,1.1,0.5,1.7,0.3c0.4-0.1,0.7-0.4,0.9-0.7c0.2-0.4,0.3-0.9,0-1.4
	c-0.2-0.4-0.4-0.4-0.8-0.5c-0.2,0-0.4,0-0.6,0.1c-0.2,0.2-0.4,0.5-0.4,0.7c0,0.2,0.1,0.4,0.2,0.5c-0.1,0-0.1,0-0.2-0.1
	c-0.2-0.1-0.3-0.3-0.3-0.5c-0.1-0.7,0.4-1.3,1.1-1.4c1-0.2,1.9,0.7,2,1.7c0.2,1.3-0.9,2.5-2.2,2.6c-1.6,0.2-3-1.2-3.2-2.8
	C1.2,9.9,2.7,8.2,4.6,8.1c0,0,0,0,0.1,0h26.7c0,0,0,0,0.1,0c1.9,0.2,3.4,1.8,3.3,3.8c-0.1,1.6-1.6,2.9-3.2,2.8
	c-1.3-0.1-2.4-1.3-2.2-2.6c0.1-1,1-1.8,2-1.7c0.7,0.1,1.3,0.8,1.1,1.4c0,0.2-0.2,0.4-0.3,0.5c-0.1,0.1-0.1,0.1-0.2,0.1
	c0.1-0.1,0.2-0.3,0.2-0.5c0-0.2-0.1-0.6-0.4-0.7c-0.2-0.2-0.5-0.2-0.6-0.1c-0.3,0.1-0.5,0.1-0.8,0.5c-0.3,0.5-0.2,1,0,1.4
	c0.2,0.4,0.5,0.6,0.9,0.7c0.6,0.2,1.2,0,1.7-0.3c0.4-0.3,0.8-0.8,0.9-1.3c0.3-1.5-0.8-2.8-2.2-3.1c-1.8-0.3-3.3,1.1-3.5,2.8
	c-0.3,2.1,1.4,3.9,3.4,4.1c2.4,0.3,4.4-1.7,4.6-4c0.2-2.7-1.9-5-4.5-5.2c-0.1,0-0.1,0-0.2,0H4.7C4.6,6.7,4.6,6.7,4.5,6.7L4.5,6.7z
	 M2,0C1.6,0,1.3,0.3,1.3,0.7V2c0,0.2,0.1,0.4,0.2,0.5l2.7,2.7c0.1,0.1,0.3,0.2,0.5,0.2h26.7c0.2,0,0.3-0.1,0.5-0.2l2.7-2.7
	c0.1-0.1,0.2-0.3,0.2-0.5V0.7C34.7,0.3,34.4,0,34,0H2z M2.7,1.3h30.7v0.4L31.1,4H4.9L2.7,1.7V1.3z M10,10.8c-0.4,0-0.7,0.3-0.7,0.7
	v18.9c0,0.4,0.3,0.7,0.7,0.7c0.1,0,0.3,0,0.4-0.1l3.8-2.6c0.2-0.1,0.3-0.3,0.3-0.5l0.2-12.3c0,0,0,0,0,0c0-0.4,1.3-0.5,1.3,0
	c0,0,0,0,0,0v10.8c0,0.4,0.3,0.7,0.7,0.7c0.1,0,0.3,0,0.4-0.1l4-2.7c0.2-0.1,0.3-0.3,0.3-0.6v-8.1c0-0.4,1.3-0.4,1.3,0v6.7
	c0,0.4,0.3,0.7,0.7,0.7c0.1,0,0.2,0,0.3-0.1l2.7-1.3c0.2-0.1,0.4-0.3,0.4-0.6v-9.4c0-0.4-0.3-0.7-0.7-0.7L10,10.8L10,10.8L10,10.8z
	 M10.7,12.1h14.7v8.3L24,21.1v-5.6c0-2.2-4-2.2-4,0v7.7L17.3,25v-9.5v0c0-2.3-4-2.3-4,0v0l-0.2,11.9l-2.5,1.7L10.7,12.1L10.7,12.1z"
	/>
</svg>
