<?xml version="1.0" encoding="utf-8"?>
<!-- Generator: Adobe Illustrator 18.1.1, SVG Export Plug-In . SVG Version: 6.00 Build 0)  -->
<svg version="1.1" id="Layer_1" xmlns="http://www.w3.org/2000/svg" xmlns:xlink="http://www.w3.org/1999/xlink" x="0px" y="0px"
	 viewBox="0 0 37 42" enable-background="new 0 0 37 42" xml:space="preserve">
<g>
	<g>
		<path fill="currentColor" d="M18.5,16c-2.7,0-5,2.3-5,5c0,2.8,2.2,5,5,5s5-2.3,5-5C23.5,18.2,21.3,16,18.5,16z M18.5,24.7
			c-2,0-3.6-1.6-3.6-3.7s1.6-3.7,3.6-3.7c2,0,3.6,1.6,3.6,3.7S20.5,24.7,18.5,24.7z M18.5,18.9c-0.4,0-0.7,0.3-0.7,0.7
			c0,0.4,0.3,0.7,0.7,0.7c0.4,0,0.8,0.3,0.8,0.8c0,0.4,0.3,0.7,0.7,0.7c0.4,0,0.7-0.3,0.7-0.7C20.6,19.8,19.7,18.9,18.5,18.9z
			 M32.5,21c0.6-0.6,1.1-1.2,1.6-1.9c2.7-3.5,3.6-6.5,2.4-8.6c-1.2-2.1-4.2-2.9-8.5-2.2c-0.8,0.1-1.6,0.3-2.4,0.5
			C25,7,24.4,5.5,23.7,4.2c0.3-0.4,0.5-0.8,0.5-1.4c0-1.2-0.9-2.1-2.1-2.1c-0.3,0-0.7,0.1-1,0.2c-0.8-0.6-1.7-1-2.6-1
			c-2.4,0-4.6,2.3-6.2,6.4c-0.3,0.7-0.6,1.5-0.8,2.4c-0.8-0.2-1.6-0.4-2.4-0.5c-4.3-0.7-7.3,0.1-8.5,2.2c-1.2,2.1-0.4,5.2,2.4,8.6
			c0.5,0.6,1,1.3,1.6,1.9c-0.7,0.8-1.4,1.5-1.9,2.3c-0.2,0-0.4-0.1-0.6-0.1c-1.2,0-2.1,1-2.1,2.1c0,0.6,0.2,1.1,0.6,1.5
			c-0.7,1.8-0.7,3.4,0,4.6C1.6,33.1,3.6,34,6.4,34c0.8,0,1.8-0.1,2.7-0.2c0.8-0.1,1.6-0.3,2.4-0.5c0.2,0.8,0.5,1.6,0.8,2.4
			c1.6,4.1,3.8,6.4,6.2,6.4s4.6-2.3,6.2-6.4c0.3-0.7,0.6-1.5,0.8-2.4c1.1,0.3,2.1,0.5,3.1,0.6c0.2,0.9,1.1,1.6,2,1.6
			c1,0,1.8-0.7,2.1-1.7c1.8-0.3,3-1.1,3.7-2.3c1.2-2.1,0.4-5.2-2.4-8.6C33.6,22.2,33.1,21.6,32.5,21z M25.4,15.1
			c-0.8-0.6-1.7-1.1-2.6-1.6c-0.9-0.5-1.8-1-2.7-1.5c1.5-0.7,3-1.2,4.4-1.6C24.9,11.9,25.2,13.5,25.4,15.1z M22.1,2.1
			c0.4,0,0.8,0.3,0.8,0.8c0,0.4-0.3,0.8-0.8,0.8s-0.8-0.3-0.8-0.8C21.4,2.4,21.7,2.1,22.1,2.1z M13.6,6.9c1.4-3.5,3.2-5.5,4.9-5.5
			c0.6,0,1.1,0.2,1.7,0.6C20.1,2.2,20,2.5,20,2.9C20,4,21,5,22.1,5c0.2,0,0.3,0,0.5-0.1c0.6,1.2,1.2,2.6,1.6,4.2
			c-1.8,0.5-3.7,1.3-5.7,2.2c-1.9-0.9-3.8-1.6-5.7-2.2C13.1,8.3,13.3,7.6,13.6,6.9z M12.5,10.4c1.4,0.4,2.9,1,4.4,1.6
			c-0.9,0.5-1.8,0.9-2.7,1.5c-0.9,0.5-1.8,1.1-2.6,1.6C11.9,13.5,12.2,11.9,12.5,10.4z M2.1,24.6c0.4,0,0.8,0.3,0.8,0.8
			s-0.3,0.8-0.8,0.8c-0.4,0-0.8-0.3-0.8-0.8S1.7,24.6,2.1,24.6z M9,32.4c-3.7,0.6-6.3,0-7.2-1.6c-0.6-1-0.3-2.3,0-3.4
			c0.1,0,0.2,0,0.3,0c1.2,0,2.1-1,2.1-2.1c0-0.5-0.2-0.9-0.4-1.3c0.5-0.7,1.1-1.4,1.8-2.1c1.4,1.3,3,2.7,4.7,3.9
			c0.2,2.1,0.5,4.2,1,6.1C10.5,32.1,9.7,32.3,9,32.4z M10.1,24.1c-1.3-1-2.5-2-3.6-3.1c1.1-1,2.3-2.1,3.6-3.1C10,18.9,10,20,10,21
			C10,22,10,23.1,10.1,24.1z M10.2,16.1c-1.7,1.3-3.3,2.6-4.7,3.9C5,19.5,4.5,18.9,4,18.3c-2.3-2.9-3.1-5.5-2.2-7.1
			C2.7,9.6,5.3,9,9,9.6c0.7,0.1,1.5,0.3,2.3,0.5C10.8,11.9,10.4,14,10.2,16.1z M11.7,26.9c0.8,0.6,1.7,1.1,2.6,1.6
			c0.9,0.5,1.8,1,2.7,1.5c-1.5,0.7-3,1.2-4.4,1.6C12.2,30.1,11.9,28.5,11.7,26.9z M23.5,35.1c-1.4,3.5-3.2,5.5-4.9,5.5
			c-1.8,0-3.6-2-4.9-5.5c-0.3-0.7-0.5-1.4-0.7-2.2c1.8-0.5,3.7-1.3,5.7-2.2c1.9,0.9,3.8,1.6,5.7,2.2C24,33.7,23.8,34.4,23.5,35.1z
			 M24.6,31.6c-1.4-0.4-2.9-1-4.4-1.6c0.9-0.5,1.8-0.9,2.7-1.5c0.9-0.5,1.8-1.1,2.6-1.6C25.2,28.5,24.9,30.1,24.6,31.6z M25.6,25.1
			c-1.1,0.8-2.2,1.5-3.4,2.2c-1.2,0.7-2.4,1.3-3.6,1.9c-1.2-0.6-2.4-1.2-3.6-1.9c-1.2-0.7-2.3-1.4-3.4-2.2c-0.1-1.3-0.2-2.7-0.2-4.1
			c0-1.4,0.1-2.8,0.2-4.1c1.1-0.8,2.2-1.5,3.4-2.2c1.2-0.7,2.4-1.3,3.6-1.9c1.2,0.6,2.4,1.2,3.6,1.9c1.2,0.7,2.3,1.4,3.4,2.2
			c0.1,1.3,0.2,2.7,0.2,4.1C25.7,22.4,25.7,23.8,25.6,25.1z M28.1,9.6c3.7-0.6,6.3,0,7.2,1.6c0.9,1.6,0.1,4.2-2.2,7.1
			c-0.5,0.6-1,1.2-1.5,1.8c-1.4-1.3-3-2.7-4.7-3.9c-0.2-2.2-0.5-4.2-1-6.1C26.6,9.9,27.4,9.7,28.1,9.6z M27,17.9
			c1.3,1,2.5,2,3.6,3.1c-1.1,1-2.3,2.1-3.6,3.1c0.1-1,0.1-2,0.1-3.1C27.1,20,27.1,18.9,27,17.9z M30.7,34.1c-0.4,0-0.8-0.3-0.8-0.8
			c0-0.4,0.3-0.8,0.8-0.8c0.4,0,0.8,0.3,0.8,0.8C31.5,33.8,31.1,34.1,30.7,34.1z M35.3,30.8c-0.5,0.8-1.4,1.4-2.7,1.6
			c-0.3-0.7-1.1-1.2-1.9-1.2c-0.9,0-1.6,0.5-1.9,1.3c-0.9-0.1-1.9-0.3-2.9-0.5c0.5-1.9,0.8-3.9,1-6.1c1.7-1.3,3.3-2.6,4.7-3.9
			c0.6,0.6,1.1,1.2,1.5,1.8C35.4,26.7,36.2,29.3,35.3,30.8z"/>
	</g>
</g>
</svg>
