<?xml version="1.0" encoding="utf-8"?>
<!-- Generator: Adobe Illustrator 18.1.1, SVG Export Plug-In . SVG Version: 6.00 Build 0)  -->
<svg version="1.1" id="Layer_1" xmlns="http://www.w3.org/2000/svg" xmlns:xlink="http://www.w3.org/1999/xlink" x="0px" y="0px"
	 viewBox="0 0 30 37" enable-background="new 0 0 30 37" xml:space="preserve">
<g>
	<g>
		<path fill="currentColor" d="M25.3,35.8h-0.3c-0.3-1.3-1.5-2.4-2.9-2.4h-5.1v-1.2c1.9-0.1,3.9-0.5,5.8-1.3c0.1-0.1,0.3-0.2,0.3-0.3
			c0.1-0.1,0.1-0.3,0-0.5l-0.3-0.7c-0.1-0.3-0.5-0.4-0.8-0.3c-0.3,0.1-0.4,0.5-0.3,0.8l0.1,0.2c-1.6,0.6-3.2,0.9-4.8,1v-0.2
			c0-0.3-0.3-0.6-0.6-0.6c-0.3,0-0.6,0.3-0.6,0.6V31c-5.8-0.2-11.3-3.8-13.6-9.6c-3.2-7.7,0.3-16.6,7.8-20.1l0.1,0.2
			C10.3,1.8,10.7,2,11,1.9c0.3-0.1,0.4-0.5,0.3-0.8L11,0.4c-0.1-0.3-0.5-0.4-0.8-0.3c-8.4,3.5-12.5,13.3-9,21.9
			C3.8,28.1,9.7,32,16,32.2v1.2h-5.1c-1.4,0-2.6,1-2.9,2.4H7.8c-0.3,0-0.6,0.3-0.6,0.6c0,0.3,0.3,0.6,0.6,0.6h17.5
			c0.3,0,0.6-0.3,0.6-0.6C25.9,36.1,25.6,35.8,25.3,35.8z M9.3,35.8c0.2-0.7,0.9-1.2,1.7-1.2h11.3c0.8,0,1.4,0.5,1.7,1.2H9.3z
			 M29,10.3c-2.1-5.1-7-8.4-12.4-8.4c-1.8,0-3.5,0.3-5.1,1c-3.3,1.4-5.9,4-7.3,7.3c-1.4,3.4-1.4,7,0,10.4c2.1,5.1,7,8.4,12.4,8.4
			c1.8,0,3.5-0.3,5.1-1c3.1-1.3,5.5-3.7,6.9-6.5c0,0,0.1-0.1,0.1-0.1c0,0,0,0,0,0C30.3,18,30.5,14,29,10.3z M27.7,10.2l-4.9,2
			c-1-2.2-2.2-4.2-3.5-5.8c0.7-0.8,1.2-1.6,1.7-2.5C23.9,5.1,26.3,7.3,27.7,10.2z M16.2,16.3l2,4.9c-1.3,0.6-2.6,1.5-3.6,2.5
			c-1.2-1.5-2.4-3.3-3.3-5.4L16.2,16.3z M10.9,17.2c-0.8-2.1-1.3-4.2-1.5-6.1c1.5,0,2.9-0.3,4.3-0.8l2,4.9L10.9,17.2z M14.9,9.8
			c1.3-0.6,2.6-1.5,3.6-2.5c1.2,1.5,2.4,3.3,3.3,5.4l-4.9,2L14.9,9.8z M16.6,3.1c1.1,0,2.3,0.2,3.3,0.5c-0.4,0.7-0.9,1.4-1.4,2
			c-0.3-0.3-0.5-0.5-0.8-0.8c-0.8-0.7-1.7-1.3-2.5-1.6C15.6,3.1,16.1,3.1,16.6,3.1z M16.9,5.7c0.3,0.2,0.5,0.5,0.8,0.7
			c-1,0.9-2.1,1.7-3.3,2.3l-2-4.8C13.7,3.6,15.3,4.3,16.9,5.7z M9.5,8.8c0.2-2.2,0.8-3.7,1.9-4.5l2,4.8c-1.3,0.5-2.6,0.7-3.9,0.7
			C9.4,9.5,9.4,9.2,9.5,8.8z M8.9,5.8C8.6,6.6,8.4,7.6,8.3,8.7c0,0.4,0,0.7,0,1.1C7.5,9.8,6.6,9.7,5.9,9.4C6.6,8,7.7,6.8,8.9,5.8z
			 M5.2,10.8c0-0.1,0.1-0.2,0.1-0.2c1,0.3,2,0.5,3,0.5c0.2,2.1,0.7,4.4,1.6,6.6l-4.9,2C4,16.8,4,13.6,5.2,10.8z M5.5,20.8l4.9-2
			c1,2.2,2.2,4.2,3.5,5.8c-0.7,0.8-1.2,1.6-1.7,2.5C9.2,25.9,6.8,23.7,5.5,20.8z M16.6,27.9c-1.1,0-2.3-0.2-3.3-0.5
			c0.4-0.7,0.9-1.4,1.4-2c0.3,0.3,0.5,0.5,0.8,0.8c0.8,0.7,1.7,1.3,2.5,1.6C17.5,27.9,17,27.9,16.6,27.9z M16.2,25.3
			c-0.3-0.2-0.5-0.5-0.8-0.7c1-0.9,2.1-1.7,3.3-2.3l2,4.8C19.4,27.4,17.8,26.7,16.2,25.3z M21.8,26.7l-2-4.8
			c1.3-0.5,2.6-0.7,3.9-0.7C23.7,23.7,23,25.8,21.8,26.7z M24.2,25.2c0.1-0.3,0.2-0.6,0.3-1c0.2-0.9,0.3-1.9,0.3-3.1
			c0.8,0.1,1.6,0.2,2.4,0.4C26.5,22.9,25.5,24.2,24.2,25.2z M27.8,20.5c-1-0.3-2-0.5-3-0.5c-0.1-0.7-0.2-1.5-0.3-2.2
			c-0.1-0.3-0.4-0.5-0.7-0.5c-0.3,0.1-0.5,0.4-0.5,0.7c0.1,0.7,0.2,1.3,0.3,2c-1.5,0-2.9,0.3-4.3,0.8l-2-4.9l4.9-2
			c0.2,0.6,0.5,1.3,0.7,1.9c0.1,0.3,0.4,0.5,0.7,0.4c0.3-0.1,0.5-0.4,0.4-0.7c-0.2-0.7-0.4-1.4-0.7-2l4.9-2
			C29.2,14.4,29,17.7,27.8,20.5z"/>
	</g>
</g>
</svg>
