<?xml version="1.0" encoding="utf-8"?>
<!-- Generator: Adobe Illustrator 18.1.1, SVG Export Plug-In . SVG Version: 6.00 Build 0)  -->
<svg version="1.1" id="Layer_1" xmlns="http://www.w3.org/2000/svg" xmlns:xlink="http://www.w3.org/1999/xlink" x="0px" y="0px"
	 viewBox="0 0 38 34" enable-background="new 0 0 38 34" xml:space="preserve">
<g>
	<g>
		<path fill="currentColor" d="M11.3,24.8c-0.1-0.8-0.5-1.5-1.1-2c-0.5-0.4-1.2-0.7-1.9-0.7c-0.9,0-1.8,0.4-2.4,1.1
			c-0.5,0.6-0.7,1.4-0.7,2.2c0.1,0.8,0.5,1.5,1.1,2c0.5,0.4,1.2,0.7,1.9,0.7c0.9,0,1.8-0.4,2.4-1.1C11.1,26.5,11.4,25.7,11.3,24.8z
			 M9.5,26.2c-0.3,0.4-0.8,0.6-1.3,0.6c-0.4,0-0.7-0.1-1-0.4c-0.3-0.3-0.6-0.7-0.6-1.1c0-0.4,0.1-0.9,0.4-1.2
			c0.3-0.4,0.8-0.6,1.3-0.6c0.4,0,0.7,0.1,1,0.4c0.3,0.3,0.6,0.7,0.6,1.1C9.9,25.4,9.8,25.9,9.5,26.2z M14.8,10.7
			c0.2,0.1,0.5,0.1,0.7,0.1c1.4,0,2.7-1,3-2.4c0.2-0.8,0-1.6-0.4-2.3C17.7,5.4,17,5,16.2,4.8c-0.2-0.1-0.5-0.1-0.7-0.1
			c-1.4,0-2.7,1-3,2.4c-0.2,0.8,0,1.6,0.4,2.3C13.4,10,14,10.5,14.8,10.7z M13.9,7.4c0.2-0.8,0.8-1.3,1.6-1.3c0.1,0,0.3,0,0.4,0
			c0.4,0.1,0.8,0.4,1,0.7c0.2,0.4,0.3,0.8,0.2,1.2c-0.2,0.7-0.9,1.3-1.6,1.3c-0.1,0-0.3,0-0.4,0c-0.4-0.1-0.8-0.4-1-0.7
			C13.9,8.2,13.8,7.8,13.9,7.4z M9.3,12.5c0.6-0.5,1-1.2,1.1-2c0.1-0.8-0.1-1.6-0.7-2.2C9.2,7.4,8.3,7,7.3,7C6.7,7,6,7.3,5.4,7.7
			c-0.6,0.5-1.1,1.2-1.1,2c-0.1,0.8,0.1,1.6,0.7,2.2c0.6,0.7,1.5,1.1,2.4,1.1C8,13.1,8.7,12.9,9.3,12.5z M5.7,9.9
			c0-0.4,0.3-0.8,0.6-1.1c0.3-0.2,0.7-0.4,1-0.4c0.5,0,1,0.2,1.3,0.6C8.9,9.4,9.1,9.8,9,10.3c0,0.4-0.3,0.8-0.6,1.1
			c-0.3,0.2-0.7,0.4-1,0.4c-0.5,0-1-0.2-1.3-0.6C5.8,10.8,5.6,10.3,5.7,9.9z M37.7,5.5c-0.1-0.1-0.3-0.3-0.7-0.3
			c-0.4,0-1.5,0-7.9,5.5c-0.1,0.1-0.3,0.2-0.4,0.3c-1.2-3-3.2-5.7-5.8-7.6C20,1.2,16.4,0,12.6,0h0c-2.5,0-5.6,0.9-8,2.3
			C1.6,4,0,6.4,0,8.8c0,3,1.7,4.3,3.1,5.3c1.1,0.8,2,1.5,2,2.9c0,1.4-0.9,2.1-2,2.9c-1.4,1-3.1,2.3-3.1,5.3c0,2.5,1.6,4.8,4.6,6.5
			c2.4,1.4,5.5,2.3,8,2.3h0c4.6,0,8.9-1.8,12.2-5c3.2-3.2,5-7.4,5-11.8c1.1-1.2,2.1-2.5,3.1-3.6c1.6-2,2.9-3.6,3.8-4.9
			C37.9,7.1,38.3,6.1,37.7,5.5z M23.8,28c-3,2.9-7,4.6-11.2,4.6h0c-4.5,0-11.2-3.1-11.2-7.5c0-2.3,1.2-3.2,2.5-4.1
			c1.2-0.9,2.6-1.9,2.6-4c0-2.1-1.4-3.1-2.6-4C2.6,12,1.4,11.1,1.4,8.8c0-2.7,2.5-4.5,3.9-5.3c2.2-1.3,5.1-2.1,7.3-2.1h0
			c3.4,0,6.7,1.1,9.5,3.1c2.5,1.9,4.5,4.5,5.5,7.5c-0.8,0.7-1.7,1.5-2.5,2.2c0.1-0.2,0.2-0.4,0.3-0.6c0.3-0.8,0.2-1.6-0.1-2.3
			c-0.5-1-1.6-1.7-2.8-1.7c-0.5,0-0.9,0.1-1.3,0.3c-0.7,0.4-1.3,1-1.6,1.7c-0.3,0.8-0.2,1.6,0.1,2.3c0.5,1,1.6,1.7,2.8,1.7
			c0.5,0,0.9-0.1,1.3-0.3c0,0,0,0,0.1,0c-1.8,1.7-3.6,3.3-5,4.8c-4.1,0.5-4.6,3.2-5,5.2c-0.3,1.7-0.6,2.5-1.9,2.6
			c-0.3,0-0.6,0.3-0.6,0.6c-0.1,0.3,0.1,0.6,0.4,0.8c0.1,0,2.1,0.9,4.4,0.9c0,0,0,0,0,0c1.6,0,3-0.4,4.2-1.2c1.4-1,2.3-2.5,2.8-4.5
			c1.6-1.6,3.4-3.6,5.2-5.6C27.9,22.3,26.4,25.5,23.8,28z M24.1,13.1c-0.1,0.4-0.4,0.8-0.9,0.9c-0.2,0.1-0.5,0.2-0.7,0.2
			c-0.6,0-1.2-0.4-1.5-0.9c-0.2-0.4-0.2-0.8-0.1-1.3c0.1-0.4,0.4-0.8,0.9-0.9C22,11,22.2,11,22.5,11c0.6,0,1.2,0.4,1.5,0.9
			C24.2,12.3,24.2,12.7,24.1,13.1z M18.9,21.5l2.8,2.8c-0.7,2.9-2.6,4.4-5.6,4.4h0c-0.8,0-1.5-0.1-2.1-0.2c0.7-0.8,1-1.9,1.2-2.9
			C15.5,23.7,15.9,21.9,18.9,21.5z M31.4,13.3c-2.8,3.3-6.1,7-8.9,9.8L22,22.7l-1.9-1.9c2.5-2.5,5.7-5.5,8.7-8.1
			c0.4-0.3,0.7-0.6,1-0.9c3.5-3,5.3-4.3,6.3-4.8C35.6,7.9,34.3,9.8,31.4,13.3z"/>
	</g>
</g>
</svg>
