<?xml version="1.0" encoding="utf-8"?>
<!-- Generator: Adobe Illustrator 18.1.1, SVG Export Plug-In . SVG Version: 6.00 Build 0)  -->
<svg version="1.1" id="Layer_1" xmlns="http://www.w3.org/2000/svg" xmlns:xlink="http://www.w3.org/1999/xlink" x="0px" y="0px"
	 viewBox="508 -530 1100 1100" enable-background="new 508 -530 1100 1100" xml:space="preserve">
<linearGradient id="SVGID_1_" gradientUnits="userSpaceOnUse" x1="548.278" y1="19.0005" x2="1567.726" y2="19.0005" gradientTransform="matrix(1 0 0 -1 0 39)">
	<stop  offset="0" style="stop-color:#F39B23"/>
	<stop  offset="1" style="stop-color:#F6AF1B"/>
</linearGradient>
<path fill="url(#SVGID_1_)" d="M1051.4-477.9c2.2-3.8,4.3-7.7,6.8-11.4c40.9,70.9,81.9,141.8,123,212.6
	c77.3-20.9,154.7-41.4,232-62.1c1.7-0.5,3.4-0.9,5.1-1.3c-20.8,79.1-42.4,158-63.2,237.1c70.8,41.1,141.8,81.8,212.6,122.9
	c-70.8,41.1-141.8,81.8-212.6,122.9c20.9,79.1,42.5,158,63.3,237.1c-79.1-21-158.2-42.2-237.2-63.4c-41,70.8-82.1,141.7-123,212.7
	c-41.1-70.8-82.1-141.7-123-212.6c-56,14.8-112,29.9-167.9,44.8c-23.2,6.1-46.4,12.6-69.7,18.4c21.4-79,42.4-158.1,63.6-237.1
	c-71-41-141.9-82-212.9-122.9c69.1-39.9,138.2-79.8,207.3-119.7c1.6-1.4,5-1.9,5.3-4.1c-21.1-78.8-42.2-157.6-63.3-236.5
	c72.8,19.5,145.6,38.9,218.4,58.4c6.4,1.7,12.7,3.6,19.2,4.9C973.9-344,1012.7-410.9,1051.4-477.9z"/>
<g>
	<circle fill="#FFFFFF" cx="1057.7" cy="18.7" r="270"/>
	
		<linearGradient id="SVGID_2_" gradientUnits="userSpaceOnUse" x1="750.1933" y1="-556.7454" x2="1315.1934" y2="-556.7454" gradientTransform="matrix(-1.346898e-010 1 1 1.346898e-010 1614.4385 -1013.9482)">
		<stop  offset="0" style="stop-color:#F5BA21"/>
		<stop  offset="1" style="stop-color:#E7921F"/>
	</linearGradient>
	<path fill="url(#SVGID_2_)" d="M1057.7,301.2c-75.5,0-146.4-29.4-199.8-82.7c-53.4-53.4-82.7-124.3-82.7-199.8
		c0-75.5,29.4-146.4,82.7-199.8c53.4-53.4,124.3-82.7,199.8-82.7s146.4,29.4,199.8,82.7c53.4,53.4,82.7,124.3,82.7,199.8
		c0,75.5-29.4,146.4-82.7,199.8C1204.1,271.9,1133.2,301.2,1057.7,301.2z M1057.7-238.8c-142,0-257.5,115.5-257.5,257.5
		c0,142,115.5,257.5,257.5,257.5s257.5-115.5,257.5-257.5C1315.2-123.2,1199.7-238.8,1057.7-238.8z"/>
</g>
<g enable-background="new    ">
	<path fill="#37B5E5" d="M862.9-12.6h17.2c-8.4,21.4-21.4,47-31.8,64.2h-18.9c3.3-4.4,7.8-11.3,10.8-16.6
		c-4.5-12-15.2-34.9-22.9-47.6h17.9c4.7,8.4,10.4,20.5,14.4,31.2C854.7,8.2,859.8-3.8,862.9-12.6z"/>
</g>
<path fill="#37B5E5" d="M1089.6,19.6c0,17.7-14.4,32-32.1,32c-17.8,0-32.2-14.3-32.2-32c0-17.7,14.4-32,32.2-32
	C1075.2-12.4,1089.6,1.9,1089.6,19.6z"/>
<g enable-background="new    ">
	<path fill="#37B5E5" d="M912.6,51.6V0.4h-21.4v-13h57.7v13h-21.4v51.2H912.6z"/>
</g>
<g enable-background="new    ">
	<path fill="#37B5E5" d="M960.2,51.6v-64.2h35.8c13.2,0,17.6,9.4,17.6,22.5c0,11.6-5.5,21.6-17.5,21.6h-21.1v20H960.2z M990.9,19.4
		c3.9,0,6.4-2.7,6.4-9.4c0-7-2.2-9.8-6.3-9.8h-16v19.2H990.9z"/>
</g>
<path fill="#FFFFFF" d="M1057.1-7.4c0.1-0.2,0.2-0.4,0.4-0.6c2.3,3.9,4.5,7.8,6.8,11.7c4.3-1.1,8.5-2.3,12.8-3.4
	c0.1,0,0.2,0,0.3-0.1c-1.1,4.3-2.3,8.7-3.5,13c3.9,2.3,7.8,4.5,11.7,6.8c-3.9,2.3-7.8,4.5-11.7,6.8c1.1,4.3,2.3,8.7,3.5,13
	c-4.3-1.2-8.7-2.3-13-3.5c-2.3,3.9-4.5,7.8-6.8,11.7c-2.3-3.9-4.5-7.8-6.8-11.7c-3.1,0.8-6.2,1.6-9.2,2.5c-1.3,0.3-2.5,0.7-3.8,1
	c1.2-4.3,2.3-8.7,3.5-13c-3.9-2.3-7.8-4.5-11.7-6.8c3.8-2.2,7.6-4.4,11.4-6.6c0.1-0.1,0.3-0.1,0.3-0.2c-1.2-4.3-2.3-8.7-3.5-13
	c4,1.1,8,2.1,12,3.2c0.4,0.1,0.7,0.2,1.1,0.3C1052.9,0,1055-3.7,1057.1-7.4z"/>
<ellipse fill="#F39D22" cx="1057.5" cy="20" rx="14" ry="13.9"/>
<g enable-background="new    ">
	<path fill="#37B5E5" d="M1143.3,46.1v5.5h-43v-5.1c34.6-27.5,36.8-30.9,36.8-42c0-9.4-4.8-12-16-12c-5.2,0-12.8,1-15.8,2.5
		l-1.6-5.9c5.6-1.4,11.9-2.5,17.6-2.5c15.5,0,22.8,4.8,22.8,17.7c0,12.5-4.6,19.4-35.1,41.8H1143.3z"/>
</g>
<g enable-background="new    ">
	<path fill="#37B5E5" d="M1155.7,19c0-25.7,7.4-32.4,22.5-32.4c15.2,0,22.5,6.7,22.5,32.4c0,25.9-7.2,33.9-22.5,33.9
		C1163,52.9,1155.7,45,1155.7,19z M1162.3,19c0,22.1,4.5,28.2,15.7,28.2c11.6,0,15.9-6.1,15.9-28.2c0-23.3-4.4-27.1-15.9-27.1
		C1166.8-8.1,1162.3-4.3,1162.3,19z"/>
</g>
<g enable-background="new    ">
	<path fill="#37B5E5" d="M1227.5,51.6V-4.9l-14.2,6.8l-2.2-4.9l22.9-11.1v65.7H1227.5z"/>
</g>
<g enable-background="new    ">
	<path fill="#37B5E5" d="M1295.3-10.7l-2.1,5.8c-3.8-1.5-9.3-2.5-14.2-2.5c-14,0-20.7,3.1-21.4,22.6c5-1,12.1-1.5,16.5-1.5
		c17.2,0,23.2,5.7,23.2,19.5c0,15.1-6.9,19.8-22.8,19.8c-17.3,0-23.8-7.5-23.8-33.4c0-25.9,9.6-32.9,28.1-32.9
		C1284.3-13.4,1290.4-12.3,1295.3-10.7z M1290.3,33.9c0-10.9-3.3-14.7-16.2-14.7c-5.8,0-12,0.6-16.5,1.6c0.2,22,5.7,26.6,16.9,26.6
		C1287.5,47.3,1290.3,43.5,1290.3,33.9z"/>
</g>
</svg>
