<svg xmlns="http://www.w3.org/2000/svg"><symbol viewBox="0 0 42 38" id="icon_area_health"><title>area_health</title><path fill="currentColor" d="M29.4 0c-3.1 0-6.1 1.1-8.4 3.2C18.7 1.1 15.7 0 12.6 0 5.6 0 0 5.6 0 12.5c0 4.3 2.4 9.5 6.7 14.6 4 4.7 9.1 8.6 14 10.9.1 0 .2.1.3.1.1 0 .2 0 .3-.1 4.9-2.3 10-6.2 14-10.9C39.6 22 42 16.8 42 12.5 42 5.6 36.4 0 29.4 0zM12.6 1.3c3 0 5.8 1.2 7.9 3.2.3.3.7.3 1 0 2.1-2.1 4.9-3.2 7.9-3.2 6.2 0 11.2 5 11.2 11.1 0 1.5-.3 3.1-.9 4.8h-8.6c-.3 0-.6.2-.7.5l-.8 3.6-2.1-9.3c-.1-.3-.3-.5-.7-.5-.3 0-.6.2-.7.5l-1.3 5.2h-8.2c-.3 0-.6.2-.7.5l-.8 3.6L13 12c-.1-.3-.3-.5-.7-.5-.3 0-.6.2-.7.5l-1.3 5.2h-8c-.6-1.7-.9-3.3-.9-4.8 0-6.1 5-11.1 11.2-11.1zm21.7 24.9c-3.7 4.4-8.7 8.2-13.3 10.4-4.6-2.2-9.5-6-13.3-10.4-2.2-2.6-3.9-5.1-4.9-7.6h8c.3 0 .6-.2.7-.5l.8-3.1 2.3 9.5c.1.3.3.5.7.5.3 0 .6-.2.7-.5l1.3-5.9h8.2c.3 0 .6-.2.7-.5L27 15l2.3 9.5c.1.3.3.5.7.5.3 0 .6-.2.7-.5l1.3-5.9h7.5c-1.4 2.5-3.1 5-5.2 7.6z"/></symbol><symbol viewBox="0 0 36 31" id="icon_area_history"><title>area_history</title><path fill="currentColor" d="M4.5 6.7C1.9 7-.2 9.3 0 12c.2 2.3 2.2 4.2 4.6 4 2-.2 3.6-2 3.4-4.1-.2-1.8-1.8-3.2-3.5-2.9-1.4.2-2.6 1.5-2.2 3 .1.5.4 1 .9 1.3.4.3 1.1.5 1.7.3.4-.1.7-.4.9-.7.2-.4.3-.9 0-1.4-.2-.4-.4-.4-.8-.5-.2 0-.4 0-.6.1-.2.2-.4.5-.4.7 0 .2.1.4.2.5-.1 0-.1 0-.2-.1-.2-.1-.3-.3-.3-.5-.1-.7.4-1.3 1.1-1.4 1-.2 1.9.7 2 1.7.2 1.3-.9 2.5-2.2 2.6-1.6.2-3-1.2-3.2-2.8-.2-1.9 1.3-3.6 3.2-3.7H31.5c1.9.2 3.4 1.8 3.3 3.8-.1 1.6-1.6 2.9-3.2 2.8-1.3-.1-2.4-1.3-2.2-2.6.1-1 1-1.8 2-1.7.7.1 1.3.8 1.1 1.4 0 .2-.2.4-.3.5-.1.1-.1.1-.2.1.1-.1.2-.3.2-.5s-.1-.6-.4-.7c-.2-.2-.5-.2-.6-.1-.3.1-.5.1-.8.5-.3.5-.2 1 0 1.4.2.4.5.6.9.7.6.2 1.2 0 1.7-.3.4-.3.8-.8.9-1.3.3-1.5-.8-2.8-2.2-3.1-1.8-.3-3.3 1.1-3.5 2.8-.3 2.1 1.4 3.9 3.4 4.1 2.4.3 4.4-1.7 4.6-4 .2-2.7-1.9-5-4.5-5.2H4.5zM2 0c-.4 0-.7.3-.7.7V2c0 .2.1.4.2.5l2.7 2.7c.1.1.3.2.5.2h26.7c.2 0 .3-.1.5-.2l2.7-2.7c.1-.1.2-.3.2-.5V.7c-.1-.4-.4-.7-.8-.7H2zm.7 1.3h30.7v.4L31.1 4H4.9L2.7 1.7v-.4zm7.3 9.5c-.4 0-.7.3-.7.7v18.9c0 .4.3.7.7.7.1 0 .3 0 .4-.1l3.8-2.6c.2-.1.3-.3.3-.5l.2-12.3c0-.4 1.3-.5 1.3 0v10.8c0 .4.3.7.7.7.1 0 .3 0 .4-.1l4-2.7c.2-.1.3-.3.3-.6v-8.1c0-.4 1.3-.4 1.3 0v6.7c0 .4.3.7.7.7.1 0 .2 0 .3-.1l2.7-1.3c.2-.1.4-.3.4-.6v-9.4c0-.4-.3-.7-.7-.7L10 10.8zm.7 1.3h14.7v8.3l-1.4.7v-5.6c0-2.2-4-2.2-4 0v7.7L17.3 25v-9.5c0-2.3-4-2.3-4 0l-.2 11.9-2.5 1.7.1-17z"/></symbol><symbol viewBox="0 0 31 31" id="icon_area_information"><title>area_information</title><path fill="currentColor" d="M27.8 0c-.3 0-.5.1-.7.3L14.8 7.9H8.1C3.6 7.9 0 11.3 0 15.5c0 4.2 3.6 7.6 8.1 7.6h6.7l12.5 7.8c.2.1.4.2.6.2 3.1 0 3.2-13.9 3.2-15.5C31 13.9 30.9 0 27.8 0zM14.4 21.8H8.1c-3.8 0-6.8-2.8-6.8-6.3 0-3.4 3-6.3 6.8-6.3h6.3v12.6zM27.8 1.4c.6.7 1.6 4.5 1.8 11.5-.5-.4-1.1-.6-1.8-.6H26c.3-6.6 1.3-10.3 1.8-10.9zM15.7 22.1V8.9l10.2-6.2c-1.2 4.1-1.2 11.7-1.2 12.8 0 1.1 0 8.8 1.2 12.9l-10.2-6.3zM26 15.5v-1.8h1.8c1.1 0 1.8.8 1.8 1.8 0 1.1-.9 1.8-1.8 1.8H26v-1.8zm1.8 14.1c-.6-.6-1.6-4.3-1.8-11h1.8c.7 0 1.3-.2 1.8-.6-.2 7.1-1.2 11-1.8 11.6z"/></symbol><symbol viewBox="0 0 34 39" id="icon_area_labor"><title>area_labor</title><path fill="currentColor" d="M33.2 23.8c-.5 0-.8.4-.8.8V35h-6.8V20.6h7.6c.5 0 .8-.4.8-.8 0-.5-.4-.8-.8-.8h-8.4c-.5 0-.8.4-.8.8v.4l-5.2-5.3c-.8-.8-2-1-2.9-.6 1.7-1.7 2.7-3.9 2.7-6.4 0-3.2-1.7-6.2-4.5-7.7-.3-.1-.6-.1-.8 0-.2.2-.4.4-.4.7v7.4h-6V.8c0-.3-.2-.6-.4-.7-.2-.1-.6-.1-.8 0-2.8 1.6-4.5 4.5-4.5 7.8 0 2.6 1.1 5.1 3.1 6.7v2.2H2.8C1.2 16.8 0 18 0 19.6c0 .8.3 1.5.8 2-.5.5-.8 1.2-.8 2s.3 1.5.8 2c-.5.5-.8 1.2-.8 2s.3 1.5.8 2c-.5.5-.8 1.2-.8 2 0 1.6 1.2 2.8 2.8 2.8h1.6c.5 2.7 2.8 4.6 5.4 4.6h.1c2.6 0 4.8-1.9 5.4-4.4h6.5c.5 0 .8-.4.8-.8 0-.5-.4-.8-.8-.8h-6.4v-6.9c0-.5-.4-.8-.8-.8s-.8.4-.8.8v7.3c0 2.2-1.7 4-3.9 4h-.1c-1.7 0-3.2-1.1-3.7-2.7h1.3c1.5 0 2.8-1.3 2.8-2.8 0-.8-.3-1.5-.8-2 .5-.5.8-1.2.8-2s-.3-1.5-.8-2c.5-.5.8-1.2.8-2s-.3-1.5-.8-2c.5-.5.8-1.2.8-2 0-1.6-1.2-2.8-2.8-2.8H5.9v-2.6c0-.3-.1-.5-.3-.7-1.8-1.4-2.8-3.4-2.8-5.7 0-2.1.9-4.1 2.5-5.4v6.7c0 .5.4.8.8.8h7.5c.5 0 .8-.4.8-.8v-7c1.5 1.3 2.5 3.3 2.5 5.4 0 2.2-1 4.3-2.8 5.7-.2.2-.3.4-.3.7v1.7l-2.2 2.2c-.5.5-.8 1.2-.8 2s.3 1.5.8 2c.5.6 1.3.8 2 .8s1.4-.3 2-.8l1.6-1.7c.3-.3.3-.9 0-1.2-.3-.3-.8-.3-1.2 0L14.4 21c-.4.5-1.2.5-1.6 0-.2-.2-.3-.5-.3-.8 0-.3.1-.6.3-.8L16 16c.4-.5 1.2-.5 1.6 0l6.4 6.5v13.3c0 .5.4.8.8.8h8.4c.5 0 .8-.4.8-.8V24.6c0-.5-.4-.8-.8-.8zm-24.7-.2c0 .7-.5 1.2-1.1 1.2H2.8c-.6 0-1.1-.5-1.1-1.2 0-.6.5-1.2 1.1-1.2h4.6c.6.1 1.1.6 1.1 1.2zm0 4.1c0 .7-.5 1.2-1.1 1.2H2.8c-.6 0-1.1-.5-1.1-1.2 0-.6.5-1.2 1.1-1.2h4.6c.6 0 1.1.5 1.1 1.2zm0 4.1c0 .6-.5 1.2-1.1 1.2H2.8c-.6 0-1.1-.5-1.1-1.2 0-.6.5-1.2 1.1-1.2h4.6c.6 0 1.1.5 1.1 1.2zm0-12.2c0 .7-.5 1.2-1.1 1.2H2.8c-.6 0-1.1-.5-1.1-1.2 0-.6.5-1.2 1.1-1.2h4.6c.6 0 1.1.6 1.1 1.2z"/></symbol><symbol viewBox="0 0 29 42" id="icon_area_patriot"><title>area_patriot</title><path fill="currentColor" d="M27.4 22.9c-.9-1.8-2.2-3.3-3.7-4.6 1.5-2 2.3-4.4 2.3-6.9C26 5.1 20.8 0 14.5 0S3 5.1 3 11.4c0 2.5.8 4.9 2.3 6.9-1.5 1.3-2.8 2.8-3.7 4.6-1.1 2-1.6 4.3-1.6 6.6 0 2.6.7 5.1 2 7.3 1.3 2.1 3.1 3.9 5.2 5.2H21.4c.1 0 .2 0 .3-.1 2.1-1.2 3.9-3 5.2-5.2 1.3-2.2 2-4.7 2-7.3.1-2.2-.5-4.5-1.5-6.5zm-6.1 17.8H7.7C3.8 38.3 1.3 34 1.3 29.5c0-4.1 2-8.1 5.4-10.5.2-.2.3-.4.3-.5 0-.2 0-.4-.2-.5-1.6-1.8-2.4-4.1-2.4-6.6 0-5.5 4.5-10.1 10.1-10.1s10.1 4.5 10.1 10.1c0 2.4-.9 4.7-2.4 6.6-.1.1-.2.3-.2.5s.1.4.3.5c3.4 2.5 5.4 6.4 5.4 10.5 0 4.5-2.5 8.8-6.4 11.2zm-6.8-24c3.7 0 6.7-3 6.7-6.7 0-.3 0-.5-.1-.8v-.1c-.5-3.3-3.3-5.8-6.7-5.8-3.4 0-6.2 2.5-6.7 5.8v.1c0 .3-.1.5-.1.8.2 3.7 3.2 6.7 6.9 6.7zm5-8.7c-1.4-.8-2.7-1.9-3.6-3.2 1.6.5 3 1.7 3.6 3.2zm-6.4-3.1c-1 1.3-2.2 2.4-3.6 3.2.6-1.6 2-2.8 3.6-3.2zm-4 4.8c2.2-1 4-2.5 5.4-4.4 1.3 1.9 3.2 3.5 5.4 4.4v.3c0 3-2.4 5.4-5.4 5.4-3 0-5.4-2.4-5.4-5.4v-.3zM25 25.1c-4.1-.1-7.8-2.3-9.9-5.8-.1-.2-.3-.3-.6-.3-.2 0-.5.1-.6.3-2 3.5-5.9 5.8-10 5.8-.4 0-.7.3-.7.7 0 .4.3.7.7.7 2.3 0 4.6-.7 6.5-1.8 1.6-.9 3-2.2 4-3.7 1 1.5 2.4 2.8 4 3.7 1.9 1.2 4.2 1.8 6.5 1.8.4 0 .7-.3.7-.7.1-.4-.2-.7-.6-.7zm-8.8-14.3h.6c.4 0 .7-.3.7-.7 0-.4-.3-.7-.7-.7h-.6c-.4 0-.7.3-.7.7 0 .4.3.7.7.7zm-3.9 0h.7c.4 0 .7-.3.7-.7 0-.4-.3-.7-.7-.7h-.7c-.4 0-.7.3-.7.7 0 .4.3.7.7.7zm4.8 15.9c-1 0-1.9.4-2.6 1.1-.7-.7-1.6-1.1-2.6-1.1-2 0-3.6 1.6-3.6 3.6 0 3.4 4.4 6.9 5.8 7.9.1.1.3.1.4.1.1 0 .3 0 .4-.1.4-.3 1.8-1.4 3.2-2.8.3-.3.2-.7 0-.9-.3-.3-.7-.2-1 0-1 1-2 1.9-2.6 2.4-1.3-1-4.8-4.1-4.8-6.6 0-1.2 1-2.3 2.3-2.3.8 0 1.6.4 2 1.2.1.2.3.3.6.3.2 0 .5-.1.6-.3.4-.7 1.2-1.2 2-1.2 1.2 0 2.3 1 2.3 2.3 0 .6-.2 1.4-.7 2.2-.2.3-.1.7.2.9.3.2.7.1.9-.2.6-1 .9-2 .9-2.8-.1-2.1-1.7-3.7-3.7-3.7z"/></symbol><symbol viewBox="0 0 33 41" id="icon_area_policy"><title>area_policy</title><path fill="currentColor" d="M31.9 28.5c-.9-1.4-2-2.4-3.4-2.9l-4-1.3h-.4l-.6-1c-.2-.3-.6-.4-.9-.2l-.3.2v-.9c0-.1 0-.2-.1-.3 2-1.8 3.2-4.4 3.2-7.4v-2.2c.9-2.4 1.2-4.8.9-6.8-.3-2.3-1.4-3.9-3.1-4.8-1.5.3-2.9 0-4.2-.3-2.1-.5-4.4-1-6.7 1h-.4c-2.7 0-5 2.2-5.1 4.9v.2c0 3 1.1 6.4 1.3 7v1.2c0 3 1.3 5.6 3.2 7.4 0 .1-.1.2-.1.3v.9l-.3-.2c-.3-.2-.7-.1-.9.2l-.6 1H9l-4 1.3c-1.7.2-2.9 1.2-3.7 2.7C.5 29.8.1 31.4.1 32.9v5.6c0 1.4 1.1 2.6 2.5 2.6h28c1.4 0 2.5-1.1 2.5-2.6v-5.6c0-1.6-.5-3.1-1.2-4.4zM26 30.9c0 .1 0 .2-.1.3l-2.1 1.6c-.1.1-.2.3-.3.5 0 .2.1.4.2.5l1.3 1.3c.1.1.1.3 0 .4l-3 4.2h-2.6l5.4-13.9v-.1l.7.2.5 5zm-10.9 8.8l-.4-1.2 1.2-5.9H17.4l1.2 5.9-.6 1.2h-2.9zm-3.9 0l-3.1-4.2c-.1-.1-.1-.3 0-.4l1.3-1.3c.1-.1.2-.3.2-.5s-.1-.4-.3-.5l-2.1-1.6c-.1-.1-.1-.2-.1-.3l.6-4.9.7-.2v.1l5.4 13.9h-2.6v-.1zm4.7-10.9h1.3c.4 0 .6.3.6.6v1.3c0 .4-.3.6-.6.6h-1.3c-.4 0-.6-.3-.6-.6v-1.3c0-.3.3-.6.6-.6zm3.4 7.6l-.8-4.2.1-.1c.3.4.7.6 1.1.7h.2c.4 0 .7-.1 1-.4l-1.6 4zm-4.8-4.3c.1 0 .1 0 0 0l-.7 4.3-1.5-3.9c.3.2.6.4 1 .4h.2c.4-.2.8-.4 1-.8zm8.2-7.5l.8 1.1-1.5 3.8c-.1 0-.1.1-.2.1L20 31.4c-.1.1-.2.1-.2.1s-.1 0-.2-.1l-.5-.8v-1.1c0-.9-.6-1.6-1.4-1.9l5-3zM7.7 6.5c0-2.1 1.7-3.8 3.8-3.8.5 0 1 .1 1.5.3.3.1.7 0 .8-.3.1-.3 0-.7-.3-.8 1.5-.9 3-.5 4.8-.1 1.3.3 2.9.7 4.5.4 1.6.9 2.1 2.6 2.3 3.8.2 1.4.1 3.1-.4 4.9l-1.2-2.1c-.1-.2-.4-.4-.6-.3-.1 0-7.1 1-12.4-1.2-.3-.1-.7 0-.8.3s0 .7.3.8c4.9 2 10.9 1.6 12.6 1.4l1.6 2.9v.3H18.5c-.4 0-.7.2-1 .5 0 .1-.1.1-.1.2h-1.6c0-.1-.1-.1-.1-.2-.2-.3-.6-.5-1-.5H9.1c.4-1.6 1.4-2.8 1.5-2.8.2-.3.2-.7 0-.9-.3-.2-.7-.2-.9 0 0 .1-.8.8-1.3 2-.4-1.4-.7-3.2-.7-4.8zm14.6 7.6l-.5 1.2c-.2.5-.5.7-1 .7h-1.3c-.3 0-.6-.2-.6-.5l-.3-1.3 3.7-.1zm-7.6 0l-.3 1.3c-.1.4-.4.6-.7.6h-1.3c-.5 0-.8-.2-1-.7l-.5-1.2h3.8zm-5.7.6v-.6h.6v.4l.6 1.4c.4.9 1.2 1.5 2.2 1.5h1.3c.9 0 1.7-.7 1.9-1.6l.2-1h1.5l.2 1c.2.9.9 1.6 1.9 1.6h1.3c1 0 1.8-.5 2.2-1.5l.6-1.4v-.2-.2h.6v.6c0 4.6-3.4 8.3-7.6 8.3S9 19.3 9 14.7zm3.1 8.3c1.3.8 2.8 1.3 4.5 1.3 1.6 0 3.1-.5 4.4-1.3v1.1l-4.4 2.7-4.4-2.7V23zm-1.7 1.6l5 3c-.8.2-1.4 1-1.4 1.9v1.1l-.5.8c-.1.1-.2.1-.2.1s-.1 0-.2-.1l-1.8-1.8s-.1-.1-.2-.1l-1.5-3.8.8-1.1zM1.3 38.4v-5.6c0-3.2 1.9-5.5 3.8-6.1l1.2-.4-.5 4.4c-.1.6.2 1.1.6 1.5L8 33.4l-.8.8c-.6.6-.6 1.5-.1 2.1l2.6 3.4h-7c-.8 0-1.4-.6-1.4-1.3zm30.5 0c0 .7-.6 1.3-1.3 1.3h-7l2.6-3.4c.5-.6.4-1.5-.1-2.1l-.8-.8 1.5-1.2c.4-.3.7-.9.6-1.5l-.5-4.4 1.2.4c1.9.6 3.8 2.9 3.8 6.1v5.6z"/></symbol><symbol viewBox="0 0 32 32" id="icon_at-phpne"><title>at-phpne</title><path fill="currentColor" d="M27.307 4.69C24.287 1.67 20.27.003 15.997.003c-4.272 0-8.288 1.665-11.31 4.687C1.668 7.712 0 11.728 0 16c0 4.27 1.666 8.288 4.688 11.31C7.708 30.333 11.725 32 15.998 32c2.48 0 4.745-.46 6.543-1.322 1.705-.823 2.942-2.002 3.49-3.312.65-1.573.282-3.213-1.01-4.504l-.044-.047c.02-.024.045-.045.064-.063.92-.97.92-2.238-.014-3.174L22.748 17.3c-.446-.462-.985-.712-1.56-.712-.573 0-1.12.244-1.58.705l-1.186 1.185c-.06-.033-.11-.06-.172-.086-.145-.072-.275-.138-.387-.21-1.205-.764-2.298-1.766-3.345-3.05-.46-.578-.777-1.07-1.014-1.56.296-.275.573-.56.843-.835.112-.12.23-.23.35-.35.967-.968.967-2.218 0-3.186L13.57 8.076c-.132-.132-.257-.257-.382-.39-.25-.256-.507-.52-.783-.775-.448-.44-.98-.672-1.547-.672s-1.106.23-1.567.672c0 .006 0 .006-.008.012L7.867 8.338c-.566.565-.895 1.264-.96 2.066-.1 1.25.263 2.41.546 3.167.678 1.83 1.69 3.53 3.2 5.346 1.83 2.186 4.034 3.917 6.556 5.135.968.462 2.265 1.002 3.726 1.1.092.008.185.008.276.008 1.02 0 1.884-.368 2.556-1.1l.024-.025c.02-.026.046-.054.07-.08l.04.04c.845.843 1.074 1.804.666 2.785-.758 1.797-3.7 3.64-8.57 3.64C8.043 30.42 1.58 23.953 1.58 16S8.044 1.583 15.997 1.583 30.414 8.048 30.414 16c0 1.31-.178 2.6-.52 3.844-.118.422.132.856.552.975.423.118.857-.132.975-.554.383-1.383.58-2.818.58-4.266-.006-4.272-1.672-8.288-4.693-11.31z"/></symbol><symbol viewBox="0 0 36 20" id="icon_back"><title>back</title><path fill="currentColor" d="M36 8.9H4.3l7.2-7.2L9.9.1 0 10l9.9 9.9 1.6-1.6-7.2-7.2H36"/></symbol><symbol viewBox="0 0 36 43" id="icon_bell"><title>bell</title><path fill="currentColor" d="M30 28.2V15.3c0-8.6-9.4-12-9.4-12h-5.1s-9.4 3.4-9.4 12v12.9c-.7.7-6 3-6 5.1C0 34.2 0 35 0 35h36v-1.7c0-2.1-5.3-4.4-6-5.1z"/><path fill="currentColor" d="M21.5 3.6C21.5 5.5 20 7 18.1 7s-3.4-1.5-3.4-3.4S16.3.2 18.1.2c1.8 0 3.4 1.5 3.4 3.4zM24 36.8c0 3.3-2.7 6-6 6s-6-2.7-6-6h12z"/></symbol><symbol viewBox="0 0 42 42" id="icon_calendar"><title>calendar</title><path fill="currentColor" d="M38.7 4.8H35v2c0 2.2-1.8 4-4 4h-.9c-2.2 0-4-1.8-4-4v-2H15.9v2c0 2.2-1.8 4-4 4H11c-2.2 0-4-1.8-4-4v-2H3.3C1.5 4.8 0 6.3 0 8.1V38c0 1.8 1.5 3.3 3.3 3.3h35.4c1.8 0 3.3-1.5 3.3-3.3V8.1c0-1.8-1.5-3.3-3.3-3.3zm-.8 32.6c0 .1-.1.3-.3.3H4.2c-.1 0-.3-.1-.3-.3V13.8c0-.1.1-.3.3-.3h33.4c.1 0 .3.1.3.3v23.6z"/><path fill="currentColor" d="M12.7 8.8h-2.5c-.9 0-1.7-.8-1.7-1.7V2.5c0-.9.8-1.7 1.7-1.7h2.5c.9 0 1.7.8 1.7 1.7v4.6c0 .9-.7 1.7-1.7 1.7zM31.8 8.8h-2.5c-.9 0-1.7-.8-1.7-1.7V2.5c0-.9.8-1.7 1.7-1.7h2.5c.9 0 1.7.8 1.7 1.7v4.6c0 .9-.8 1.7-1.7 1.7zM12.6 21.5H8.2c-.1 0-.3-.1-.3-.3V18c0-.1.1-.3.3-.3h4.4c.1 0 .3.1.3.3v3.3c0 .1-.1.2-.3.2zM19.8 21.5h-4.4c-.1 0-.3-.1-.3-.3V18c0-.1.1-.3.3-.3h4.4c.1 0 .3.1.3.3v3.3c0 .1-.2.2-.3.2zM26.9 21.5h-4.4c-.1 0-.3-.1-.3-.3V18c0-.1.1-.3.3-.3h4.4c.1 0 .3.1.3.3v3.3c0 .1-.1.2-.3.2zM12.6 27.5H8.2c-.1 0-.3-.1-.3-.3V24c0-.1.1-.3.3-.3h4.4c.1 0 .3.1.3.3v3.3c0 .1-.1.2-.3.2zM19.8 27.5h-4.4c-.1 0-.3-.1-.3-.3V24c0-.1.1-.3.3-.3h4.4c.1 0 .3.1.3.3v3.3c0 .1-.2.2-.3.2zM26.9 27.5h-4.4c-.1 0-.3-.1-.3-.3V24c0-.1.1-.3.3-.3h4.4c.1 0 .3.1.3.3v3.3c0 .1-.1.2-.3.2zM34.1 27.5h-4.4c-.1 0-.3-.1-.3-.3V24c0-.1.1-.3.3-.3h4.4c.1 0 .3.1.3.3v3.3c0 .1-.2.2-.3.2zM19.8 33.5h-4.4c-.1 0-.3-.1-.3-.3V30c0-.1.1-.3.3-.3h4.4c.1 0 .3.1.3.3v3.3c0 .1-.2.2-.3.2zM26.9 33.5h-4.4c-.1 0-.3-.1-.3-.3V30c0-.1.1-.3.3-.3h4.4c.1 0 .3.1.3.3v3.3c0 .1-.1.2-.3.2zM34.1 33.5h-4.4c-.1 0-.3-.1-.3-.3V30c0-.1.1-.3.3-.3h4.4c.1 0 .3.1.3.3v3.3c0 .1-.2.2-.3.2z"/></symbol><symbol viewBox="0 0 11 20" id="icon_go-to-arrow"><title>go-to-arrow</title><path fill="currentColor" d="M1.4 19.8c-.2.1-.4.2-.5.2s-.4-.1-.5-.2c-.3-.3-.3-.7 0-1L9.1 10 .4 1.2C.1.9.1.5.4.2c.3-.3.7-.3 1 0l9.3 9.3c.3.3.3.7 0 1l-9.3 9.3z"/></symbol><symbol viewBox="0 0 35 44" id="icon_location"><title>location</title><g fill="currentColor"><path d="M17.4 11.1c-3.7 0-6.7 3-6.7 6.7 0 .9.7 1.6 1.6 1.6s1.6-.7 1.6-1.6c0-1.9 1.6-3.5 3.5-3.5.9 0 1.6-.7 1.6-1.6s-.7-1.6-1.6-1.6z"/><path d="M35 17.6C35 7.7 26.8-.3 16.8 0 8.1.3.8 7.1 0 15.8c-.2 1.7-.1 3.4.2 5 0 0 0 .2.1.5.3 1.2.7 2.4 1.2 3.5C3.3 29 7.3 36 16.5 43.5c.6.5 1.4.5 2 0 9.1-7.6 13.2-14.6 15-18.7.5-1.1.9-2.3 1.2-3.5.1-.4.1-.5.1-.5.1-1 .2-2.1.2-3.2zM17.4 28.4c-5.9 0-10.7-4.8-10.7-10.7C6.7 11.8 11.5 7 17.4 7c5.9 0 10.7 4.8 10.7 10.7s-4.8 10.7-10.7 10.7z"/></g></symbol><symbol viewBox="0 0 50 50" id="icon_logo"><title>logo</title><circle fill="#FFF" cx="25" cy="25" r="24.8"/><path fill="#31B5E8" d="M36.5 29.9c.9-1.9 7.3-2.8 7.3-4.7 0-2.1-6.4-3-7.3-4.9-.9-1.9 3.2-7.1 1.7-8.5s-6.6 2.6-8.5 1.7c-1.7-.9-2.6-7.3-4.7-7.3s-3 6.4-4.9 7.3-7.1-3.2-8.5-1.7 2.6 6.6 1.7 8.5C12.4 22.2 6 23.1 6 25c0 2.1 6.4 3 7.3 4.9S10 37 11.5 38.5s6.6-2.6 8.5-1.7c1.9.9 2.8 7.3 4.7 7.3 2.1 0 3-6.4 4.9-7.3s7.1 3.2 8.5 1.7c1.6-1.5-2.2-6.7-1.6-8.6z"/><circle fill="#FFF" cx="25" cy="25" r="10.5"/></symbol><symbol viewBox="0 0 24 24" id="icon_phone"><title>phone</title><g fill="currentColor"><path d="M18.2 15.9c-.8-.8-1.8-.8-2.5 0l-1.8 1.8c-.2.2-.3.2-.5.1l-1.2-.6c-1.7-1.1-3.2-2.5-4.4-4-.6-.8-1.2-1.6-1.6-2.6-.1-.2-.1-.3.1-.5l1.8-1.8c.8-.8.8-1.8 0-2.6L6.7 4.3 5.3 2.9c-.8-.8-1.8-.8-2.5 0-.7.6-1.3 1.2-1.9 1.8-.5.5-.8 1.1-.9 1.9-.1 1.3.2 2.4.7 3.6.9 2.4 2.2 4.5 3.8 6.4 2.2 2.6 4.8 4.7 7.9 6.2 1.4.7 2.8 1.2 4.4 1.3 1.1.1 2-.2 2.7-1 .5-.6 1.1-1.1 1.6-1.6.8-.8.8-1.8 0-2.6-.9-1.1-1.9-2.1-2.9-3zM17.3 11.9l1.8-.3c-.3-1.7-1.1-3.2-2.3-4.4-1.3-1.3-2.9-2.1-4.7-2.3l-.3 1.9c1.4.2 2.6.8 3.6 1.8 1.1.8 1.7 2 1.9 3.3zM20.2 3.9C18 1.8 15.4.4 12.4 0l-.3 1.9c2.6.4 4.9 1.5 6.7 3.4 1.7 1.7 2.9 3.9 3.3 6.4l1.8-.3c-.4-2.9-1.7-5.5-3.7-7.5z"/></g></symbol><symbol viewBox="0 0 43 39" id="icon_poll"><title>poll</title><path fill="currentColor" d="M40.8 34.6H2.2c-1.2 0-2.2 1-2.2 2.2C0 38 1 39 2.2 39h38.6c1.2 0 2.2-1 2.2-2.2 0-1.3-1-2.2-2.2-2.2zM4.5 31.3h6.9c.8 0 1.4-.6 1.4-1.4v-19c0-.8-.6-1.4-1.4-1.4H4.5c-.8 0-1.4.6-1.4 1.4v19c0 .8.6 1.4 1.4 1.4zM18.1 31.3H25c.8 0 1.4-.6 1.4-1.4V1.4C26.4.6 25.8 0 25 0h-6.9c-.8 0-1.4.6-1.4 1.4V30c0 .7.6 1.3 1.4 1.3zM31.7 31.3h6.9c.8 0 1.4-.6 1.4-1.4V14.6c0-.8-.6-1.4-1.4-1.4h-6.9c-.8 0-1.4.6-1.4 1.4V30c0 .7.6 1.3 1.4 1.3z"/></symbol><symbol viewBox="0 0 44 44" id="icon_scheme"><title>scheme</title><g fill="currentColor"><path d="M42.8.6c-.3-.2-.5-.2-.8-.1L28.9 6.6 15.7.5c-.3-.1-.6-.1-.8 0L.8 7c-.3.2-.8.5-.8.9v34.3c0 .3.4.7.7.8.2.1.5.2.7.2.1 0 .4 0 .5-.1l12.9-6.3 14.1 6.3c.3.1.6.1.9 0l12.9-6.8c.3-.2.3-.5.3-.9v-34c0-.3.1-.6-.2-.8zM41 34.8l-11.9 6.3-13.9-6.3c-.1-.1-.2-.1-.3-.1-.2 0-.5 0-.7.1L2 40.7V8.6l13-6 13.3 6.1c.3.1.4.1.7 0L41 3v31.8z"/><path d="M6.1 28.2c-.6-.1-1.1.2-1.2.8 0 .2-.1.3-.1.3-.1.5.3 1.1.8 1.2h.2c.5 0 .9-.3 1-.8v-.2c.2-.7-.2-1.2-.7-1.3zM15.6 18h-.5c-.6 0-1 .4-1.1.9 0 .6.4 1 .9 1.1h.5c.5 0 .9-.4 1-.9.2-.6-.2-1-.8-1.1zM20.4 19.9c-.4-.3-1.1-.3-1.4.2-.3.4-.3 1.1.2 1.4l.3.3c.2.2.4.3.7.3.3 0 .6-.1.7-.3.4-.4.3-1-.1-1.4-.1-.2-.3-.3-.4-.5zM10 19.4c-.1.1-.3.2-.4.3-.4.4-.5 1-.1 1.4.2.2.5.3.8.3.2 0 .5-.1.7-.2l.3-.3c.4-.3.5-1 .2-1.4-.4-.3-1-.4-1.5-.1zM30.3 27.1l-.3.3c-.4.3-.5 1-.2 1.4.2.3.5.4.8.4.2 0 .4-.1.6-.2.1-.1.3-.2.4-.3.4-.4.5-1 .1-1.4-.4-.5-1-.5-1.4-.2zM23.8 24.8c0-.1 0-.2-.1-.3-.2-.5-.8-.8-1.3-.6-.5.2-.8.8-.6 1.3v.1s0 .1.1.3c.2.4.5.7.9.7.1 0 .2 0 .3-.1.5-.2.8-.8.6-1.3.1 0 .1-.1.1-.1zM8 23.4c-.5-.2-1.1 0-1.3.5-.1.1-.1.3-.2.4-.2.5 0 1.1.5 1.3.1.1.3.1.4.1.4 0 .7-.2.9-.6.1-.1.1-.3.2-.4.2-.5 0-1.1-.5-1.3zM26.5 28.2c-.1 0-.2-.1-.3-.1-.5-.3-1.1-.1-1.4.4s-.1 1.1.4 1.4c.2.1.4.2.5.2.1 0 .2.1.4.1.4 0 .8-.2.9-.6.3-.6 0-1.2-.5-1.4zM34.7 23.3c-.5-.3-1.1-.2-1.4.3 0 0 0 .1-.1.2-.3.5-.2 1.1.3 1.4.2.1.4.2.6.2.3 0 .6-.2.8-.4l.2-.2c.2-.6.1-1.2-.4-1.5zM29.5 14.4l3 3-3 3c-.4.4-.4 1 0 1.4.2.2.5.3.7.3s.5-.1.7-.3l3-3 3 3c.2.2.5.3.7.3s.5-.1.7-.3c.4-.4.4-1 0-1.4l-3-3 3-3c.4-.4.4-1 0-1.4-.4-.4-1-.4-1.4 0l-3 3-3-3c-.4-.4-1-.4-1.4 0-.4.4-.4 1 0 1.4z"/></g></symbol><symbol viewBox="0 0 32 32" id="icon_star"><title>star</title><path fill="currentColor" d="M32 12.3c-.1-.3-.4-.6-.7-.6l-10-1.4-4.5-9c-.2-.3-.5-.5-.8-.5-.3 0-.6.2-.8.5l-4.4 9.1-10 1.5c-.4-.1-.7.1-.8.5-.1.3 0 .7.2.9l7.2 7-1.7 9.9c-.1.3.1.7.4.9.2.1.3.2.5.2.1 0 .3 0 .4-.1l8.9-4.7 8.9 4.7c.1.1.3.1.4.1.5 0 .9-.4.9-.9v-.2l-1.7-9.9 7.2-7.1c.4-.3.5-.6.4-.9zm-9 7c-.2.2-.3.5-.3.8l1.5 8.6-7.8-4.1c-.3-.1-.6-.1-.8 0l-7.7 4.1 1.5-8.6c0-.3 0-.6-.3-.8l-6.3-6.1 8.7-1.3c.3 0 .5-.2.7-.5L16 3.6l3.9 7.8c.1.3.4.4.7.5l8.7 1.2-6.3 6.2z"/></symbol><symbol viewBox="0 0 43 41" id="icon_ural-arkticheskiy"><title>ural-arkticheskiy</title><path fill="currentColor" d="M41.4 19.9c-1.9-1.8-7.2-6.7-8.1-7.5-.4-1.3-1-2.5-1.5-3.6C29 3.1 25.3 0 21.5 0S14 3.1 11.2 8.9c-.6 1.1-1.1 2.3-1.5 3.6-.9.8-6.2 5.7-8.1 7.5-2.1 2-2.2 5.3-.2 7.4.1.1.3.2.5.2s.3-.1.5-.2l5.1-4.7c-.2 1.7-.3 3.4-.3 5 0 5.3 1.5 9.9 4.2 13.1.1.2.3.2.5.2h19.3c.2 0 .4-.1.5-.2 2.7-3.1 4.2-7.8 4.2-13.1 0-1.7-.1-3.4-.3-5l5.1 4.7c.1.1.3.2.5.2s.4-.1.5-.2c1.9-2.2 1.7-5.5-.3-7.5zM2 25.8c-1-1.5-.8-3.6.6-4.9 1.3-1.2 4.3-4 6.3-5.8-.5 1.7-.9 3.6-1.2 5.4L2 25.8zm28.8 13.8H29c1.4-3 2.2-7.2 2.2-11.9 0-7.6-1.3-15.3-3.4-20.8-.1-.2-.3-.4-.5-.4s-.5 0-.6.2c-1.2 1.2-2.5 2-3.8 2.4-.3.1-.5.3-.5.6-.1.7-.5 1.4-.9 1.9-.4-.5-.8-1.2-.9-1.9 0-.3-.2-.5-.5-.6-1.3-.3-2.6-1.1-3.8-2.4-.2-.2-.4-.2-.6-.2-.2 0-.4.2-.5.4-2 5-3.3 12.3-3.4 19.4 0 .4.3.7.7.7.4 0 .7-.3.7-.7.1-3.6.4-7.2 1-10.5.5-2.7 1.1-5.3 1.9-7.4 1.1.9 2.1 1.5 3.3 1.9.4 1.5 1.6 2.8 1.7 2.9.1.1.3.2.5.2s.4-.1.5-.2c.1-.1 1.3-1.3 1.7-2.9 1.1-.4 2.2-1 3.3-1.9.8 2.2 1.4 4.7 1.9 7.4.7 3.7 1.1 7.8 1.1 11.9 0 4.8-.8 9-2.4 11.9H15.5c-1.4-2.6-2.2-6.3-2.4-10.6 0-.4-.3-.7-.7-.7-.4 0-.7.3-.7.7.1 4.2.9 7.8 2.2 10.5h-1.8c-2.3-2.9-3.6-7.1-3.6-11.9 0-6.4 1.4-13.1 4-18.2 2.5-5.1 5.8-8.1 9-8.1s6.5 3 9 8.1 4 11.8 4 18.2c0 4.9-1.3 9.2-3.7 12zM41 25.8l-5.7-5.3c-.3-1.9-.7-3.7-1.2-5.4 2 1.8 5 4.6 6.3 5.8 1.4 1.3 1.6 3.4.6 4.9zM18.9 5.1h-.6c-.4 0-.7.3-.7.7 0 .4.3.7.7.7h.6c.4 0 .7-.3.7-.7 0-.4-.3-.7-.7-.7zm5.8 0h-.6c-.4 0-.7.3-.7.7 0 .4.3.7.7.7h.6c.4 0 .7-.3.7-.7 0-.4-.3-.7-.7-.7z"/></symbol><symbol viewBox="0 0 28 35" id="icon_ural-bezopasnyy"><title>ural-bezopasnyy</title><path fill="currentColor" d="M27.4.1c-.4-.2-.8-.1-1.2.1-3.2 2.6-8.4 2.6-11.6 0-.4-.3-1-.3-1.4 0C10 2.8 4.8 2.8 1.6.2 1.4 0 1-.1.6.1c-.4.2-.6.6-.6 1v19.7C0 27.1 5.1 32.4 13.7 35h.6C22.9 32.4 28 27.1 28 20.8V1.1c0-.4-.2-.8-.6-1zM2 3.1c2.3 1.2 5 1.5 7.5 1.1L2 12.5V3.1zm10.7 29.3C5.9 30 2 25.8 2 20.8v-2.2h10.8v13.8zm0-16H7.6l5.1-5.9v5.9zm0-9.2l-8 9.2H2v-.7L12.7 3.8v3.4zm2.2 11.4h3l-3 3.6v-3.6zm0 7l5.9-7h3.4L14.9 29v-3.4zm10.8-4.8c0 5-4 9.3-10.8 11.6v-.2l10.8-12v.6zm0-4.4H14.9V3.1c3.3 1.7 7.5 1.7 10.8 0v13.3z"/></symbol><symbol viewBox="0 0 31 31" id="icon_ural-informatsionnyy"><title>ural-informatsionnyy</title><path fill="currentColor" d="M27.8 0c-.3 0-.5.1-.7.3L14.8 7.9H8.1C3.6 7.9 0 11.3 0 15.5c0 4.2 3.6 7.6 8.1 7.6h6.7l12.5 7.8c.2.1.4.2.6.2 3.1 0 3.2-13.9 3.2-15.5C31 13.9 30.9 0 27.8 0zM14.4 21.8H8.1c-3.8 0-6.8-2.8-6.8-6.3 0-3.4 3-6.3 6.8-6.3h6.3v12.6zM27.8 1.4c.6.7 1.6 4.5 1.8 11.5-.5-.4-1.1-.6-1.8-.6H26c.3-6.6 1.3-10.3 1.8-10.9zM15.7 22.1V8.9l10.2-6.2c-1.2 4.1-1.2 11.7-1.2 12.8 0 1.1 0 8.8 1.2 12.9l-10.2-6.3zM26 15.5v-1.8h1.8c1.1 0 1.8.8 1.8 1.8 0 1.1-.9 1.8-1.8 1.8H26v-1.8zm1.8 14.1c-.6-.6-1.6-4.3-1.8-11h1.8c.7 0 1.3-.2 1.8-.6-.2 7.1-1.2 11-1.8 11.6z"/></symbol><symbol viewBox="0 0 36 31" id="icon_ural-istoricheskiy"><title>ural-istoricheskiy</title><path fill="currentColor" d="M4.5 6.7C1.9 7-.2 9.3 0 12c.2 2.3 2.2 4.2 4.6 4 2-.2 3.6-2 3.4-4.1-.2-1.8-1.8-3.2-3.5-2.9-1.4.2-2.6 1.5-2.2 3 .1.5.4 1 .9 1.3.4.3 1.1.5 1.7.3.4-.1.7-.4.9-.7.2-.4.3-.9 0-1.4-.2-.4-.4-.4-.8-.5-.2 0-.4 0-.6.1-.2.2-.4.5-.4.7 0 .2.1.4.2.5-.1 0-.1 0-.2-.1-.2-.1-.3-.3-.3-.5-.1-.7.4-1.3 1.1-1.4 1-.2 1.9.7 2 1.7.2 1.3-.9 2.5-2.2 2.6-1.6.2-3-1.2-3.2-2.8-.2-1.9 1.3-3.6 3.2-3.7H31.5c1.9.2 3.4 1.8 3.3 3.8-.1 1.6-1.6 2.9-3.2 2.8-1.3-.1-2.4-1.3-2.2-2.6.1-1 1-1.8 2-1.7.7.1 1.3.8 1.1 1.4 0 .2-.2.4-.3.5-.1.1-.1.1-.2.1.1-.1.2-.3.2-.5s-.1-.6-.4-.7c-.2-.2-.5-.2-.6-.1-.3.1-.5.1-.8.5-.3.5-.2 1 0 1.4.2.4.5.6.9.7.6.2 1.2 0 1.7-.3.4-.3.8-.8.9-1.3.3-1.5-.8-2.8-2.2-3.1-1.8-.3-3.3 1.1-3.5 2.8-.3 2.1 1.4 3.9 3.4 4.1 2.4.3 4.4-1.7 4.6-4 .2-2.7-1.9-5-4.5-5.2H4.5zM2 0c-.4 0-.7.3-.7.7V2c0 .2.1.4.2.5l2.7 2.7c.1.1.3.2.5.2h26.7c.2 0 .3-.1.5-.2l2.7-2.7c.1-.1.2-.3.2-.5V.7c-.1-.4-.4-.7-.8-.7H2zm.7 1.3h30.7v.4L31.1 4H4.9L2.7 1.7v-.4zm7.3 9.5c-.4 0-.7.3-.7.7v18.9c0 .4.3.7.7.7.1 0 .3 0 .4-.1l3.8-2.6c.2-.1.3-.3.3-.5l.2-12.3c0-.4 1.3-.5 1.3 0v10.8c0 .4.3.7.7.7.1 0 .3 0 .4-.1l4-2.7c.2-.1.3-.3.3-.6v-8.1c0-.4 1.3-.4 1.3 0v6.7c0 .4.3.7.7.7.1 0 .2 0 .3-.1l2.7-1.3c.2-.1.4-.3.4-.6v-9.4c0-.4-.3-.7-.7-.7L10 10.8zm.7 1.3h14.7v8.3l-1.4.7v-5.6c0-2.2-4-2.2-4 0v7.7L17.3 25v-9.5c0-2.3-4-2.3-4 0l-.2 11.9-2.5 1.7.1-17z"/></symbol><symbol viewBox="0 0 30 37" id="icon_ural-mezhdunarodnyy"><title>ural-mezhdunarodnyy</title><path fill="currentColor" d="M25.3 35.8H25c-.3-1.3-1.5-2.4-2.9-2.4H17v-1.2c1.9-.1 3.9-.5 5.8-1.3.1-.1.3-.2.3-.3.1-.1.1-.3 0-.5l-.3-.7c-.1-.3-.5-.4-.8-.3-.3.1-.4.5-.3.8l.1.2c-1.6.6-3.2.9-4.8 1v-.2c0-.3-.3-.6-.6-.6s-.6.3-.6.6v.1c-5.8-.2-11.3-3.8-13.6-9.6C-1 13.7 2.5 4.8 10 1.3l.1.2c.2.3.6.5.9.4.3-.1.4-.5.3-.8L11 .4c-.1-.3-.5-.4-.8-.3C1.8 3.6-2.3 13.4 1.2 22 3.8 28.1 9.7 32 16 32.2v1.2h-5.1c-1.4 0-2.6 1-2.9 2.4h-.2c-.3 0-.6.3-.6.6s.3.6.6.6h17.5c.3 0 .6-.3.6-.6s-.3-.6-.6-.6zm-16 0c.2-.7.9-1.2 1.7-1.2h11.3c.8 0 1.4.5 1.7 1.2H9.3zM29 10.3c-2.1-5.1-7-8.4-12.4-8.4-1.8 0-3.5.3-5.1 1-3.3 1.4-5.9 4-7.3 7.3-1.4 3.4-1.4 7 0 10.4 2.1 5.1 7 8.4 12.4 8.4 1.8 0 3.5-.3 5.1-1 3.1-1.3 5.5-3.7 6.9-6.5l.1-.1c1.6-3.4 1.8-7.4.3-11.1zm-1.3-.1l-4.9 2c-1-2.2-2.2-4.2-3.5-5.8.7-.8 1.2-1.6 1.7-2.5 2.9 1.2 5.3 3.4 6.7 6.3zm-11.5 6.1l2 4.9c-1.3.6-2.6 1.5-3.6 2.5-1.2-1.5-2.4-3.3-3.3-5.4l4.9-2zm-5.3.9c-.8-2.1-1.3-4.2-1.5-6.1 1.5 0 2.9-.3 4.3-.8l2 4.9-4.8 2zm4-7.4c1.3-.6 2.6-1.5 3.6-2.5 1.2 1.5 2.4 3.3 3.3 5.4l-4.9 2-2-4.9zm1.7-6.7c1.1 0 2.3.2 3.3.5-.4.7-.9 1.4-1.4 2l-.8-.8c-.8-.7-1.7-1.3-2.5-1.6.4-.1.9-.1 1.4-.1zm.3 2.6c.3.2.5.5.8.7-1 .9-2.1 1.7-3.3 2.3l-2-4.8c1.3-.3 2.9.4 4.5 1.8zM9.5 8.8c.2-2.2.8-3.7 1.9-4.5l2 4.8c-1.3.5-2.6.7-3.9.7-.1-.3-.1-.6 0-1zm-.6-3c-.3.8-.5 1.8-.6 2.9v1.1c-.8 0-1.7-.1-2.4-.4.7-1.4 1.8-2.6 3-3.6zm-3.7 5c0-.1.1-.2.1-.2 1 .3 2 .5 3 .5.2 2.1.7 4.4 1.6 6.6l-4.9 2c-1-2.9-1-6.1.2-8.9zm.3 10l4.9-2c1 2.2 2.2 4.2 3.5 5.8-.7.8-1.2 1.6-1.7 2.5-3-1.2-5.4-3.4-6.7-6.3zm11.1 7.1c-1.1 0-2.3-.2-3.3-.5.4-.7.9-1.4 1.4-2l.8.8c.8.7 1.7 1.3 2.5 1.6-.5.1-1 .1-1.4.1zm-.4-2.6c-.3-.2-.5-.5-.8-.7 1-.9 2.1-1.7 3.3-2.3l2 4.8c-1.3.3-2.9-.4-4.5-1.8zm5.6 1.4l-2-4.8c1.3-.5 2.6-.7 3.9-.7 0 2.5-.7 4.6-1.9 5.5zm2.4-1.5c.1-.3.2-.6.3-1 .2-.9.3-1.9.3-3.1.8.1 1.6.2 2.4.4-.7 1.4-1.7 2.7-3 3.7zm3.6-4.7c-1-.3-2-.5-3-.5-.1-.7-.2-1.5-.3-2.2-.1-.3-.4-.5-.7-.5-.3.1-.5.4-.5.7.1.7.2 1.3.3 2-1.5 0-2.9.3-4.3.8l-2-4.9 4.9-2c.2.6.5 1.3.7 1.9.1.3.4.5.7.4.3-.1.5-.4.4-.7-.2-.7-.4-1.4-.7-2l4.9-2c1 2.9.8 6.2-.4 9z"/></symbol><symbol viewBox="0 0 37 42" id="icon_ural-novatorskiy"><title>ural-novatorskiy</title><path fill="currentColor" d="M18.5 16c-2.7 0-5 2.3-5 5 0 2.8 2.2 5 5 5s5-2.3 5-5c0-2.8-2.2-5-5-5zm0 8.7c-2 0-3.6-1.6-3.6-3.7s1.6-3.7 3.6-3.7 3.6 1.6 3.6 3.7-1.6 3.7-3.6 3.7zm0-5.8c-.4 0-.7.3-.7.7 0 .4.3.7.7.7.4 0 .8.3.8.8 0 .4.3.7.7.7.4 0 .7-.3.7-.7-.1-1.3-1-2.2-2.2-2.2zm14 2.1c.6-.6 1.1-1.2 1.6-1.9 2.7-3.5 3.6-6.5 2.4-8.6-1.2-2.1-4.2-2.9-8.5-2.2-.8.1-1.6.3-2.4.5-.6-1.8-1.2-3.3-1.9-4.6.3-.4.5-.8.5-1.4 0-1.2-.9-2.1-2.1-2.1-.3 0-.7.1-1 .2-.8-.6-1.7-1-2.6-1-2.4 0-4.6 2.3-6.2 6.4-.3.7-.6 1.5-.8 2.4-.8-.2-1.6-.4-2.4-.5-4.3-.7-7.3.1-8.5 2.2C-.6 12.5.2 15.6 3 19c.5.6 1 1.3 1.6 1.9-.7.8-1.4 1.5-1.9 2.3-.2 0-.4-.1-.6-.1-1.2 0-2.1 1-2.1 2.1 0 .6.2 1.1.6 1.5-.7 1.8-.7 3.4 0 4.6 1 1.8 3 2.7 5.8 2.7.8 0 1.8-.1 2.7-.2.8-.1 1.6-.3 2.4-.5.2.8.5 1.6.8 2.4 1.6 4.1 3.8 6.4 6.2 6.4s4.6-2.3 6.2-6.4c.3-.7.6-1.5.8-2.4 1.1.3 2.1.5 3.1.6.2.9 1.1 1.6 2 1.6 1 0 1.8-.7 2.1-1.7 1.8-.3 3-1.1 3.7-2.3 1.2-2.1.4-5.2-2.4-8.6-.4-.7-.9-1.3-1.5-1.9zm-7.1-5.9c-.8-.6-1.7-1.1-2.6-1.6L20.1 12c1.5-.7 3-1.2 4.4-1.6.4 1.5.7 3.1.9 4.7zm-3.3-13c.4 0 .8.3.8.8 0 .4-.3.8-.8.8s-.8-.3-.8-.8c.1-.5.4-.8.8-.8zm-8.5 4.8c1.4-3.5 3.2-5.5 4.9-5.5.6 0 1.1.2 1.7.6-.1.2-.2.5-.2.9C20 4 21 5 22.1 5c.2 0 .3 0 .5-.1.6 1.2 1.2 2.6 1.6 4.2-1.8.5-3.7 1.3-5.7 2.2-1.9-.9-3.8-1.6-5.7-2.2.3-.8.5-1.5.8-2.2zm-1.1 3.5c1.4.4 2.9 1 4.4 1.6-.9.5-1.8.9-2.7 1.5-.9.5-1.8 1.1-2.6 1.6.3-1.6.6-3.2.9-4.7zM2.1 24.6c.4 0 .8.3.8.8s-.3.8-.8.8c-.4 0-.8-.3-.8-.8s.4-.8.8-.8zM9 32.4c-3.7.6-6.3 0-7.2-1.6-.6-1-.3-2.3 0-3.4h.3c1.2 0 2.1-1 2.1-2.1 0-.5-.2-.9-.4-1.3.5-.7 1.1-1.4 1.8-2.1 1.4 1.3 3 2.7 4.7 3.9.2 2.1.5 4.2 1 6.1-.8.2-1.6.4-2.3.5zm1.1-8.3c-1.3-1-2.5-2-3.6-3.1 1.1-1 2.3-2.1 3.6-3.1-.1 1-.1 2.1-.1 3.1s0 2.1.1 3.1zm.1-8c-1.7 1.3-3.3 2.6-4.7 3.9-.5-.5-1-1.1-1.5-1.7-2.3-2.9-3.1-5.5-2.2-7.1C2.7 9.6 5.3 9 9 9.6c.7.1 1.5.3 2.3.5-.5 1.8-.9 3.9-1.1 6zm1.5 10.8c.8.6 1.7 1.1 2.6 1.6L17 30c-1.5.7-3 1.2-4.4 1.6-.4-1.5-.7-3.1-.9-4.7zm11.8 8.2c-1.4 3.5-3.2 5.5-4.9 5.5-1.8 0-3.6-2-4.9-5.5-.3-.7-.5-1.4-.7-2.2 1.8-.5 3.7-1.3 5.7-2.2 1.9.9 3.8 1.6 5.7 2.2-.4.8-.6 1.5-.9 2.2zm1.1-3.5c-1.4-.4-2.9-1-4.4-1.6.9-.5 1.8-.9 2.7-1.5.9-.5 1.8-1.1 2.6-1.6-.3 1.6-.6 3.2-.9 4.7zm1-6.5c-1.1.8-2.2 1.5-3.4 2.2-1.2.7-2.4 1.3-3.6 1.9-1.2-.6-2.4-1.2-3.6-1.9-1.2-.7-2.3-1.4-3.4-2.2-.1-1.3-.2-2.7-.2-4.1 0-1.4.1-2.8.2-4.1 1.1-.8 2.2-1.5 3.4-2.2 1.2-.7 2.4-1.3 3.6-1.9 1.2.6 2.4 1.2 3.6 1.9 1.2.7 2.3 1.4 3.4 2.2.1 1.3.2 2.7.2 4.1-.1 1.4-.1 2.8-.2 4.1zm2.5-15.5c3.7-.6 6.3 0 7.2 1.6.9 1.6.1 4.2-2.2 7.1l-1.5 1.8c-1.4-1.3-3-2.7-4.7-3.9-.2-2.2-.5-4.2-1-6.1.7-.2 1.5-.4 2.2-.5zM27 17.9c1.3 1 2.5 2 3.6 3.1-1.1 1-2.3 2.1-3.6 3.1.1-1 .1-2 .1-3.1 0-1 0-2.1-.1-3.1zm3.7 16.2c-.4 0-.8-.3-.8-.8 0-.4.3-.8.8-.8.4 0 .8.3.8.8s-.4.8-.8.8zm4.6-3.3c-.5.8-1.4 1.4-2.7 1.6-.3-.7-1.1-1.2-1.9-1.2-.9 0-1.6.5-1.9 1.3-.9-.1-1.9-.3-2.9-.5.5-1.9.8-3.9 1-6.1 1.7-1.3 3.3-2.6 4.7-3.9.6.6 1.1 1.2 1.5 1.8 2.3 2.9 3.1 5.5 2.2 7z"/></symbol><symbol viewBox="0 0 29 42" id="icon_ural-patriotichnyy"><title>ural-patriotichnyy</title><path fill="currentColor" d="M27.4 22.9c-.9-1.8-2.2-3.3-3.7-4.6 1.5-2 2.3-4.4 2.3-6.9C26 5.1 20.8 0 14.5 0S3 5.1 3 11.4c0 2.5.8 4.9 2.3 6.9-1.5 1.3-2.8 2.8-3.7 4.6-1.1 2-1.6 4.3-1.6 6.6 0 2.6.7 5.1 2 7.3 1.3 2.1 3.1 3.9 5.2 5.2H21.4c.1 0 .2 0 .3-.1 2.1-1.2 3.9-3 5.2-5.2 1.3-2.2 2-4.7 2-7.3.1-2.2-.5-4.5-1.5-6.5zm-6.1 17.8H7.7C3.8 38.3 1.3 34 1.3 29.5c0-4.1 2-8.1 5.4-10.5.2-.2.3-.4.3-.5 0-.2 0-.4-.2-.5-1.6-1.8-2.4-4.1-2.4-6.6 0-5.5 4.5-10.1 10.1-10.1s10.1 4.5 10.1 10.1c0 2.4-.9 4.7-2.4 6.6-.1.1-.2.3-.2.5s.1.4.3.5c3.4 2.5 5.4 6.4 5.4 10.5 0 4.5-2.5 8.8-6.4 11.2zm-6.8-24c3.7 0 6.7-3 6.7-6.7 0-.3 0-.5-.1-.8v-.1c-.5-3.3-3.3-5.8-6.7-5.8-3.4 0-6.2 2.5-6.7 5.8v.1c0 .3-.1.5-.1.8.2 3.7 3.2 6.7 6.9 6.7zm5-8.7c-1.4-.8-2.7-1.9-3.6-3.2 1.6.5 3 1.7 3.6 3.2zm-6.4-3.1c-1 1.3-2.2 2.4-3.6 3.2.6-1.6 2-2.8 3.6-3.2zm-4 4.8c2.2-1 4-2.5 5.4-4.4 1.3 1.9 3.2 3.5 5.4 4.4v.3c0 3-2.4 5.4-5.4 5.4-3 0-5.4-2.4-5.4-5.4v-.3zM25 25.1c-4.1-.1-7.8-2.3-9.9-5.8-.1-.2-.3-.3-.6-.3-.2 0-.5.1-.6.3-2 3.5-5.9 5.8-10 5.8-.4 0-.7.3-.7.7 0 .4.3.7.7.7 2.3 0 4.6-.7 6.5-1.8 1.6-.9 3-2.2 4-3.7 1 1.5 2.4 2.8 4 3.7 1.9 1.2 4.2 1.8 6.5 1.8.4 0 .7-.3.7-.7.1-.4-.2-.7-.6-.7zm-8.8-14.3h.6c.4 0 .7-.3.7-.7 0-.4-.3-.7-.7-.7h-.6c-.4 0-.7.3-.7.7 0 .4.3.7.7.7zm-3.9 0h.7c.4 0 .7-.3.7-.7 0-.4-.3-.7-.7-.7h-.7c-.4 0-.7.3-.7.7 0 .4.3.7.7.7zm4.8 15.9c-1 0-1.9.4-2.6 1.1-.7-.7-1.6-1.1-2.6-1.1-2 0-3.6 1.6-3.6 3.6 0 3.4 4.4 6.9 5.8 7.9.1.1.3.1.4.1.1 0 .3 0 .4-.1.4-.3 1.8-1.4 3.2-2.8.3-.3.2-.7 0-.9-.3-.3-.7-.2-1 0-1 1-2 1.9-2.6 2.4-1.3-1-4.8-4.1-4.8-6.6 0-1.2 1-2.3 2.3-2.3.8 0 1.6.4 2 1.2.1.2.3.3.6.3.2 0 .5-.1.6-.3.4-.7 1.2-1.2 2-1.2 1.2 0 2.3 1 2.3 2.3 0 .6-.2 1.4-.7 2.2-.2.3-.1.7.2.9.3.2.7.1.9-.2.6-1 .9-2 .9-2.8-.1-2.1-1.7-3.7-3.7-3.7z"/></symbol><symbol viewBox="0 0 33 41" id="icon_ural-politicheskiy"><title>ural-politicheskiy</title><path fill="currentColor" d="M31.9 28.5c-.9-1.4-2-2.4-3.4-2.9l-4-1.3h-.4l-.6-1c-.2-.3-.6-.4-.9-.2l-.3.2v-.9c0-.1 0-.2-.1-.3 2-1.8 3.2-4.4 3.2-7.4v-2.2c.9-2.4 1.2-4.8.9-6.8-.3-2.3-1.4-3.9-3.1-4.8-1.5.3-2.9 0-4.2-.3-2.1-.5-4.4-1-6.7 1h-.4c-2.7 0-5 2.2-5.1 4.9v.2c0 3 1.1 6.4 1.3 7v1.2c0 3 1.3 5.6 3.2 7.4 0 .1-.1.2-.1.3v.9l-.3-.2c-.3-.2-.7-.1-.9.2l-.6 1H9l-4 1.3c-1.7.2-2.9 1.2-3.7 2.7C.5 29.8.1 31.4.1 32.9v5.6c0 1.4 1.1 2.6 2.5 2.6h28c1.4 0 2.5-1.1 2.5-2.6v-5.6c0-1.6-.5-3.1-1.2-4.4zM26 30.9c0 .1 0 .2-.1.3l-2.1 1.6c-.1.1-.2.3-.3.5 0 .2.1.4.2.5l1.3 1.3c.1.1.1.3 0 .4l-3 4.2h-2.6l5.4-13.9v-.1l.7.2.5 5zm-10.9 8.8l-.4-1.2 1.2-5.9H17.4l1.2 5.9-.6 1.2h-2.9zm-3.9 0l-3.1-4.2c-.1-.1-.1-.3 0-.4l1.3-1.3c.1-.1.2-.3.2-.5s-.1-.4-.3-.5l-2.1-1.6c-.1-.1-.1-.2-.1-.3l.6-4.9.7-.2v.1l5.4 13.9h-2.6v-.1zm4.7-10.9h1.3c.4 0 .6.3.6.6v1.3c0 .4-.3.6-.6.6h-1.3c-.4 0-.6-.3-.6-.6v-1.3c0-.3.3-.6.6-.6zm3.4 7.6l-.8-4.2.1-.1c.3.4.7.6 1.1.7h.2c.4 0 .7-.1 1-.4l-1.6 4zm-4.8-4.3c.1 0 .1 0 0 0l-.7 4.3-1.5-3.9c.3.2.6.4 1 .4h.2c.4-.2.8-.4 1-.8zm8.2-7.5l.8 1.1-1.5 3.8c-.1 0-.1.1-.2.1L20 31.4c-.1.1-.2.1-.2.1s-.1 0-.2-.1l-.5-.8v-1.1c0-.9-.6-1.6-1.4-1.9l5-3zM7.7 6.5c0-2.1 1.7-3.8 3.8-3.8.5 0 1 .1 1.5.3.3.1.7 0 .8-.3.1-.3 0-.7-.3-.8 1.5-.9 3-.5 4.8-.1 1.3.3 2.9.7 4.5.4 1.6.9 2.1 2.6 2.3 3.8.2 1.4.1 3.1-.4 4.9l-1.2-2.1c-.1-.2-.4-.4-.6-.3-.1 0-7.1 1-12.4-1.2-.3-.1-.7 0-.8.3s0 .7.3.8c4.9 2 10.9 1.6 12.6 1.4l1.6 2.9v.3H18.5c-.4 0-.7.2-1 .5 0 .1-.1.1-.1.2h-1.6c0-.1-.1-.1-.1-.2-.2-.3-.6-.5-1-.5H9.1c.4-1.6 1.4-2.8 1.5-2.8.2-.3.2-.7 0-.9-.3-.2-.7-.2-.9 0 0 .1-.8.8-1.3 2-.4-1.4-.7-3.2-.7-4.8zm14.6 7.6l-.5 1.2c-.2.5-.5.7-1 .7h-1.3c-.3 0-.6-.2-.6-.5l-.3-1.3 3.7-.1zm-7.6 0l-.3 1.3c-.1.4-.4.6-.7.6h-1.3c-.5 0-.8-.2-1-.7l-.5-1.2h3.8zm-5.7.6v-.6h.6v.4l.6 1.4c.4.9 1.2 1.5 2.2 1.5h1.3c.9 0 1.7-.7 1.9-1.6l.2-1h1.5l.2 1c.2.9.9 1.6 1.9 1.6h1.3c1 0 1.8-.5 2.2-1.5l.6-1.4v-.2-.2h.6v.6c0 4.6-3.4 8.3-7.6 8.3S9 19.3 9 14.7zm3.1 8.3c1.3.8 2.8 1.3 4.5 1.3 1.6 0 3.1-.5 4.4-1.3v1.1l-4.4 2.7-4.4-2.7V23zm-1.7 1.6l5 3c-.8.2-1.4 1-1.4 1.9v1.1l-.5.8c-.1.1-.2.1-.2.1s-.1 0-.2-.1l-1.8-1.8s-.1-.1-.2-.1l-1.5-3.8.8-1.1zM1.3 38.4v-5.6c0-3.2 1.9-5.5 3.8-6.1l1.2-.4-.5 4.4c-.1.6.2 1.1.6 1.5L8 33.4l-.8.8c-.6.6-.6 1.5-.1 2.1l2.6 3.4h-7c-.8 0-1.4-.6-1.4-1.3zm30.5 0c0 .7-.6 1.3-1.3 1.3h-7l2.6-3.4c.5-.6.4-1.5-.1-2.1l-.8-.8 1.5-1.2c.4-.3.7-.9.6-1.5l-.5-4.4 1.2.4c1.9.6 3.8 2.9 3.8 6.1v5.6z"/></symbol><symbol viewBox="0 0 36 31" id="icon_ural-predpriimchivyy"><title>ural-predpriimchivyy</title><path fill="currentColor" d="M35.3 8L28 .7c-.5-.4-1.1-.7-1.8-.7s-1.3.3-1.7.7l-1.7 1.7c-.3.3-.5.6-.6.9l-8.1-1.4C10.5 1.2 7 3.5 6.2 7.1l-.3 1.8c-.4 2 .9 4 2.9 4.4 2 .4 4-.9 4.4-2.9l.2-1.1 3.6.3 9.4 9.4 1.7 1.7c.3.3.3.9 0 1.2-.3.3-.9.3-1.3 0l-4.6-4.5c-.3-.3-.8-.3-1.2 0-.3.3-.3.8 0 1.1l4.6 4.5c.2.2.3.4.3.6 0 .2-.1.5-.3.6-.3.3-.9.3-1.3 0L20 19.8c-.3-.3-.8-.3-1.2 0-.3.3-.3.8 0 1.1l4.6 4.5c.3.3.3.9 0 1.2-.2.3-.4.4-.6.4-.2 0-.5-.1-.6-.3l-4.6-4.5c-.3-.3-.8-.3-1.2 0-.3.3-.3.8 0 1.1l4.6 4.5c.3.3.3.9 0 1.2-.3.3-.9.3-1.3 0L3.5 13l-2.1-2.1c-.3-.3-.8-.3-1.2 0-.3.3-.3.8 0 1.1l2.1 2.1 2.3 2.3-1.3 1.3c-.4.4-.7 1-.7 1.6s.2 1.1.7 1.6l.4.4c.4.4.8.6 1.4.6.1.5.3 1 .6 1.3l.4.4c.4.4.9.6 1.4.6 0 .5.3 1 .6 1.3l.4.4c.4.4.8.6 1.4.6.1.5.3 1 .6 1.3l.4.4c.4.4 1 .6 1.6.6.6 0 1.1-.2 1.6-.6l1.3-1.3 3.1 3.1c.5.5 1.1.7 1.8.7s1.3-.3 1.8-.7c.5-.4.7-1 .7-1.7.6 0 1.2-.3 1.7-.7.5-.5.7-1.1.7-1.7.6 0 1.2-.3 1.7-.7s.7-1.1.7-1.7c.6 0 1.2-.3 1.7-.7 1-1 1-2.6 0-3.5l-1.1-1.1 4.1-4.1 2.9-2.9c1-.7 1-2.3.1-3.2zM5.8 20.2c-.2.2-.6.2-.8 0l-.4-.4c-.2-.2-.2-.6 0-.8l1.2-1.2L7 19l-1.2 1.2zm2.4 2.3c-.2.2-.6.2-.8 0l-.4-.4c-.2-.2-.2-.6 0-.8l1.2-1.2 1.3 1.2-1.3 1.2zm2.5 2.4c-.2.2-.6.2-.8 0l-.4-.4c-.1-.1-.2-.3-.2-.4 0-.2.1-.3.2-.4l1.2-1.2 1.3 1.2-1.3 1.2zm2.4 2.4c-.2.2-.6.2-.8 0l-.4-.4c-.2-.2-.2-.6 0-.8l1.2-1.2 1.3 1.2-1.3 1.2zm14-10l-9.1-9c-.1-.2-.3-.3-.5-.3l-4.6-.4h-.1c-.4 0-.7.3-.8.7l-.4 1.8c-.2 1.1-1.4 1.9-2.5 1.7-.6-.1-1-.4-1.4-.9-.3-.5-.4-1-.3-1.6l.4-1.8c.6-2.7 3.2-4.5 6-3.9L21.7 5l1 1 7.9 7.9-3.5 3.4zm7-7l-2.3 2.3-7.9-7.9c-.2-.2-.2-.4-.2-.6 0-.2.1-.4.2-.6l1.7-1.7c.2-.2.4-.2.6-.2.2 0 .4.1.6.2l7.3 7.3c.2.2.2.4.2.6.1.2 0 .4-.2.6zm-2-1.1c-.5 0-.8.4-.8.8s.4.8.8.8c.5 0 .8-.4.8-.8s-.3-.8-.8-.8z"/></symbol><symbol viewBox="0 0 34 39" id="icon_ural-trudovoy"><title>ural-trudovoy</title><path fill="currentColor" d="M33.2 23.8c-.5 0-.8.4-.8.8V35h-6.8V20.6h7.6c.5 0 .8-.4.8-.8 0-.5-.4-.8-.8-.8h-8.4c-.5 0-.8.4-.8.8v.4l-5.2-5.3c-.8-.8-2-1-2.9-.6 1.7-1.7 2.7-3.9 2.7-6.4 0-3.2-1.7-6.2-4.5-7.7-.3-.1-.6-.1-.8 0-.2.2-.4.4-.4.7v7.4h-6V.8c0-.3-.2-.6-.4-.7-.2-.1-.6-.1-.8 0-2.8 1.6-4.5 4.5-4.5 7.8 0 2.6 1.1 5.1 3.1 6.7v2.2H2.8C1.2 16.8 0 18 0 19.6c0 .8.3 1.5.8 2-.5.5-.8 1.2-.8 2s.3 1.5.8 2c-.5.5-.8 1.2-.8 2s.3 1.5.8 2c-.5.5-.8 1.2-.8 2 0 1.6 1.2 2.8 2.8 2.8h1.6c.5 2.7 2.8 4.6 5.4 4.6h.1c2.6 0 4.8-1.9 5.4-4.4h6.5c.5 0 .8-.4.8-.8 0-.5-.4-.8-.8-.8h-6.4v-6.9c0-.5-.4-.8-.8-.8s-.8.4-.8.8v7.3c0 2.2-1.7 4-3.9 4h-.1c-1.7 0-3.2-1.1-3.7-2.7h1.3c1.5 0 2.8-1.3 2.8-2.8 0-.8-.3-1.5-.8-2 .5-.5.8-1.2.8-2s-.3-1.5-.8-2c.5-.5.8-1.2.8-2s-.3-1.5-.8-2c.5-.5.8-1.2.8-2 0-1.6-1.2-2.8-2.8-2.8H5.9v-2.6c0-.3-.1-.5-.3-.7-1.8-1.4-2.8-3.4-2.8-5.7 0-2.1.9-4.1 2.5-5.4v6.7c0 .5.4.8.8.8h7.5c.5 0 .8-.4.8-.8v-7c1.5 1.3 2.5 3.3 2.5 5.4 0 2.2-1 4.3-2.8 5.7-.2.2-.3.4-.3.7v1.7l-2.2 2.2c-.5.5-.8 1.2-.8 2s.3 1.5.8 2c.5.6 1.3.8 2 .8s1.4-.3 2-.8l1.6-1.7c.3-.3.3-.9 0-1.2-.3-.3-.8-.3-1.2 0L14.4 21c-.4.5-1.2.5-1.6 0-.2-.2-.3-.5-.3-.8 0-.3.1-.6.3-.8L16 16c.4-.5 1.2-.5 1.6 0l6.4 6.5v13.3c0 .5.4.8.8.8h8.4c.5 0 .8-.4.8-.8V24.6c0-.5-.4-.8-.8-.8zm-24.7-.2c0 .7-.5 1.2-1.1 1.2H2.8c-.6 0-1.1-.5-1.1-1.2 0-.6.5-1.2 1.1-1.2h4.6c.6.1 1.1.6 1.1 1.2zm0 4.1c0 .7-.5 1.2-1.1 1.2H2.8c-.6 0-1.1-.5-1.1-1.2 0-.6.5-1.2 1.1-1.2h4.6c.6 0 1.1.5 1.1 1.2zm0 4.1c0 .6-.5 1.2-1.1 1.2H2.8c-.6 0-1.1-.5-1.1-1.2 0-.6.5-1.2 1.1-1.2h4.6c.6 0 1.1.5 1.1 1.2zm0-12.2c0 .7-.5 1.2-1.1 1.2H2.8c-.6 0-1.1-.5-1.1-1.2 0-.6.5-1.2 1.1-1.2h4.6c.6 0 1.1.6 1.1 1.2z"/></symbol><symbol viewBox="0 0 38 34" id="icon_ural-tvorcheskiy"><title>ural-tvorcheskiy</title><path fill="currentColor" d="M11.3 24.8c-.1-.8-.5-1.5-1.1-2-.5-.4-1.2-.7-1.9-.7-.9 0-1.8.4-2.4 1.1-.5.6-.7 1.4-.7 2.2.1.8.5 1.5 1.1 2 .5.4 1.2.7 1.9.7.9 0 1.8-.4 2.4-1.1.5-.5.8-1.3.7-2.2zm-1.8 1.4c-.3.4-.8.6-1.3.6-.4 0-.7-.1-1-.4-.3-.3-.6-.7-.6-1.1 0-.4.1-.9.4-1.2.3-.4.8-.6 1.3-.6.4 0 .7.1 1 .4.3.3.6.7.6 1.1 0 .4-.1.9-.4 1.2zm5.3-15.5c.2.1.5.1.7.1 1.4 0 2.7-1 3-2.4.2-.8 0-1.6-.4-2.3-.4-.7-1.1-1.1-1.9-1.3-.2-.1-.5-.1-.7-.1-1.4 0-2.7 1-3 2.4-.2.8 0 1.6.4 2.3.5.6 1.1 1.1 1.9 1.3zm-.9-3.3c.2-.8.8-1.3 1.6-1.3h.4c.4.1.8.4 1 .7.2.4.3.8.2 1.2-.2.7-.9 1.3-1.6 1.3h-.4c-.4-.1-.8-.4-1-.7-.2-.4-.3-.8-.2-1.2zm-4.6 5.1c.6-.5 1-1.2 1.1-2 .1-.8-.1-1.6-.7-2.2C9.2 7.4 8.3 7 7.3 7c-.6 0-1.3.3-1.9.7-.6.5-1.1 1.2-1.1 2-.1.8.1 1.6.7 2.2.6.7 1.5 1.1 2.4 1.1.6.1 1.3-.1 1.9-.5zM5.7 9.9c0-.4.3-.8.6-1.1.3-.2.7-.4 1-.4.5 0 1 .2 1.3.6.3.4.5.8.4 1.3 0 .4-.3.8-.6 1.1-.3.2-.7.4-1 .4-.5 0-1-.2-1.3-.6-.3-.4-.5-.9-.4-1.3zm32-4.4c-.1-.1-.3-.3-.7-.3-.4 0-1.5 0-7.9 5.5-.1.1-.3.2-.4.3-1.2-3-3.2-5.7-5.8-7.6C20 1.2 16.4 0 12.6 0c-2.5 0-5.6.9-8 2.3C1.6 4 0 6.4 0 8.8c0 3 1.7 4.3 3.1 5.3 1.1.8 2 1.5 2 2.9s-.9 2.1-2 2.9c-1.4 1-3.1 2.3-3.1 5.3 0 2.5 1.6 4.8 4.6 6.5 2.4 1.4 5.5 2.3 8 2.3 4.6 0 8.9-1.8 12.2-5 3.2-3.2 5-7.4 5-11.8 1.1-1.2 2.1-2.5 3.1-3.6 1.6-2 2.9-3.6 3.8-4.9 1.2-1.6 1.6-2.6 1-3.2zM23.8 28c-3 2.9-7 4.6-11.2 4.6-4.5 0-11.2-3.1-11.2-7.5 0-2.3 1.2-3.2 2.5-4.1 1.2-.9 2.6-1.9 2.6-4s-1.4-3.1-2.6-4c-1.3-1-2.5-1.9-2.5-4.2 0-2.7 2.5-4.5 3.9-5.3 2.2-1.3 5.1-2.1 7.3-2.1 3.4 0 6.7 1.1 9.5 3.1 2.5 1.9 4.5 4.5 5.5 7.5-.8.7-1.7 1.5-2.5 2.2l.3-.6c.3-.8.2-1.6-.1-2.3-.5-1-1.6-1.7-2.8-1.7-.5 0-.9.1-1.3.3-.7.4-1.3 1-1.6 1.7-.3.8-.2 1.6.1 2.3.5 1 1.6 1.7 2.8 1.7.5 0 .9-.1 1.3-.3h.1c-1.8 1.7-3.6 3.3-5 4.8-4.1.5-4.6 3.2-5 5.2-.3 1.7-.6 2.5-1.9 2.6-.3 0-.6.3-.6.6-.1.3.1.6.4.8.1 0 2.1.9 4.4.9 1.6 0 3-.4 4.2-1.2 1.4-1 2.3-2.5 2.8-4.5 1.6-1.6 3.4-3.6 5.2-5.6-.5 3.4-2 6.6-4.6 9.1zm.3-14.9c-.1.4-.4.8-.9.9-.2.1-.5.2-.7.2-.6 0-1.2-.4-1.5-.9-.2-.4-.2-.8-.1-1.3.1-.4.4-.8.9-.9.2-.1.4-.1.7-.1.6 0 1.2.4 1.5.9.2.4.2.8.1 1.2zm-5.2 8.4l2.8 2.8c-.7 2.9-2.6 4.4-5.6 4.4-.8 0-1.5-.1-2.1-.2.7-.8 1-1.9 1.2-2.9.3-1.9.7-3.7 3.7-4.1zm12.5-8.2c-2.8 3.3-6.1 7-8.9 9.8l-.5-.4-1.9-1.9c2.5-2.5 5.7-5.5 8.7-8.1.4-.3.7-.6 1-.9 3.5-3 5.3-4.3 6.3-4.8-.5.9-1.8 2.8-4.7 6.3z"/></symbol><symbol viewBox="0 0 42 38" id="icon_ural-zdorovyy"><title>ural-zdorovyy</title><path fill="currentColor" d="M29.4 0c-3.1 0-6.1 1.1-8.4 3.2C18.7 1.1 15.7 0 12.6 0 5.6 0 0 5.6 0 12.5c0 4.3 2.4 9.5 6.7 14.6 4 4.7 9.1 8.6 14 10.9.1 0 .2.1.3.1.1 0 .2 0 .3-.1 4.9-2.3 10-6.2 14-10.9C39.6 22 42 16.8 42 12.5 42 5.6 36.4 0 29.4 0zM12.6 1.3c3 0 5.8 1.2 7.9 3.2.3.3.7.3 1 0 2.1-2.1 4.9-3.2 7.9-3.2 6.2 0 11.2 5 11.2 11.1 0 1.5-.3 3.1-.9 4.8h-8.6c-.3 0-.6.2-.7.5l-.8 3.6-2.1-9.3c-.1-.3-.3-.5-.7-.5-.3 0-.6.2-.7.5l-1.3 5.2h-8.2c-.3 0-.6.2-.7.5l-.8 3.6L13 12c-.1-.3-.3-.5-.7-.5-.3 0-.6.2-.7.5l-1.3 5.2h-8c-.6-1.7-.9-3.3-.9-4.8 0-6.1 5-11.1 11.2-11.1zm21.7 24.9c-3.7 4.4-8.7 8.2-13.3 10.4-4.6-2.2-9.5-6-13.3-10.4-2.2-2.6-3.9-5.1-4.9-7.6h8c.3 0 .6-.2.7-.5l.8-3.1 2.3 9.5c.1.3.3.5.7.5.3 0 .6-.2.7-.5l1.3-5.9h8.2c.3 0 .6-.2.7-.5L27 15l2.3 9.5c.1.3.3.5.7.5.3 0 .6-.2.7-.5l1.3-5.9h7.5c-1.4 2.5-3.1 5-5.2 7.6z"/></symbol></svg>