<svg xmlns="http://www.w3.org/2000/svg" viewBox="0 0 36 31"><path fill="currentColor" d="M4.5 6.7C1.9 7-.2 9.3 0 12c.2 2.3 2.2 4.2 4.6 4 2-.2 3.6-2 3.4-4.1-.2-1.8-1.8-3.2-3.5-2.9-1.4.2-2.6 1.5-2.2 3 .1.5.4 1 .9 1.3.4.3 1.1.5 1.7.3.4-.1.7-.4.9-.7.2-.4.3-.9 0-1.4-.2-.4-.4-.4-.8-.5-.2 0-.4 0-.6.1-.2.2-.4.5-.4.7 0 .2.1.4.2.5-.1 0-.1 0-.2-.1-.2-.1-.3-.3-.3-.5-.1-.7.4-1.3 1.1-1.4 1-.2 1.9.7 2 1.7.2 1.3-.9 2.5-2.2 2.6-1.6.2-3-1.2-3.2-2.8-.2-1.9 1.3-3.6 3.2-3.7H31.5c1.9.2 3.4 1.8 3.3 3.8-.1 1.6-1.6 2.9-3.2 2.8-1.3-.1-2.4-1.3-2.2-2.6.1-1 1-1.8 2-1.7.7.1 1.3.8 1.1 1.4 0 .2-.2.4-.3.5-.1.1-.1.1-.2.1.1-.1.2-.3.2-.5s-.1-.6-.4-.7c-.2-.2-.5-.2-.6-.1-.3.1-.5.1-.8.5-.3.5-.2 1 0 1.4.2.4.5.6.9.7.6.2 1.2 0 1.7-.3.4-.3.8-.8.9-1.3.3-1.5-.8-2.8-2.2-3.1-1.8-.3-3.3 1.1-3.5 2.8-.3 2.1 1.4 3.9 3.4 4.1 2.4.3 4.4-1.7 4.6-4 .2-2.7-1.9-5-4.5-5.2H4.5zM2 0c-.4 0-.7.3-.7.7V2c0 .2.1.4.2.5l2.7 2.7c.1.1.3.2.5.2h26.7c.2 0 .3-.1.5-.2l2.7-2.7c.1-.1.2-.3.2-.5V.7c-.1-.4-.4-.7-.8-.7H2zm.7 1.3h30.7v.4L31.1 4H4.9L2.7 1.7v-.4zm7.3 9.5c-.4 0-.7.3-.7.7v18.9c0 .4.3.7.7.7.1 0 .3 0 .4-.1l3.8-2.6c.2-.1.3-.3.3-.5l.2-12.3c0-.4 1.3-.5 1.3 0v10.8c0 .4.3.7.7.7.1 0 .3 0 .4-.1l4-2.7c.2-.1.3-.3.3-.6v-8.1c0-.4 1.3-.4 1.3 0v6.7c0 .4.3.7.7.7.1 0 .2 0 .3-.1l2.7-1.3c.2-.1.4-.3.4-.6v-9.4c0-.4-.3-.7-.7-.7L10 10.8zm.7 1.3h14.7v8.3l-1.4.7v-5.6c0-2.2-4-2.2-4 0v7.7L17.3 25v-9.5c0-2.3-4-2.3-4 0l-.2 11.9-2.5 1.7.1-17z"/></svg>