<svg xmlns="http://www.w3.org/2000/svg" viewBox="0 0 34 39"><path fill="currentColor" d="M33.2 23.8c-.5 0-.8.4-.8.8V35h-6.8V20.6h7.6c.5 0 .8-.4.8-.8 0-.5-.4-.8-.8-.8h-8.4c-.5 0-.8.4-.8.8v.4l-5.2-5.3c-.8-.8-2-1-2.9-.6 1.7-1.7 2.7-3.9 2.7-6.4 0-3.2-1.7-6.2-4.5-7.7-.3-.1-.6-.1-.8 0-.2.2-.4.4-.4.7v7.4h-6V.8c0-.3-.2-.6-.4-.7-.2-.1-.6-.1-.8 0-2.8 1.6-4.5 4.5-4.5 7.8 0 2.6 1.1 5.1 3.1 6.7v2.2H2.8C1.2 16.8 0 18 0 19.6c0 .8.3 1.5.8 2-.5.5-.8 1.2-.8 2s.3 1.5.8 2c-.5.5-.8 1.2-.8 2s.3 1.5.8 2c-.5.5-.8 1.2-.8 2 0 1.6 1.2 2.8 2.8 2.8h1.6c.5 2.7 2.8 4.6 5.4 4.6h.1c2.6 0 4.8-1.9 5.4-4.4h6.5c.5 0 .8-.4.8-.8 0-.5-.4-.8-.8-.8h-6.4v-6.9c0-.5-.4-.8-.8-.8s-.8.4-.8.8v7.3c0 2.2-1.7 4-3.9 4h-.1c-1.7 0-3.2-1.1-3.7-2.7h1.3c1.5 0 2.8-1.3 2.8-2.8 0-.8-.3-1.5-.8-2 .5-.5.8-1.2.8-2s-.3-1.5-.8-2c.5-.5.8-1.2.8-2s-.3-1.5-.8-2c.5-.5.8-1.2.8-2 0-1.6-1.2-2.8-2.8-2.8H5.9v-2.6c0-.3-.1-.5-.3-.7-1.8-1.4-2.8-3.4-2.8-5.7 0-2.1.9-4.1 2.5-5.4v6.7c0 .5.4.8.8.8h7.5c.5 0 .8-.4.8-.8v-7c1.5 1.3 2.5 3.3 2.5 5.4 0 2.2-1 4.3-2.8 5.7-.2.2-.3.4-.3.7v1.7l-2.2 2.2c-.5.5-.8 1.2-.8 2s.3 1.5.8 2c.5.6 1.3.8 2 .8s1.4-.3 2-.8l1.6-1.7c.3-.3.3-.9 0-1.2-.3-.3-.8-.3-1.2 0L14.4 21c-.4.5-1.2.5-1.6 0-.2-.2-.3-.5-.3-.8 0-.3.1-.6.3-.8L16 16c.4-.5 1.2-.5 1.6 0l6.4 6.5v13.3c0 .5.4.8.8.8h8.4c.5 0 .8-.4.8-.8V24.6c0-.5-.4-.8-.8-.8zm-24.7-.2c0 .7-.5 1.2-1.1 1.2H2.8c-.6 0-1.1-.5-1.1-1.2 0-.6.5-1.2 1.1-1.2h4.6c.6.1 1.1.6 1.1 1.2zm0 4.1c0 .7-.5 1.2-1.1 1.2H2.8c-.6 0-1.1-.5-1.1-1.2 0-.6.5-1.2 1.1-1.2h4.6c.6 0 1.1.5 1.1 1.2zm0 4.1c0 .6-.5 1.2-1.1 1.2H2.8c-.6 0-1.1-.5-1.1-1.2 0-.6.5-1.2 1.1-1.2h4.6c.6 0 1.1.5 1.1 1.2zm0-12.2c0 .7-.5 1.2-1.1 1.2H2.8c-.6 0-1.1-.5-1.1-1.2 0-.6.5-1.2 1.1-1.2h4.6c.6 0 1.1.6 1.1 1.2z"/></svg>