<svg xmlns="http://www.w3.org/2000/svg" viewBox="0 0 31 31"><path fill="currentColor" d="M27.8 0c-.3 0-.5.1-.7.3L14.8 7.9H8.1C3.6 7.9 0 11.3 0 15.5c0 4.2 3.6 7.6 8.1 7.6h6.7l12.5 7.8c.2.1.4.2.6.2 3.1 0 3.2-13.9 3.2-15.5C31 13.9 30.9 0 27.8 0zM14.4 21.8H8.1c-3.8 0-6.8-2.8-6.8-6.3 0-3.4 3-6.3 6.8-6.3h6.3v12.6zM27.8 1.4c.6.7 1.6 4.5 1.8 11.5-.5-.4-1.1-.6-1.8-.6H26c.3-6.6 1.3-10.3 1.8-10.9zM15.7 22.1V8.9l10.2-6.2c-1.2 4.1-1.2 11.7-1.2 12.8 0 1.1 0 8.8 1.2 12.9l-10.2-6.3zM26 15.5v-1.8h1.8c1.1 0 1.8.8 1.8 1.8 0 1.1-.9 1.8-1.8 1.8H26v-1.8zm1.8 14.1c-.6-.6-1.6-4.3-1.8-11h1.8c.7 0 1.3-.2 1.8-.6-.2 7.1-1.2 11-1.8 11.6z"/></svg>