<svg xmlns="http://www.w3.org/2000/svg" width="32" height="32" viewBox="0 0 32 32"><path fill="currentColor" d="M27.307 4.69C24.287 1.67 20.27.003 15.997.003c-4.272 0-8.288 1.665-11.31 4.687C1.668 7.712 0 11.728 0 16c0 4.27 1.666 8.288 4.688 11.31C7.708 30.333 11.725 32 15.998 32c2.48 0 4.745-.46 6.543-1.322 1.705-.823 2.942-2.002 3.49-3.312.65-1.573.282-3.213-1.01-4.504l-.044-.047c.02-.024.045-.045.064-.063.92-.97.92-2.238-.014-3.174L22.748 17.3c-.446-.462-.985-.712-1.56-.712-.573 0-1.12.244-1.58.705l-1.186 1.185c-.06-.033-.11-.06-.172-.086-.145-.072-.275-.138-.387-.21-1.205-.764-2.298-1.766-3.345-3.05-.46-.578-.777-1.07-1.014-1.56.296-.275.573-.56.843-.835.112-.12.23-.23.35-.35.967-.968.967-2.218 0-3.186L13.57 8.076c-.132-.132-.257-.257-.382-.39-.25-.256-.507-.52-.783-.775-.448-.44-.98-.672-1.547-.672s-1.106.23-1.567.672c0 .006 0 .006-.008.012L7.867 8.338c-.566.565-.895 1.264-.96 2.066-.1 1.25.263 2.41.546 3.167.678 1.83 1.69 3.53 3.2 5.346 1.83 2.186 4.034 3.917 6.556 5.135.968.462 2.265 1.002 3.726 1.1.092.008.185.008.276.008 1.02 0 1.884-.368 2.556-1.1l.024-.025c.02-.026.046-.054.07-.08l.04.04c.845.843 1.074 1.804.666 2.785-.758 1.797-3.7 3.64-8.57 3.64C8.043 30.42 1.58 23.953 1.58 16S8.044 1.583 15.997 1.583 30.414 8.048 30.414 16c0 1.31-.178 2.6-.52 3.844-.118.422.132.856.552.975.423.118.857-.132.975-.554.383-1.383.58-2.818.58-4.266-.006-4.272-1.672-8.288-4.693-11.31z"/></svg>