<svg xmlns="http://www.w3.org/2000/svg" viewBox="0 0 42 42"><path fill="currentColor" d="M38.7 4.8H35v2c0 2.2-1.8 4-4 4h-.9c-2.2 0-4-1.8-4-4v-2H15.9v2c0 2.2-1.8 4-4 4H11c-2.2 0-4-1.8-4-4v-2H3.3C1.5 4.8 0 6.3 0 8.1V38c0 1.8 1.5 3.3 3.3 3.3h35.4c1.8 0 3.3-1.5 3.3-3.3V8.1c0-1.8-1.5-3.3-3.3-3.3zm-.8 32.6c0 .1-.1.3-.3.3H4.2c-.1 0-.3-.1-.3-.3V13.8c0-.1.1-.3.3-.3h33.4c.1 0 .3.1.3.3v23.6z"/><path fill="currentColor" d="M12.7 8.8h-2.5c-.9 0-1.7-.8-1.7-1.7V2.5c0-.9.8-1.7 1.7-1.7h2.5c.9 0 1.7.8 1.7 1.7v4.6c0 .9-.7 1.7-1.7 1.7zM31.8 8.8h-2.5c-.9 0-1.7-.8-1.7-1.7V2.5c0-.9.8-1.7 1.7-1.7h2.5c.9 0 1.7.8 1.7 1.7v4.6c0 .9-.8 1.7-1.7 1.7zM12.6 21.5H8.2c-.1 0-.3-.1-.3-.3V18c0-.1.1-.3.3-.3h4.4c.1 0 .3.1.3.3v3.3c0 .1-.1.2-.3.2zM19.8 21.5h-4.4c-.1 0-.3-.1-.3-.3V18c0-.1.1-.3.3-.3h4.4c.1 0 .3.1.3.3v3.3c0 .1-.2.2-.3.2zM26.9 21.5h-4.4c-.1 0-.3-.1-.3-.3V18c0-.1.1-.3.3-.3h4.4c.1 0 .3.1.3.3v3.3c0 .1-.1.2-.3.2zM12.6 27.5H8.2c-.1 0-.3-.1-.3-.3V24c0-.1.1-.3.3-.3h4.4c.1 0 .3.1.3.3v3.3c0 .1-.1.2-.3.2zM19.8 27.5h-4.4c-.1 0-.3-.1-.3-.3V24c0-.1.1-.3.3-.3h4.4c.1 0 .3.1.3.3v3.3c0 .1-.2.2-.3.2zM26.9 27.5h-4.4c-.1 0-.3-.1-.3-.3V24c0-.1.1-.3.3-.3h4.4c.1 0 .3.1.3.3v3.3c0 .1-.1.2-.3.2zM34.1 27.5h-4.4c-.1 0-.3-.1-.3-.3V24c0-.1.1-.3.3-.3h4.4c.1 0 .3.1.3.3v3.3c0 .1-.2.2-.3.2zM19.8 33.5h-4.4c-.1 0-.3-.1-.3-.3V30c0-.1.1-.3.3-.3h4.4c.1 0 .3.1.3.3v3.3c0 .1-.2.2-.3.2zM26.9 33.5h-4.4c-.1 0-.3-.1-.3-.3V30c0-.1.1-.3.3-.3h4.4c.1 0 .3.1.3.3v3.3c0 .1-.1.2-.3.2zM34.1 33.5h-4.4c-.1 0-.3-.1-.3-.3V30c0-.1.1-.3.3-.3h4.4c.1 0 .3.1.3.3v3.3c0 .1-.2.2-.3.2z"/></svg>