<svg xmlns="http://www.w3.org/2000/svg" viewBox="0 0 35 44"><g fill="currentColor"><path d="M17.4 11.1c-3.7 0-6.7 3-6.7 6.7 0 .9.7 1.6 1.6 1.6s1.6-.7 1.6-1.6c0-1.9 1.6-3.5 3.5-3.5.9 0 1.6-.7 1.6-1.6s-.7-1.6-1.6-1.6z"/><path d="M35 17.6C35 7.7 26.8-.3 16.8 0 8.1.3.8 7.1 0 15.8c-.2 1.7-.1 3.4.2 5 0 0 0 .2.1.5.3 1.2.7 2.4 1.2 3.5C3.3 29 7.3 36 16.5 43.5c.6.5 1.4.5 2 0 9.1-7.6 13.2-14.6 15-18.7.5-1.1.9-2.3 1.2-3.5.1-.4.1-.5.1-.5.1-1 .2-2.1.2-3.2zM17.4 28.4c-5.9 0-10.7-4.8-10.7-10.7C6.7 11.8 11.5 7 17.4 7c5.9 0 10.7 4.8 10.7 10.7s-4.8 10.7-10.7 10.7z"/></g></svg>