<svg xmlns="http://www.w3.org/2000/svg" viewBox="0 0 24 24"><g fill="currentColor"><path d="M18.2 15.9c-.8-.8-1.8-.8-2.5 0l-1.8 1.8c-.2.2-.3.2-.5.1l-1.2-.6c-1.7-1.1-3.2-2.5-4.4-4-.6-.8-1.2-1.6-1.6-2.6-.1-.2-.1-.3.1-.5l1.8-1.8c.8-.8.8-1.8 0-2.6L6.7 4.3 5.3 2.9c-.8-.8-1.8-.8-2.5 0-.7.6-1.3 1.2-1.9 1.8-.5.5-.8 1.1-.9 1.9-.1 1.3.2 2.4.7 3.6.9 2.4 2.2 4.5 3.8 6.4 2.2 2.6 4.8 4.7 7.9 6.2 1.4.7 2.8 1.2 4.4 1.3 1.1.1 2-.2 2.7-1 .5-.6 1.1-1.1 1.6-1.6.8-.8.8-1.8 0-2.6-.9-1.1-1.9-2.1-2.9-3zM17.3 11.9l1.8-.3c-.3-1.7-1.1-3.2-2.3-4.4-1.3-1.3-2.9-2.1-4.7-2.3l-.3 1.9c1.4.2 2.6.8 3.6 1.8 1.1.8 1.7 2 1.9 3.3zM20.2 3.9C18 1.8 15.4.4 12.4 0l-.3 1.9c2.6.4 4.9 1.5 6.7 3.4 1.7 1.7 2.9 3.9 3.3 6.4l1.8-.3c-.4-2.9-1.7-5.5-3.7-7.5z"/></g></svg>