<svg xmlns="http://www.w3.org/2000/svg" viewBox="0 0 43 39"><path fill="currentColor" d="M40.8 34.6H2.2c-1.2 0-2.2 1-2.2 2.2C0 38 1 39 2.2 39h38.6c1.2 0 2.2-1 2.2-2.2 0-1.3-1-2.2-2.2-2.2zM4.5 31.3h6.9c.8 0 1.4-.6 1.4-1.4v-19c0-.8-.6-1.4-1.4-1.4H4.5c-.8 0-1.4.6-1.4 1.4v19c0 .8.6 1.4 1.4 1.4zM18.1 31.3H25c.8 0 1.4-.6 1.4-1.4V1.4C26.4.6 25.8 0 25 0h-6.9c-.8 0-1.4.6-1.4 1.4V30c0 .7.6 1.3 1.4 1.3zM31.7 31.3h6.9c.8 0 1.4-.6 1.4-1.4V14.6c0-.8-.6-1.4-1.4-1.4h-6.9c-.8 0-1.4.6-1.4 1.4V30c0 .7.6 1.3 1.4 1.3z"/></svg>