<svg xmlns="http://www.w3.org/2000/svg" viewBox="0 0 44 44"><g fill="currentColor"><path d="M42.8.6c-.3-.2-.5-.2-.8-.1L28.9 6.6 15.7.5c-.3-.1-.6-.1-.8 0L.8 7c-.3.2-.8.5-.8.9v34.3c0 .3.4.7.7.8.2.1.5.2.7.2.1 0 .4 0 .5-.1l12.9-6.3 14.1 6.3c.3.1.6.1.9 0l12.9-6.8c.3-.2.3-.5.3-.9v-34c0-.3.1-.6-.2-.8zM41 34.8l-11.9 6.3-13.9-6.3c-.1-.1-.2-.1-.3-.1-.2 0-.5 0-.7.1L2 40.7V8.6l13-6 13.3 6.1c.3.1.4.1.7 0L41 3v31.8z"/><path d="M6.1 28.2c-.6-.1-1.1.2-1.2.8 0 .2-.1.3-.1.3-.1.5.3 1.1.8 1.2h.2c.5 0 .9-.3 1-.8v-.2c.2-.7-.2-1.2-.7-1.3zM15.6 18h-.5c-.6 0-1 .4-1.1.9 0 .6.4 1 .9 1.1h.5c.5 0 .9-.4 1-.9.2-.6-.2-1-.8-1.1zM20.4 19.9c-.4-.3-1.1-.3-1.4.2-.3.4-.3 1.1.2 1.4l.3.3c.2.2.4.3.7.3.3 0 .6-.1.7-.3.4-.4.3-1-.1-1.4-.1-.2-.3-.3-.4-.5zM10 19.4c-.1.1-.3.2-.4.3-.4.4-.5 1-.1 1.4.2.2.5.3.8.3.2 0 .5-.1.7-.2l.3-.3c.4-.3.5-1 .2-1.4-.4-.3-1-.4-1.5-.1zM30.3 27.1l-.3.3c-.4.3-.5 1-.2 1.4.2.3.5.4.8.4.2 0 .4-.1.6-.2.1-.1.3-.2.4-.3.4-.4.5-1 .1-1.4-.4-.5-1-.5-1.4-.2zM23.8 24.8c0-.1 0-.2-.1-.3-.2-.5-.8-.8-1.3-.6-.5.2-.8.8-.6 1.3v.1s0 .1.1.3c.2.4.5.7.9.7.1 0 .2 0 .3-.1.5-.2.8-.8.6-1.3.1 0 .1-.1.1-.1zM8 23.4c-.5-.2-1.1 0-1.3.5-.1.1-.1.3-.2.4-.2.5 0 1.1.5 1.3.1.1.3.1.4.1.4 0 .7-.2.9-.6.1-.1.1-.3.2-.4.2-.5 0-1.1-.5-1.3zM26.5 28.2c-.1 0-.2-.1-.3-.1-.5-.3-1.1-.1-1.4.4s-.1 1.1.4 1.4c.2.1.4.2.5.2.1 0 .2.1.4.1.4 0 .8-.2.9-.6.3-.6 0-1.2-.5-1.4zM34.7 23.3c-.5-.3-1.1-.2-1.4.3 0 0 0 .1-.1.2-.3.5-.2 1.1.3 1.4.2.1.4.2.6.2.3 0 .6-.2.8-.4l.2-.2c.2-.6.1-1.2-.4-1.5zM29.5 14.4l3 3-3 3c-.4.4-.4 1 0 1.4.2.2.5.3.7.3s.5-.1.7-.3l3-3 3 3c.2.2.5.3.7.3s.5-.1.7-.3c.4-.4.4-1 0-1.4l-3-3 3-3c.4-.4.4-1 0-1.4-.4-.4-1-.4-1.4 0l-3 3-3-3c-.4-.4-1-.4-1.4 0-.4.4-.4 1 0 1.4z"/></g></svg>