<svg xmlns="http://www.w3.org/2000/svg" viewBox="0 0 30 32"><path fill="currentColor" d="M24.3 20.5c-1.8 0-3.5.9-4.5 2.2l-8.7-4.9c.2-.6.3-1.2.3-1.9s-.1-1.3-.3-1.9l8.7-4.9c1 1.4 2.7 2.2 4.5 2.2 3.1 0 5.7-2.6 5.7-5.7S27.4-.1 24.3-.1s-5.7 2.6-5.7 5.7c0 .7.1 1.3.3 1.9l-8.7 4.9c-1-1.4-2.7-2.2-4.5-2.2C2.6 10.3 0 12.9 0 16c0 3.1 2.6 5.7 5.7 5.7 1.8 0 3.5-.9 4.5-2.2l8.7 4.9c-.2.6-.3 1.2-.3 1.9 0 3.1 2.6 5.7 5.7 5.7s5.7-2.6 5.7-5.7-2.6-5.8-5.7-5.8zm0-18.6c2.2 0 3.9 1.8 3.9 3.9s-1.8 3.9-3.9 3.9c-2.2 0-3.9-1.8-3.9-3.9 0-2.2 1.8-3.9 3.9-3.9zm-18.6 18c-2.2 0-3.9-1.8-3.9-3.9 0-2.2 1.8-3.9 3.9-3.9s3.9 1.8 3.9 3.9c0 2.1-1.8 3.9-3.9 3.9zm18.6 10.2c-2.2 0-3.9-1.8-3.9-3.9s1.8-3.9 3.9-3.9c2.2 0 3.9 1.8 3.9 3.9s-1.7 3.9-3.9 3.9z"/></svg>