<svg xmlns="http://www.w3.org/2000/svg" viewBox="0 0 32 32"><path fill="currentColor" d="M32 12.3c-.1-.3-.4-.6-.7-.6l-10-1.4-4.5-9c-.2-.3-.5-.5-.8-.5-.3 0-.6.2-.8.5l-4.4 9.1-10 1.5c-.4-.1-.7.1-.8.5-.1.3 0 .7.2.9l7.2 7-1.7 9.9c-.1.3.1.7.4.9.2.1.3.2.5.2.1 0 .3 0 .4-.1l8.9-4.7 8.9 4.7c.1.1.3.1.4.1.5 0 .9-.4.9-.9v-.2l-1.7-9.9 7.2-7.1c.4-.3.5-.6.4-.9zm-9 7c-.2.2-.3.5-.3.8l1.5 8.6-7.8-4.1c-.3-.1-.6-.1-.8 0l-7.7 4.1 1.5-8.6c0-.3 0-.6-.3-.8l-6.3-6.1 8.7-1.3c.3 0 .5-.2.7-.5L16 3.6l3.9 7.8c.1.3.4.4.7.5l8.7 1.2-6.3 6.2z"/></svg>