<svg xmlns="http://www.w3.org/2000/svg" width="64" height="64" viewBox="0 0 64 64"><path fill="currentColor" d="M32 0C14.328 0 0 14.328 0 32s14.328 32 32 32 32-14.328 32-32C64 14.324 49.672 0 32 0zm15.92 24.816l.023 1.02c0 10.416-7.924 22.416-22.416 22.416-4.448 0-8.588-1.304-12.076-3.54.617.07 1.245.112 1.88.112 3.693 0 7.09-1.26 9.785-3.373-3.448-.062-6.356-2.343-7.36-5.47.484.092.972.136 1.484.136.72 0 1.415-.093 2.075-.272-3.604-.728-6.32-3.908-6.32-7.724v-.1c1.064.592 2.276.944 3.568.988-2.112-1.412-3.504-3.824-3.504-6.556 0-1.444.387-2.796 1.063-3.96 3.884 4.768 9.692 7.904 16.24 8.232-.136-.576-.204-1.18-.204-1.796 0-4.348 3.527-7.876 7.88-7.876 2.263 0 4.31.956 5.75 2.488 1.793-.356 3.48-1.012 5.005-1.912-.588 1.84-1.836 3.384-3.464 4.36 1.59-.188 3.112-.616 4.524-1.24-1.054 1.576-2.394 2.964-3.934 4.068z"/></svg>