<svg xmlns="http://www.w3.org/2000/svg" viewBox="0 0 28 35"><path fill="currentColor" d="M27.4.1c-.4-.2-.8-.1-1.2.1-3.2 2.6-8.4 2.6-11.6 0-.4-.3-1-.3-1.4 0C10 2.8 4.8 2.8 1.6.2 1.4 0 1-.1.6.1c-.4.2-.6.6-.6 1v19.7C0 27.1 5.1 32.4 13.7 35h.6C22.9 32.4 28 27.1 28 20.8V1.1c0-.4-.2-.8-.6-1zM2 3.1c2.3 1.2 5 1.5 7.5 1.1L2 12.5V3.1zm10.7 29.3C5.9 30 2 25.8 2 20.8v-2.2h10.8v13.8zm0-16H7.6l5.1-5.9v5.9zm0-9.2l-8 9.2H2v-.7L12.7 3.8v3.4zm2.2 11.4h3l-3 3.6v-3.6zm0 7l5.9-7h3.4L14.9 29v-3.4zm10.8-4.8c0 5-4 9.3-10.8 11.6v-.2l10.8-12v.6zm0-4.4H14.9V3.1c3.3 1.7 7.5 1.7 10.8 0v13.3z"/></svg>