<svg xmlns="http://www.w3.org/2000/svg" viewBox="0 0 33 41"><path fill="currentColor" d="M31.9 28.5c-.9-1.4-2-2.4-3.4-2.9l-4-1.3h-.4l-.6-1c-.2-.3-.6-.4-.9-.2l-.3.2v-.9c0-.1 0-.2-.1-.3 2-1.8 3.2-4.4 3.2-7.4v-2.2c.9-2.4 1.2-4.8.9-6.8-.3-2.3-1.4-3.9-3.1-4.8-1.5.3-2.9 0-4.2-.3-2.1-.5-4.4-1-6.7 1h-.4c-2.7 0-5 2.2-5.1 4.9v.2c0 3 1.1 6.4 1.3 7v1.2c0 3 1.3 5.6 3.2 7.4 0 .1-.1.2-.1.3v.9l-.3-.2c-.3-.2-.7-.1-.9.2l-.6 1H9l-4 1.3c-1.7.2-2.9 1.2-3.7 2.7C.5 29.8.1 31.4.1 32.9v5.6c0 1.4 1.1 2.6 2.5 2.6h28c1.4 0 2.5-1.1 2.5-2.6v-5.6c0-1.6-.5-3.1-1.2-4.4zM26 30.9c0 .1 0 .2-.1.3l-2.1 1.6c-.1.1-.2.3-.3.5 0 .2.1.4.2.5l1.3 1.3c.1.1.1.3 0 .4l-3 4.2h-2.6l5.4-13.9v-.1l.7.2.5 5zm-10.9 8.8l-.4-1.2 1.2-5.9H17.4l1.2 5.9-.6 1.2h-2.9zm-3.9 0l-3.1-4.2c-.1-.1-.1-.3 0-.4l1.3-1.3c.1-.1.2-.3.2-.5s-.1-.4-.3-.5l-2.1-1.6c-.1-.1-.1-.2-.1-.3l.6-4.9.7-.2v.1l5.4 13.9h-2.6v-.1zm4.7-10.9h1.3c.4 0 .6.3.6.6v1.3c0 .4-.3.6-.6.6h-1.3c-.4 0-.6-.3-.6-.6v-1.3c0-.3.3-.6.6-.6zm3.4 7.6l-.8-4.2.1-.1c.3.4.7.6 1.1.7h.2c.4 0 .7-.1 1-.4l-1.6 4zm-4.8-4.3c.1 0 .1 0 0 0l-.7 4.3-1.5-3.9c.3.2.6.4 1 .4h.2c.4-.2.8-.4 1-.8zm8.2-7.5l.8 1.1-1.5 3.8c-.1 0-.1.1-.2.1L20 31.4c-.1.1-.2.1-.2.1s-.1 0-.2-.1l-.5-.8v-1.1c0-.9-.6-1.6-1.4-1.9l5-3zM7.7 6.5c0-2.1 1.7-3.8 3.8-3.8.5 0 1 .1 1.5.3.3.1.7 0 .8-.3.1-.3 0-.7-.3-.8 1.5-.9 3-.5 4.8-.1 1.3.3 2.9.7 4.5.4 1.6.9 2.1 2.6 2.3 3.8.2 1.4.1 3.1-.4 4.9l-1.2-2.1c-.1-.2-.4-.4-.6-.3-.1 0-7.1 1-12.4-1.2-.3-.1-.7 0-.8.3s0 .7.3.8c4.9 2 10.9 1.6 12.6 1.4l1.6 2.9v.3H18.5c-.4 0-.7.2-1 .5 0 .1-.1.1-.1.2h-1.6c0-.1-.1-.1-.1-.2-.2-.3-.6-.5-1-.5H9.1c.4-1.6 1.4-2.8 1.5-2.8.2-.3.2-.7 0-.9-.3-.2-.7-.2-.9 0 0 .1-.8.8-1.3 2-.4-1.4-.7-3.2-.7-4.8zm14.6 7.6l-.5 1.2c-.2.5-.5.7-1 .7h-1.3c-.3 0-.6-.2-.6-.5l-.3-1.3 3.7-.1zm-7.6 0l-.3 1.3c-.1.4-.4.6-.7.6h-1.3c-.5 0-.8-.2-1-.7l-.5-1.2h3.8zm-5.7.6v-.6h.6v.4l.6 1.4c.4.9 1.2 1.5 2.2 1.5h1.3c.9 0 1.7-.7 1.9-1.6l.2-1h1.5l.2 1c.2.9.9 1.6 1.9 1.6h1.3c1 0 1.8-.5 2.2-1.5l.6-1.4v-.2-.2h.6v.6c0 4.6-3.4 8.3-7.6 8.3S9 19.3 9 14.7zm3.1 8.3c1.3.8 2.8 1.3 4.5 1.3 1.6 0 3.1-.5 4.4-1.3v1.1l-4.4 2.7-4.4-2.7V23zm-1.7 1.6l5 3c-.8.2-1.4 1-1.4 1.9v1.1l-.5.8c-.1.1-.2.1-.2.1s-.1 0-.2-.1l-1.8-1.8s-.1-.1-.2-.1l-1.5-3.8.8-1.1zM1.3 38.4v-5.6c0-3.2 1.9-5.5 3.8-6.1l1.2-.4-.5 4.4c-.1.6.2 1.1.6 1.5L8 33.4l-.8.8c-.6.6-.6 1.5-.1 2.1l2.6 3.4h-7c-.8 0-1.4-.6-1.4-1.3zm30.5 0c0 .7-.6 1.3-1.3 1.3h-7l2.6-3.4c.5-.6.4-1.5-.1-2.1l-.8-.8 1.5-1.2c.4-.3.7-.9.6-1.5l-.5-4.4 1.2.4c1.9.6 3.8 2.9 3.8 6.1v5.6z"/></svg>