<svg xmlns="http://www.w3.org/2000/svg" viewBox="0 0 36 31"><path fill="currentColor" d="M35.3 8L28 .7c-.5-.4-1.1-.7-1.8-.7s-1.3.3-1.7.7l-1.7 1.7c-.3.3-.5.6-.6.9l-8.1-1.4C10.5 1.2 7 3.5 6.2 7.1l-.3 1.8c-.4 2 .9 4 2.9 4.4 2 .4 4-.9 4.4-2.9l.2-1.1 3.6.3 9.4 9.4 1.7 1.7c.3.3.3.9 0 1.2-.3.3-.9.3-1.3 0l-4.6-4.5c-.3-.3-.8-.3-1.2 0-.3.3-.3.8 0 1.1l4.6 4.5c.2.2.3.4.3.6 0 .2-.1.5-.3.6-.3.3-.9.3-1.3 0L20 19.8c-.3-.3-.8-.3-1.2 0-.3.3-.3.8 0 1.1l4.6 4.5c.3.3.3.9 0 1.2-.2.3-.4.4-.6.4-.2 0-.5-.1-.6-.3l-4.6-4.5c-.3-.3-.8-.3-1.2 0-.3.3-.3.8 0 1.1l4.6 4.5c.3.3.3.9 0 1.2-.3.3-.9.3-1.3 0L3.5 13l-2.1-2.1c-.3-.3-.8-.3-1.2 0-.3.3-.3.8 0 1.1l2.1 2.1 2.3 2.3-1.3 1.3c-.4.4-.7 1-.7 1.6s.2 1.1.7 1.6l.4.4c.4.4.8.6 1.4.6.1.5.3 1 .6 1.3l.4.4c.4.4.9.6 1.4.6 0 .5.3 1 .6 1.3l.4.4c.4.4.8.6 1.4.6.1.5.3 1 .6 1.3l.4.4c.4.4 1 .6 1.6.6.6 0 1.1-.2 1.6-.6l1.3-1.3 3.1 3.1c.5.5 1.1.7 1.8.7s1.3-.3 1.8-.7c.5-.4.7-1 .7-1.7.6 0 1.2-.3 1.7-.7.5-.5.7-1.1.7-1.7.6 0 1.2-.3 1.7-.7s.7-1.1.7-1.7c.6 0 1.2-.3 1.7-.7 1-1 1-2.6 0-3.5l-1.1-1.1 4.1-4.1 2.9-2.9c1-.7 1-2.3.1-3.2zM5.8 20.2c-.2.2-.6.2-.8 0l-.4-.4c-.2-.2-.2-.6 0-.8l1.2-1.2L7 19l-1.2 1.2zm2.4 2.3c-.2.2-.6.2-.8 0l-.4-.4c-.2-.2-.2-.6 0-.8l1.2-1.2 1.3 1.2-1.3 1.2zm2.5 2.4c-.2.2-.6.2-.8 0l-.4-.4c-.1-.1-.2-.3-.2-.4 0-.2.1-.3.2-.4l1.2-1.2 1.3 1.2-1.3 1.2zm2.4 2.4c-.2.2-.6.2-.8 0l-.4-.4c-.2-.2-.2-.6 0-.8l1.2-1.2 1.3 1.2-1.3 1.2zm14-10l-9.1-9c-.1-.2-.3-.3-.5-.3l-4.6-.4h-.1c-.4 0-.7.3-.8.7l-.4 1.8c-.2 1.1-1.4 1.9-2.5 1.7-.6-.1-1-.4-1.4-.9-.3-.5-.4-1-.3-1.6l.4-1.8c.6-2.7 3.2-4.5 6-3.9L21.7 5l1 1 7.9 7.9-3.5 3.4zm7-7l-2.3 2.3-7.9-7.9c-.2-.2-.2-.4-.2-.6 0-.2.1-.4.2-.6l1.7-1.7c.2-.2.4-.2.6-.2.2 0 .4.1.6.2l7.3 7.3c.2.2.2.4.2.6.1.2 0 .4-.2.6zm-2-1.1c-.5 0-.8.4-.8.8s.4.8.8.8c.5 0 .8-.4.8-.8s-.3-.8-.8-.8z"/></svg>