<svg xmlns="http://www.w3.org/2000/svg" viewBox="0 0 43 41"><path fill="currentColor" d="M41.4 19.9c-1.9-1.8-7.2-6.7-8.1-7.5-.4-1.3-1-2.5-1.5-3.6C29 3.1 25.3 0 21.5 0S14 3.1 11.2 8.9c-.6 1.1-1.1 2.3-1.5 3.6-.9.8-6.2 5.7-8.1 7.5-2.1 2-2.2 5.3-.2 7.4.1.1.3.2.5.2s.3-.1.5-.2l5.1-4.7c-.2 1.7-.3 3.4-.3 5 0 5.3 1.5 9.9 4.2 13.1.1.2.3.2.5.2h19.3c.2 0 .4-.1.5-.2 2.7-3.1 4.2-7.8 4.2-13.1 0-1.7-.1-3.4-.3-5l5.1 4.7c.1.1.3.2.5.2s.4-.1.5-.2c1.9-2.2 1.7-5.5-.3-7.5zM2 25.8c-1-1.5-.8-3.6.6-4.9 1.3-1.2 4.3-4 6.3-5.8-.5 1.7-.9 3.6-1.2 5.4L2 25.8zm28.8 13.8H29c1.4-3 2.2-7.2 2.2-11.9 0-7.6-1.3-15.3-3.4-20.8-.1-.2-.3-.4-.5-.4s-.5 0-.6.2c-1.2 1.2-2.5 2-3.8 2.4-.3.1-.5.3-.5.6-.1.7-.5 1.4-.9 1.9-.4-.5-.8-1.2-.9-1.9 0-.3-.2-.5-.5-.6-1.3-.3-2.6-1.1-3.8-2.4-.2-.2-.4-.2-.6-.2-.2 0-.4.2-.5.4-2 5-3.3 12.3-3.4 19.4 0 .4.3.7.7.7.4 0 .7-.3.7-.7.1-3.6.4-7.2 1-10.5.5-2.7 1.1-5.3 1.9-7.4 1.1.9 2.1 1.5 3.3 1.9.4 1.5 1.6 2.8 1.7 2.9.1.1.3.2.5.2s.4-.1.5-.2c.1-.1 1.3-1.3 1.7-2.9 1.1-.4 2.2-1 3.3-1.9.8 2.2 1.4 4.7 1.9 7.4.7 3.7 1.1 7.8 1.1 11.9 0 4.8-.8 9-2.4 11.9H15.5c-1.4-2.6-2.2-6.3-2.4-10.6 0-.4-.3-.7-.7-.7-.4 0-.7.3-.7.7.1 4.2.9 7.8 2.2 10.5h-1.8c-2.3-2.9-3.6-7.1-3.6-11.9 0-6.4 1.4-13.1 4-18.2 2.5-5.1 5.8-8.1 9-8.1s6.5 3 9 8.1 4 11.8 4 18.2c0 4.9-1.3 9.2-3.7 12zM41 25.8l-5.7-5.3c-.3-1.9-.7-3.7-1.2-5.4 2 1.8 5 4.6 6.3 5.8 1.4 1.3 1.6 3.4.6 4.9zM18.9 5.1h-.6c-.4 0-.7.3-.7.7 0 .4.3.7.7.7h.6c.4 0 .7-.3.7-.7 0-.4-.3-.7-.7-.7zm5.8 0h-.6c-.4 0-.7.3-.7.7 0 .4.3.7.7.7h.6c.4 0 .7-.3.7-.7 0-.4-.3-.7-.7-.7z"/></svg>