<svg xmlns="http://www.w3.org/2000/svg" viewBox="0 0 42 38"><path fill="currentColor" d="M29.4 0c-3.1 0-6.1 1.1-8.4 3.2C18.7 1.1 15.7 0 12.6 0 5.6 0 0 5.6 0 12.5c0 4.3 2.4 9.5 6.7 14.6 4 4.7 9.1 8.6 14 10.9.1 0 .2.1.3.1.1 0 .2 0 .3-.1 4.9-2.3 10-6.2 14-10.9C39.6 22 42 16.8 42 12.5 42 5.6 36.4 0 29.4 0zM12.6 1.3c3 0 5.8 1.2 7.9 3.2.3.3.7.3 1 0 2.1-2.1 4.9-3.2 7.9-3.2 6.2 0 11.2 5 11.2 11.1 0 1.5-.3 3.1-.9 4.8h-8.6c-.3 0-.6.2-.7.5l-.8 3.6-2.1-9.3c-.1-.3-.3-.5-.7-.5-.3 0-.6.2-.7.5l-1.3 5.2h-8.2c-.3 0-.6.2-.7.5l-.8 3.6L13 12c-.1-.3-.3-.5-.7-.5-.3 0-.6.2-.7.5l-1.3 5.2h-8c-.6-1.7-.9-3.3-.9-4.8 0-6.1 5-11.1 11.2-11.1zm21.7 24.9c-3.7 4.4-8.7 8.2-13.3 10.4-4.6-2.2-9.5-6-13.3-10.4-2.2-2.6-3.9-5.1-4.9-7.6h8c.3 0 .6-.2.7-.5l.8-3.1 2.3 9.5c.1.3.3.5.7.5.3 0 .6-.2.7-.5l1.3-5.9h8.2c.3 0 .6-.2.7-.5L27 15l2.3 9.5c.1.3.3.5.7.5.3 0 .6-.2.7-.5l1.3-5.9h7.5c-1.4 2.5-3.1 5-5.2 7.6z"/></svg>