<svg xmlns="http://www.w3.org/2000/svg" viewBox="0 0 37 42"><path fill="currentColor" d="M18.5 16c-2.7 0-5 2.3-5 5 0 2.8 2.2 5 5 5s5-2.3 5-5c0-2.8-2.2-5-5-5zm0 8.7c-2 0-3.6-1.6-3.6-3.7s1.6-3.7 3.6-3.7 3.6 1.6 3.6 3.7-1.6 3.7-3.6 3.7zm0-5.8c-.4 0-.7.3-.7.7 0 .4.3.7.7.7.4 0 .8.3.8.8 0 .4.3.7.7.7.4 0 .7-.3.7-.7-.1-1.3-1-2.2-2.2-2.2zm14 2.1c.6-.6 1.1-1.2 1.6-1.9 2.7-3.5 3.6-6.5 2.4-8.6-1.2-2.1-4.2-2.9-8.5-2.2-.8.1-1.6.3-2.4.5-.6-1.8-1.2-3.3-1.9-4.6.3-.4.5-.8.5-1.4 0-1.2-.9-2.1-2.1-2.1-.3 0-.7.1-1 .2-.8-.6-1.7-1-2.6-1-2.4 0-4.6 2.3-6.2 6.4-.3.7-.6 1.5-.8 2.4-.8-.2-1.6-.4-2.4-.5-4.3-.7-7.3.1-8.5 2.2C-.6 12.5.2 15.6 3 19c.5.6 1 1.3 1.6 1.9-.7.8-1.4 1.5-1.9 2.3-.2 0-.4-.1-.6-.1-1.2 0-2.1 1-2.1 2.1 0 .6.2 1.1.6 1.5-.7 1.8-.7 3.4 0 4.6 1 1.8 3 2.7 5.8 2.7.8 0 1.8-.1 2.7-.2.8-.1 1.6-.3 2.4-.5.2.8.5 1.6.8 2.4 1.6 4.1 3.8 6.4 6.2 6.4s4.6-2.3 6.2-6.4c.3-.7.6-1.5.8-2.4 1.1.3 2.1.5 3.1.6.2.9 1.1 1.6 2 1.6 1 0 1.8-.7 2.1-1.7 1.8-.3 3-1.1 3.7-2.3 1.2-2.1.4-5.2-2.4-8.6-.4-.7-.9-1.3-1.5-1.9zm-7.1-5.9c-.8-.6-1.7-1.1-2.6-1.6L20.1 12c1.5-.7 3-1.2 4.4-1.6.4 1.5.7 3.1.9 4.7zm-3.3-13c.4 0 .8.3.8.8 0 .4-.3.8-.8.8s-.8-.3-.8-.8c.1-.5.4-.8.8-.8zm-8.5 4.8c1.4-3.5 3.2-5.5 4.9-5.5.6 0 1.1.2 1.7.6-.1.2-.2.5-.2.9C20 4 21 5 22.1 5c.2 0 .3 0 .5-.1.6 1.2 1.2 2.6 1.6 4.2-1.8.5-3.7 1.3-5.7 2.2-1.9-.9-3.8-1.6-5.7-2.2.3-.8.5-1.5.8-2.2zm-1.1 3.5c1.4.4 2.9 1 4.4 1.6-.9.5-1.8.9-2.7 1.5-.9.5-1.8 1.1-2.6 1.6.3-1.6.6-3.2.9-4.7zM2.1 24.6c.4 0 .8.3.8.8s-.3.8-.8.8c-.4 0-.8-.3-.8-.8s.4-.8.8-.8zM9 32.4c-3.7.6-6.3 0-7.2-1.6-.6-1-.3-2.3 0-3.4h.3c1.2 0 2.1-1 2.1-2.1 0-.5-.2-.9-.4-1.3.5-.7 1.1-1.4 1.8-2.1 1.4 1.3 3 2.7 4.7 3.9.2 2.1.5 4.2 1 6.1-.8.2-1.6.4-2.3.5zm1.1-8.3c-1.3-1-2.5-2-3.6-3.1 1.1-1 2.3-2.1 3.6-3.1-.1 1-.1 2.1-.1 3.1s0 2.1.1 3.1zm.1-8c-1.7 1.3-3.3 2.6-4.7 3.9-.5-.5-1-1.1-1.5-1.7-2.3-2.9-3.1-5.5-2.2-7.1C2.7 9.6 5.3 9 9 9.6c.7.1 1.5.3 2.3.5-.5 1.8-.9 3.9-1.1 6zm1.5 10.8c.8.6 1.7 1.1 2.6 1.6L17 30c-1.5.7-3 1.2-4.4 1.6-.4-1.5-.7-3.1-.9-4.7zm11.8 8.2c-1.4 3.5-3.2 5.5-4.9 5.5-1.8 0-3.6-2-4.9-5.5-.3-.7-.5-1.4-.7-2.2 1.8-.5 3.7-1.3 5.7-2.2 1.9.9 3.8 1.6 5.7 2.2-.4.8-.6 1.5-.9 2.2zm1.1-3.5c-1.4-.4-2.9-1-4.4-1.6.9-.5 1.8-.9 2.7-1.5.9-.5 1.8-1.1 2.6-1.6-.3 1.6-.6 3.2-.9 4.7zm1-6.5c-1.1.8-2.2 1.5-3.4 2.2-1.2.7-2.4 1.3-3.6 1.9-1.2-.6-2.4-1.2-3.6-1.9-1.2-.7-2.3-1.4-3.4-2.2-.1-1.3-.2-2.7-.2-4.1 0-1.4.1-2.8.2-4.1 1.1-.8 2.2-1.5 3.4-2.2 1.2-.7 2.4-1.3 3.6-1.9 1.2.6 2.4 1.2 3.6 1.9 1.2.7 2.3 1.4 3.4 2.2.1 1.3.2 2.7.2 4.1-.1 1.4-.1 2.8-.2 4.1zm2.5-15.5c3.7-.6 6.3 0 7.2 1.6.9 1.6.1 4.2-2.2 7.1l-1.5 1.8c-1.4-1.3-3-2.7-4.7-3.9-.2-2.2-.5-4.2-1-6.1.7-.2 1.5-.4 2.2-.5zM27 17.9c1.3 1 2.5 2 3.6 3.1-1.1 1-2.3 2.1-3.6 3.1.1-1 .1-2 .1-3.1 0-1 0-2.1-.1-3.1zm3.7 16.2c-.4 0-.8-.3-.8-.8 0-.4.3-.8.8-.8.4 0 .8.3.8.8s-.4.8-.8.8zm4.6-3.3c-.5.8-1.4 1.4-2.7 1.6-.3-.7-1.1-1.2-1.9-1.2-.9 0-1.6.5-1.9 1.3-.9-.1-1.9-.3-2.9-.5.5-1.9.8-3.9 1-6.1 1.7-1.3 3.3-2.6 4.7-3.9.6.6 1.1 1.2 1.5 1.8 2.3 2.9 3.1 5.5 2.2 7z"/></svg>