<svg xmlns="http://www.w3.org/2000/svg" width="64" height="64" viewBox="0 0 64 64"><path fill="currentColor" d="M32 0C14.328 0 0 14.327 0 32c0 17.673 14.328 32 32 32 17.673 0 32-14.327 32-32C64 14.327 49.673 0 32 0zm16.23 35.46c1.493 1.458 3.07 2.83 4.41 4.436.594.71 1.152 1.447 1.578 2.273.606 1.18.06 2.472-.997 2.542h-6.554c-1.694.14-3.042-.544-4.178-1.7-.906-.925-1.747-1.91-2.62-2.863-.357-.393-.733-.762-1.182-1.052-.894-.58-1.67-.403-2.183.53-.52.95-.64 2.004-.69 3.06-.07 1.547-.537 1.95-2.088 2.023-3.315.156-6.46-.347-9.382-2.018-2.578-1.474-4.574-3.555-6.313-5.908-3.386-4.59-5.98-9.63-8.31-14.814-.524-1.167-.14-1.792 1.147-1.816 2.14-.042 4.28-.037 6.418-.002.87.014 1.447.512 1.782 1.334 1.156 2.845 2.574 5.55 4.35 8.062.474.668.957 1.335 1.646 1.808.76.52 1.338.348 1.696-.5.228-.54.327-1.115.377-1.693.17-1.978.19-3.955-.104-5.925-.183-1.233-.876-2.03-2.105-2.262-.625-.12-.534-.35-.23-.708.53-.618 1.024-1 2.013-1h7.407c1.168.228 1.43.752 1.59 1.928l.005 8.23c-.014.456.23 1.805 1.046 2.103.655.215 1.087-.31 1.48-.725 1.774-1.885 3.04-4.11 4.173-6.412.5-1.016.934-2.066 1.352-3.12.313-.778.797-1.16 1.676-1.147l7.133.008c.21 0 .424.002.633.04 1.2.204 1.53.722 1.158 1.894-.583 1.842-1.722 3.377-2.832 4.916-1.192 1.647-2.464 3.237-3.642 4.892-1.085 1.51-1 2.27.345 3.585z"/></svg>