<svg xmlns="http://www.w3.org/2000/svg" viewBox="508 -530 1100 1100"><linearGradient id="a" gradientUnits="userSpaceOnUse" x1="548.278" y1="19" x2="1567.726" y2="19" gradientTransform="matrix(1 0 0 -1 0 39)"><stop offset="0" stop-color="#F39B23"/><stop offset="1" stop-color="#F6AF1B"/></linearGradient><path fill="url(#a)" d="M1051.4-477.9c2.2-3.8 4.3-7.7 6.8-11.4 40.9 70.9 81.9 141.8 123 212.6 77.3-20.9 154.7-41.4 232-62.1 1.7-.5 3.4-.9 5.1-1.3-20.8 79.1-42.4 158-63.2 237.1 70.8 41.1 141.8 81.8 212.6 122.9-70.8 41.1-141.8 81.8-212.6 122.9 20.9 79.1 42.5 158 63.3 237.1-79.1-21-158.2-42.2-237.2-63.4-41 70.8-82.1 141.7-123 212.7-41.1-70.8-82.1-141.7-123-212.6-56 14.8-112 29.9-167.9 44.8-23.2 6.1-46.4 12.6-69.7 18.4 21.4-79 42.4-158.1 63.6-237.1-71-41-141.9-82-212.9-122.9L755.6-99.9c1.6-1.4 5-1.9 5.3-4.1-21.1-78.8-42.2-157.6-63.3-236.5 72.8 19.5 145.6 38.9 218.4 58.4 6.4 1.7 12.7 3.6 19.2 4.9 38.7-66.8 77.5-133.7 116.2-200.7z"/><circle fill="#FFF" cx="1057.7" cy="18.7" r="270"/><linearGradient id="b" gradientUnits="userSpaceOnUse" x1="750.193" y1="-556.745" x2="1315.193" y2="-556.745" gradientTransform="matrix(0 1 1 0 1614.438 -1013.948)"><stop offset="0" stop-color="#F5BA21"/><stop offset="1" stop-color="#E7921F"/></linearGradient><path fill="url(#b)" d="M1057.7 301.2c-75.5 0-146.4-29.4-199.8-82.7-53.4-53.4-82.7-124.3-82.7-199.8 0-75.5 29.4-146.4 82.7-199.8 53.4-53.4 124.3-82.7 199.8-82.7s146.4 29.4 199.8 82.7c53.4 53.4 82.7 124.3 82.7 199.8 0 75.5-29.4 146.4-82.7 199.8-53.4 53.4-124.3 82.7-199.8 82.7zm0-540c-142 0-257.5 115.5-257.5 257.5s115.5 257.5 257.5 257.5 257.5-115.5 257.5-257.5c0-141.9-115.5-257.5-257.5-257.5z"/><path fill="#37B5E5" d="M862.9-12.6h17.2c-8.4 21.4-21.4 47-31.8 64.2h-18.9c3.3-4.4 7.8-11.3 10.8-16.6-4.5-12-15.2-34.9-22.9-47.6h17.9c4.7 8.4 10.4 20.5 14.4 31.2 5.1-10.4 10.2-22.4 13.3-31.2zM1089.6 19.6c0 17.7-14.4 32-32.1 32-17.8 0-32.2-14.3-32.2-32s14.4-32 32.2-32c17.7 0 32.1 14.3 32.1 32zM912.6 51.6V.4h-21.4v-13h57.7v13h-21.4v51.2h-14.9zM960.2 51.6v-64.2H996c13.2 0 17.6 9.4 17.6 22.5 0 11.6-5.5 21.6-17.5 21.6H975v20h-14.8zm30.7-32.2c3.9 0 6.4-2.7 6.4-9.4 0-7-2.2-9.8-6.3-9.8h-16v19.2h15.9z"/><path fill="#FFF" d="M1057.1-7.4c.1-.2.2-.4.4-.6 2.3 3.9 4.5 7.8 6.8 11.7 4.3-1.1 8.5-2.3 12.8-3.4.1 0 .2 0 .3-.1-1.1 4.3-2.3 8.7-3.5 13 3.9 2.3 7.8 4.5 11.7 6.8-3.9 2.3-7.8 4.5-11.7 6.8 1.1 4.3 2.3 8.7 3.5 13-4.3-1.2-8.7-2.3-13-3.5-2.3 3.9-4.5 7.8-6.8 11.7-2.3-3.9-4.5-7.8-6.8-11.7-3.1.8-6.2 1.6-9.2 2.5-1.3.3-2.5.7-3.8 1 1.2-4.3 2.3-8.7 3.5-13-3.9-2.3-7.8-4.5-11.7-6.8l11.4-6.6c.1-.1.3-.1.3-.2-1.2-4.3-2.3-8.7-3.5-13 4 1.1 8 2.1 12 3.2.4.1.7.2 1.1.3 2-3.7 4.1-7.4 6.2-11.1z"/><ellipse fill="#F39D22" cx="1057.5" cy="20" rx="14" ry="13.9"/><path fill="#37B5E5" d="M1143.3 46.1v5.5h-43v-5.1c34.6-27.5 36.8-30.9 36.8-42 0-9.4-4.8-12-16-12-5.2 0-12.8 1-15.8 2.5l-1.6-5.9c5.6-1.4 11.9-2.5 17.6-2.5 15.5 0 22.8 4.8 22.8 17.7 0 12.5-4.6 19.4-35.1 41.8h34.3zM1155.7 19c0-25.7 7.4-32.4 22.5-32.4 15.2 0 22.5 6.7 22.5 32.4 0 25.9-7.2 33.9-22.5 33.9-15.2 0-22.5-7.9-22.5-33.9zm6.6 0c0 22.1 4.5 28.2 15.7 28.2 11.6 0 15.9-6.1 15.9-28.2 0-23.3-4.4-27.1-15.9-27.1-11.2 0-15.7 3.8-15.7 27.1z"/><g><path fill="#37B5E5" d="M1227.5 51.6V-4.9l-14.2 6.8-2.2-4.9 22.9-11.1v65.7h-6.5z"/></g><g><path fill="#37B5E5" d="M1295.3-10.7l-2.1 5.8c-3.8-1.5-9.3-2.5-14.2-2.5-14 0-20.7 3.1-21.4 22.6 5-1 12.1-1.5 16.5-1.5 17.2 0 23.2 5.7 23.2 19.5 0 15.1-6.9 19.8-22.8 19.8-17.3 0-23.8-7.5-23.8-33.4s9.6-32.9 28.1-32.9c5.5-.1 11.6 1 16.5 2.6zm-5 44.6c0-10.9-3.3-14.7-16.2-14.7-5.8 0-12 .6-16.5 1.6.2 22 5.7 26.6 16.9 26.6 13-.1 15.8-3.9 15.8-13.5z"/></g></svg>